<svg xmlns="http://www.w3.org/2000/svg" xmlns:xlink="http://www.w3.org/1999/xlink" width="500" zoomAndPan="magnify" viewBox="0 0 375 374.999991" height="500" preserveAspectRatio="xMidYMid meet" version="1.2"><defs><clipPath id="f767bdd903"><path d="M 0 22.5 L 375 22.5 L 375 352.5 L 0 352.5 Z M 0 22.5 "/></clipPath></defs><g id="b77f12c432"><g clip-rule="nonzero" clip-path="url(#f767bdd903)"><path style=" stroke:none;fill-rule:evenodd;fill:#e6a823;fill-opacity:1;" d="M 327.546875 206.90625 L 277.050781 206.90625 C 274.136719 253.71875 235.117188 290.917969 187.542969 290.917969 C 140.015625 290.917969 100.996094 253.71875 98.03125 206.90625 L 47.585938 206.90625 L 47.585938 216.710938 L 74.363281 225.414062 C 76.230469 226.035156 77.617188 227.515625 78.140625 229.429688 C 80.769531 239.710938 84.835938 249.511719 90.238281 258.691406 C 91.242188 260.367188 91.289062 262.421875 90.429688 264.144531 L 77.613281 289.246094 L 99.515625 311.191406 L 124.664062 298.378906 C 126.386719 297.46875 128.441406 297.566406 130.117188 298.519531 C 139.25 303.972656 149.097656 308.035156 159.378906 310.667969 C 161.246094 311.144531 162.773438 312.578125 163.347656 314.394531 L 172.050781 341.21875 L 203.035156 341.21875 L 211.738281 314.394531 C 212.359375 312.578125 213.839844 311.144531 215.753906 310.667969 C 225.984375 308.035156 235.835938 303.972656 244.96875 298.519531 C 246.640625 297.566406 248.699219 297.46875 250.46875 298.378906 L 275.570312 311.191406 L 297.46875 289.246094 L 284.703125 264.144531 C 283.792969 262.421875 283.84375 260.367188 284.847656 258.691406 C 290.25 249.511719 294.359375 239.660156 296.992188 229.429688 C 297.46875 227.515625 298.902344 226.035156 300.722656 225.414062 L 327.546875 216.710938 Z M 53.039062 153.210938 L 53.039062 195.574219 L 117.589844 195.574219 L 117.589844 166.027344 C 117.589844 151.824219 121.796875 138.628906 129.113281 127.582031 C 121.078125 117.015625 108.742188 110.800781 95.402344 110.800781 C 72.019531 110.800781 53.039062 129.828125 53.039062 153.210938 Z M 95.402344 99.464844 C 107.40625 99.464844 117.207031 89.710938 117.207031 77.710938 C 117.207031 65.660156 107.402344 55.90625 95.402344 55.90625 C 83.402344 55.90625 73.597656 65.660156 73.597656 77.710938 C 73.597656 89.710938 83.402344 99.464844 95.402344 99.464844 Z M 128.921875 166.027344 C 128.921875 133.703125 155.21875 107.40625 187.542969 107.40625 C 219.867188 107.40625 246.164062 133.703125 246.164062 166.027344 L 246.164062 195.574219 L 128.921875 195.574219 Z M 187.542969 96.023438 C 204.707031 96.023438 218.621094 82.109375 218.621094 64.945312 C 218.621094 47.828125 204.707031 33.914062 187.542969 33.914062 C 170.425781 33.914062 156.460938 47.828125 156.460938 64.945312 C 156.460938 82.109375 170.425781 96.023438 187.542969 96.023438 Z M 109.414062 206.90625 L 265.671875 206.90625 C 262.757812 247.453125 228.855469 279.585938 187.542969 279.585938 C 146.277344 279.585938 112.328125 247.453125 109.414062 206.90625 Z M 246.019531 127.582031 C 253.289062 138.628906 257.542969 151.824219 257.542969 166.027344 L 257.542969 195.574219 L 322.09375 195.574219 L 322.09375 153.210938 C 322.09375 129.828125 303.066406 110.800781 279.683594 110.800781 C 266.390625 110.800781 254.054688 117.015625 246.019531 127.582031 Z M 279.683594 99.464844 C 291.730469 99.464844 301.484375 89.710938 301.484375 77.710938 C 301.484375 65.660156 291.730469 55.90625 279.683594 55.90625 C 267.679688 55.90625 257.925781 65.660156 257.925781 77.710938 C 257.925781 89.710938 267.679688 99.464844 279.683594 99.464844 Z M 374.785156 201.21875 C 374.785156 204.375 372.253906 206.90625 369.144531 206.90625 L 338.878906 206.90625 L 338.878906 220.867188 C 338.878906 223.308594 337.300781 225.507812 334.957031 226.273438 L 307.175781 235.261719 C 304.546875 244.488281 300.863281 253.335938 296.179688 261.75 L 309.472656 287.761719 C 310.570312 289.960938 310.140625 292.640625 308.417969 294.359375 L 280.6875 322.09375 C 278.964844 323.863281 276.289062 324.246094 274.089844 323.144531 L 248.03125 309.855469 C 239.660156 314.539062 230.816406 318.222656 221.585938 320.851562 L 212.550781 348.632812 C 211.785156 350.972656 209.632812 352.550781 207.148438 352.550781 L 167.9375 352.550781 C 165.5 352.550781 163.300781 350.972656 162.535156 348.632812 L 153.5 320.851562 C 144.316406 318.222656 135.425781 314.539062 127.058594 309.855469 L 101 323.144531 C 98.800781 324.246094 96.167969 323.863281 94.398438 322.09375 L 66.667969 294.359375 C 64.945312 292.640625 64.515625 289.960938 65.613281 287.761719 L 78.90625 261.75 C 74.222656 253.335938 70.539062 244.488281 67.957031 235.261719 L 40.128906 226.273438 C 37.785156 225.507812 36.207031 223.308594 36.207031 220.867188 L 36.207031 206.90625 L 5.941406 206.90625 C 2.832031 206.90625 0.296875 204.375 0.296875 201.21875 C 0.296875 198.109375 2.832031 195.574219 5.941406 195.574219 L 41.660156 195.574219 L 41.660156 153.210938 C 41.660156 130.882812 55.382812 111.707031 74.792969 103.578125 C 67.144531 97.507812 62.265625 88.183594 62.265625 77.710938 C 62.265625 59.445312 77.136719 44.574219 95.402344 44.574219 C 113.667969 44.574219 128.539062 59.445312 128.539062 77.710938 C 128.539062 88.183594 123.660156 97.507812 116.011719 103.578125 C 123.804688 106.832031 130.738281 111.851562 136.285156 118.449219 C 143.839844 110.320312 153.257812 103.960938 163.875 100.136719 C 152.589844 92.535156 145.128906 79.574219 145.128906 64.945312 C 145.128906 41.5625 164.160156 22.53125 187.542969 22.53125 C 210.921875 22.53125 229.953125 41.5625 229.953125 64.945312 C 229.953125 79.574219 222.496094 92.535156 211.210938 100.136719 C 221.824219 103.960938 231.292969 110.320312 238.800781 118.449219 C 244.347656 111.851562 251.328125 106.832031 259.074219 103.578125 C 251.46875 97.507812 246.59375 88.183594 246.59375 77.710938 C 246.59375 59.445312 261.417969 44.574219 279.683594 44.574219 C 297.949219 44.574219 312.816406 59.445312 312.816406 77.710938 C 312.816406 88.183594 307.941406 97.507812 300.339844 103.578125 C 319.75 111.707031 333.425781 130.882812 333.425781 153.210938 L 333.425781 195.574219 L 369.144531 195.574219 C 372.253906 195.574219 374.785156 198.109375 374.785156 201.21875 Z M 160.863281 245.304688 C 158.664062 243.105469 158.664062 239.46875 160.863281 237.269531 C 163.109375 235.070312 166.695312 235.070312 168.894531 237.269531 L 180.992188 249.367188 L 213.695312 214.414062 C 215.847656 212.117188 219.433594 211.976562 221.730469 214.125 C 223.976562 216.230469 224.121094 219.863281 221.96875 222.113281 L 185.296875 261.414062 C 183.117188 263.769531 179.453125 263.839844 177.117188 261.558594 Z M 160.863281 245.304688 "/></g></g></svg>