<svg xmlns="http://www.w3.org/2000/svg" xmlns:xlink="http://www.w3.org/1999/xlink" width="500" zoomAndPan="magnify" viewBox="0 0 375 374.999991" height="500" preserveAspectRatio="xMidYMid meet" version="1.2"><defs><clipPath id="b42f445337"><path d="M 0 0 L 374.25 0 L 374.25 375 L 0 375 Z M 0 0 "/></clipPath></defs><g id="93778ea96a"><g clip-rule="nonzero" clip-path="url(#b42f445337)"><path style=" stroke:none;fill-rule:nonzero;fill:#e6a823;fill-opacity:1;" d="M 187.144531 216.984375 C 203.246094 216.984375 216.347656 203.882812 216.347656 187.777344 C 216.347656 171.675781 203.246094 158.574219 187.144531 158.574219 C 171.042969 158.574219 157.9375 171.675781 157.9375 187.777344 C 157.9375 203.882812 171.042969 216.984375 187.144531 216.984375 Z M 187.144531 170.390625 C 196.730469 170.390625 204.53125 178.191406 204.53125 187.777344 C 204.53125 197.363281 196.730469 205.167969 187.144531 205.167969 C 177.558594 205.167969 169.757812 197.363281 169.757812 187.777344 C 169.757812 178.191406 177.558594 170.390625 187.144531 170.390625 Z M 360.464844 292.164062 L 313.195312 292.164062 C 305.59375 292.164062 299.40625 298.351562 299.40625 305.953125 L 299.40625 323.675781 L 252.617188 323.675781 L 238.589844 309.652344 C 236.28125 307.34375 232.542969 307.34375 230.234375 309.652344 C 227.925781 311.960938 227.925781 315.699219 230.234375 318.007812 L 235.90625 323.675781 L 174.230469 323.675781 L 144.492188 286.503906 C 142.246094 283.703125 137.503906 283.703125 135.257812 286.503906 L 105.519531 323.675781 L 92.605469 323.675781 C 63.265625 323.675781 38.425781 304.117188 30.378906 277.363281 L 42.558594 262.566406 C 44.636719 260.050781 44.273438 256.328125 41.75 254.25 C 39.234375 252.171875 35.511719 252.519531 33.433594 255.058594 L 27.777344 261.929688 C 27.722656 260.847656 27.609375 259.78125 27.609375 258.683594 C 27.609375 241.289062 34.375 224.976562 46.691406 212.738281 C 58.902344 200.449219 75.210938 193.6875 92.605469 193.6875 L 112.800781 193.6875 L 112.800781 201.066406 C 112.800781 203.988281 114.949219 206.480469 117.839844 206.914062 L 134.167969 209.34375 C 134.25 209.558594 134.34375 209.773438 134.433594 209.992188 L 124.609375 223.261719 C 122.863281 225.617188 123.109375 228.886719 125.179688 230.953125 L 143.96875 249.742188 C 146.046875 251.820312 149.324219 252.050781 151.660156 250.3125 L 164.933594 240.488281 C 165.148438 240.578125 165.363281 240.671875 165.578125 240.757812 L 168.011719 257.082031 C 168.441406 259.976562 170.933594 262.121094 173.855469 262.121094 L 200.429688 262.121094 C 203.355469 262.121094 205.847656 259.976562 206.277344 257.082031 L 208.707031 240.757812 C 208.925781 240.671875 209.140625 240.578125 209.355469 240.488281 L 222.625 250.3125 C 224.988281 252.050781 228.242188 251.820312 230.320312 249.742188 L 249.105469 230.953125 C 251.175781 228.886719 251.421875 225.617188 249.675781 223.261719 L 239.851562 209.992188 C 239.945312 209.773438 240.035156 209.558594 240.121094 209.34375 L 256.445312 206.914062 C 259.339844 206.480469 261.484375 203.988281 261.484375 201.066406 L 261.484375 193.6875 L 281.679688 193.6875 C 302.246094 193.6875 321.535156 185.6875 335.953125 171.175781 C 350.011719 157.207031 357.886719 138.695312 358.394531 118.894531 L 370.257812 102.074219 C 372.132812 99.402344 371.496094 95.71875 368.832031 93.832031 C 366.148438 91.941406 362.472656 92.59375 360.59375 95.257812 L 356.75 100.714844 C 349.300781 66.101562 318.488281 40.0625 281.679688 40.0625 L 260.890625 40.0625 L 231.152344 2.886719 C 228.902344 0.0898438 224.164062 0.0898438 221.917969 2.886719 L 192.179688 40.0625 L 142.320312 40.0625 L 128.296875 26.039062 C 125.988281 23.730469 122.25 23.730469 119.941406 26.039062 C 117.632812 28.347656 117.632812 32.085938 119.941406 34.394531 L 125.609375 40.0625 L 74.28125 40.0625 C 71.425781 22.246094 56.070312 8.550781 37.457031 8.550781 C 16.824219 8.550781 0.0390625 25.339844 0.0390625 45.972656 C 0.0390625 66.605469 16.824219 83.394531 37.457031 83.394531 C 56.070312 83.394531 71.425781 69.699219 74.28125 51.878906 L 125.609375 51.878906 L 119.941406 57.550781 C 117.632812 59.859375 117.632812 63.597656 119.941406 65.90625 C 121.09375 67.058594 122.601562 67.636719 124.117188 67.636719 C 125.632812 67.636719 127.140625 67.058594 128.296875 65.90625 L 142.320312 51.878906 L 192.179688 51.878906 L 221.917969 89.054688 C 223.042969 90.457031 224.742188 91.273438 226.535156 91.273438 C 228.328125 91.273438 230.027344 90.457031 231.152344 89.054688 L 260.890625 51.878906 L 281.679688 51.878906 C 313.332031 51.878906 339.738281 74.636719 345.484375 104.636719 L 337.78125 99.203125 C 335.097656 97.3125 331.421875 97.964844 329.542969 100.625 C 327.664062 103.296875 328.304688 106.980469 330.964844 108.867188 L 346.53125 119.84375 C 345.804688 136.113281 339.207031 151.28125 327.597656 162.820312 C 315.386719 175.109375 299.078125 181.871094 281.679688 181.871094 L 261.484375 181.871094 L 261.484375 174.492188 C 261.484375 171.570312 259.339844 169.074219 256.445312 168.644531 L 240.121094 166.214844 C 240.035156 166 239.945312 165.785156 239.851562 165.566406 L 249.675781 152.296875 C 251.421875 149.941406 251.175781 146.671875 249.105469 144.601562 L 230.320312 125.816406 C 228.242188 123.746094 224.964844 123.507812 222.625 125.246094 L 209.355469 135.070312 C 209.140625 134.976562 208.925781 134.886719 208.707031 134.800781 L 206.277344 118.476562 C 205.847656 115.582031 203.355469 113.4375 200.429688 113.4375 L 173.855469 113.4375 C 170.933594 113.4375 168.441406 115.582031 168.011719 118.476562 L 165.578125 134.800781 C 165.363281 134.886719 165.148438 134.976562 164.933594 135.070312 L 151.660156 125.246094 C 149.300781 123.507812 146.042969 123.746094 143.96875 125.816406 L 125.179688 144.601562 C 123.109375 146.671875 122.863281 149.941406 124.609375 152.296875 L 134.433594 165.566406 C 134.34375 165.785156 134.25 166 134.167969 166.214844 L 117.839844 168.644531 C 114.949219 169.074219 112.800781 171.570312 112.800781 174.492188 L 112.800781 181.871094 L 92.605469 181.871094 C 72.039062 181.871094 52.753906 189.871094 38.335938 204.382812 C 23.796875 218.832031 15.792969 238.117188 15.792969 258.683594 C 15.792969 259.761719 15.910156 260.808594 15.957031 261.878906 L 10.386719 257.289062 C 7.878906 255.210938 4.144531 255.566406 2.070312 258.097656 C 0 260.613281 0.351562 264.335938 2.875 266.414062 L 18.730469 279.46875 C 27.824219 311.742188 57.464844 335.496094 92.605469 335.496094 L 105.519531 335.496094 L 135.257812 372.667969 C 136.382812 374.070312 138.082031 374.886719 139.875 374.886719 C 141.667969 374.886719 143.367188 374.070312 144.492188 372.667969 L 174.230469 335.496094 L 235.90625 335.496094 L 230.234375 341.164062 C 227.925781 343.472656 227.925781 347.210938 230.234375 349.519531 C 231.390625 350.675781 232.898438 351.25 234.414062 351.25 C 235.929688 351.25 237.4375 350.675781 238.589844 349.519531 L 252.617188 335.496094 L 299.40625 335.496094 L 299.40625 353.21875 C 299.40625 360.820312 305.59375 367.007812 313.195312 367.007812 L 360.464844 367.007812 C 368.0625 367.007812 374.25 360.820312 374.25 353.21875 L 374.25 305.953125 C 374.25 298.351562 368.0625 292.164062 360.464844 292.164062 Z M 37.457031 71.578125 C 23.339844 71.578125 11.855469 60.089844 11.855469 45.972656 C 11.855469 31.855469 23.339844 20.367188 37.457031 20.367188 C 51.578125 20.367188 63.0625 31.855469 63.0625 45.972656 C 63.0625 60.089844 51.578125 71.578125 37.457031 71.578125 Z M 226.535156 75.90625 L 202.59375 45.972656 L 226.535156 16.035156 L 250.476562 45.972656 Z M 124.617188 179.585938 L 139.351562 177.394531 C 141.550781 177.0625 143.382812 175.523438 144.089844 173.414062 C 144.769531 171.375 145.597656 169.40625 146.550781 167.5 C 147.546875 165.515625 147.335938 163.128906 146.015625 161.34375 L 137.136719 149.359375 L 148.722656 137.769531 L 160.707031 146.648438 C 162.5 147.980469 164.886719 148.1875 166.863281 147.1875 C 168.773438 146.234375 170.742188 145.402344 172.78125 144.726562 C 174.886719 144.019531 176.425781 142.1875 176.757812 139.988281 L 178.949219 125.253906 L 195.335938 125.253906 L 197.53125 139.988281 C 197.859375 142.1875 199.398438 144.019531 201.507812 144.726562 C 203.546875 145.402344 205.515625 146.234375 207.421875 147.1875 C 209.410156 148.1875 211.792969 147.980469 213.578125 146.648438 L 225.566406 137.769531 L 237.152344 149.359375 L 228.273438 161.34375 C 226.949219 163.128906 226.742188 165.515625 227.734375 167.5 C 228.6875 169.40625 229.519531 171.375 230.195312 173.414062 C 230.90625 175.523438 232.734375 177.0625 234.9375 177.394531 L 249.667969 179.585938 L 249.667969 195.972656 L 234.9375 198.164062 C 232.734375 198.496094 230.90625 200.035156 230.195312 202.144531 C 229.519531 204.183594 228.6875 206.152344 227.734375 208.058594 C 226.742188 210.042969 226.949219 212.429688 228.273438 214.214844 L 237.152344 226.199219 L 225.566406 237.785156 L 213.578125 228.910156 C 211.792969 227.585938 209.410156 227.386719 207.421875 228.371094 C 205.515625 229.324219 203.546875 230.15625 201.507812 230.832031 C 199.398438 231.539062 197.859375 233.371094 197.53125 235.570312 L 195.335938 250.304688 L 178.949219 250.304688 L 176.757812 235.570312 C 176.425781 233.371094 174.886719 231.539062 172.78125 230.832031 C 170.742188 230.15625 168.773438 229.324219 166.863281 228.371094 C 164.886719 227.386719 162.5 227.585938 160.707031 228.910156 L 148.722656 237.785156 L 137.136719 226.199219 L 146.015625 214.214844 C 147.335938 212.429688 147.546875 210.042969 146.550781 208.058594 C 145.597656 206.152344 144.769531 204.183594 144.089844 202.144531 C 143.382812 200.035156 141.550781 198.496094 139.351562 198.164062 L 124.617188 195.972656 Z M 139.875 359.519531 L 115.933594 329.585938 L 139.875 299.652344 L 163.816406 329.585938 Z M 362.433594 353.21875 C 362.433594 354.304688 361.546875 355.191406 360.464844 355.191406 L 313.195312 355.191406 C 312.109375 355.191406 311.226562 354.304688 311.226562 353.21875 L 311.226562 305.953125 C 311.226562 304.867188 312.109375 303.980469 313.195312 303.980469 L 360.464844 303.980469 C 361.546875 303.980469 362.433594 304.867188 362.433594 305.953125 Z M 362.433594 353.21875 "/></g></g></svg>