<svg xmlns="http://www.w3.org/2000/svg" xmlns:xlink="http://www.w3.org/1999/xlink" width="500" zoomAndPan="magnify" viewBox="0 0 375 374.999991" height="500" preserveAspectRatio="xMidYMid meet" version="1.2"><defs><clipPath id="06aec9667d"><path d="M 21 10.992188 L 356.25 10.992188 L 356.25 347.742188 L 21 347.742188 Z M 21 10.992188 "/></clipPath></defs><g id="00663adc58"><g clip-rule="nonzero" clip-path="url(#06aec9667d)"><path style=" stroke:none;fill-rule:nonzero;fill:#e6a823;fill-opacity:1;" d="M 291.296875 73.792969 C 288.976562 74.261719 286.546875 73.050781 285.601562 70.769531 C 284.535156 68.179688 285.769531 65.21875 288.335938 64.148438 L 304.742188 57.320312 C 308.238281 55.863281 312.371094 58.621094 311.667969 62.980469 L 309.425781 80.246094 C 309.078125 83.023438 306.527344 84.996094 303.769531 84.648438 C 301.304688 84.324219 299.476562 82.285156 299.355469 79.898438 L 285.828125 97 C 284.839844 98.253906 283.363281 98.914062 281.859375 98.914062 L 251.558594 99.015625 C 264.535156 123.007812 297.03125 127.902344 316.417969 108.515625 C 332.375 92.5625 332.375 66.675781 316.417969 50.730469 C 300.464844 34.773438 274.601562 34.773438 258.652344 50.730469 C 248.804688 60.578125 244.488281 74.921875 247.738281 88.929688 L 279.417969 88.828125 Z M 175.867188 208.011719 C 175.789062 207.808594 175.722656 207.621094 175.664062 207.417969 C 172.023438 197.140625 165.878906 187.953125 157.386719 181.105469 C 147.515625 173.148438 134.382812 168.363281 118.226562 168.734375 C 96.800781 169.203125 71.027344 172.207031 56.753906 187.828125 C 45.347656 200.347656 41.75 220 43.84375 248.148438 C 43.925781 249.089844 43.722656 249.996094 43.328125 250.78125 L 31.898438 273.71875 C 31.082031 275.367188 32.144531 277.171875 33.914062 277.316406 L 46.703125 278.347656 C 49.355469 278.550781 51.367188 280.789062 51.367188 283.402344 L 51.367188 312.121094 C 52.003906 314.527344 53.484375 316.539062 55.410156 317.902344 C 57.429688 319.300781 59.9375 319.976562 62.546875 319.648438 L 77.308594 315.679688 C 80.019531 314.964844 82.796875 316.566406 83.515625 319.277344 L 88.367188 337.351562 L 151.8125 337.226562 C 145.769531 322.613281 139.5625 307.398438 147.082031 291.777344 C 148.191406 289.476562 149.773438 287.585938 151.867188 286.0625 C 165.726562 275.96875 174.214844 261.78125 177.710938 246.753906 C 180.742188 233.792969 180.058594 220.203125 175.867188 208.011719 Z M 181.378906 195.148438 L 184.238281 190.605469 L 161.679688 133.804688 C 160.652344 131.214844 161.929688 128.28125 164.515625 127.25 C 167.128906 126.21875 170.066406 127.496094 171.09375 130.085938 L 190.894531 179.960938 L 230.113281 117.253906 C 223.3125 106.890625 219.222656 94.5625 218.910156 81.296875 L 91.871094 81.296875 C 87.410156 81.296875 83.726562 84.960938 83.726562 89.421875 L 83.726562 162.46875 C 93.53125 160.144531 104.925781 158.890625 118.015625 158.625 C 146.589844 157.976562 169.414062 171.648438 181.378906 195.148438 Z M 236.738281 125.785156 L 195.519531 191.652344 L 213.035156 235.765625 L 228.019531 213.546875 C 230.484375 209.882812 236.199219 210.890625 237.1875 215.316406 L 247.730469 260.191406 L 260.988281 243.601562 C 261.976562 242.324219 263.453125 241.683594 264.957031 241.683594 L 264.957031 241.664062 L 285.40625 241.664062 C 282.203125 237.328125 287.214844 231.546875 291.984375 234.246094 L 305.925781 242.15625 C 309.253906 244.050781 309.476562 249.003906 305.78125 251.039062 L 292.152344 259.039062 C 287.503906 261.773438 282.390625 256.242188 285.429688 251.824219 L 267.378906 251.824219 L 249.246094 274.539062 C 246.535156 278.054688 241.210938 276.734375 240.238281 272.644531 L 229.941406 228.820312 L 216.074219 249.378906 L 216.050781 249.378906 C 213.832031 252.671875 208.691406 252.257812 207.167969 248.414062 L 188.847656 202.304688 L 186.09375 206.722656 C 190.285156 220.167969 190.863281 234.902344 187.59375 249.011719 C 183.5625 266.277344 173.800781 282.582031 157.808594 294.234375 C 156.496094 295.179688 156.015625 296.433594 155.445312 297.933594 L 327.203125 297.933594 C 331.664062 297.933594 335.324219 294.273438 335.324219 289.8125 L 335.324219 128.867188 C 328.996094 135.015625 321.488281 139.96875 313.164062 143.320312 L 313.164062 143.835938 L 313.140625 143.835938 C 313.140625 152.082031 310.921875 165.832031 302.40625 166.820312 L 302.40625 211.28125 L 302.429688 211.28125 C 302.429688 236.179688 272.621094 236.179688 272.621094 211.28125 L 272.644531 211.28125 L 272.644531 166.796875 C 263.902344 165.789062 261.886719 151.625 261.886719 143.320312 C 252.242188 139.410156 243.648438 133.390625 236.738281 125.785156 Z M 287.539062 28.601562 C 315.699219 28.601562 338.546875 51.441406 338.546875 79.628906 C 338.546875 107.792969 315.707031 130.636719 287.539062 130.636719 C 259.355469 130.636719 236.535156 107.796875 236.535156 79.628906 C 236.535156 51.449219 259.347656 28.601562 287.539062 28.601562 Z M 287.539062 10.988281 C 325.449219 10.988281 356.183594 41.722656 356.183594 79.628906 C 356.183594 93.15625 352.261719 105.78125 345.492188 116.40625 L 345.492188 289.8125 C 345.492188 299.886719 337.269531 308.089844 327.21875 308.089844 L 153.871094 308.089844 C 154.242188 318.632812 160 330.0625 164.023438 340.425781 C 165.277344 343.71875 162.894531 347.316406 159.296875 347.316406 L 84.855469 347.484375 C 82.472656 347.664062 80.230469 346.125 79.578125 343.71875 L 75.050781 326.800781 L 64.296875 329.636719 C 58.953125 330.453125 53.75 329.097656 49.617188 326.21875 C 45.628906 323.441406 42.625 319.207031 41.4375 314.109375 C 41.292969 313.636719 41.210938 313.144531 41.210938 312.605469 L 41.210938 288.078125 L 33.132812 287.417969 C 24.191406 286.699219 18.824219 277.15625 22.8125 269.1875 L 33.648438 247.480469 C 31.550781 217.214844 35.96875 195.574219 49.246094 180.996094 C 55.457031 174.214844 63.476562 169.074219 73.585938 165.433594 L 73.585938 89.414062 C 73.585938 79.363281 81.789062 71.136719 91.863281 71.136719 L 219.410156 71.136719 C 223.625 37.035156 252.691406 10.988281 287.539062 10.988281 Z M 302.957031 146.527344 C 292.839844 148.847656 282.238281 148.847656 272.144531 146.527344 C 272.332031 149.796875 272.882812 152.65625 273.664062 154.792969 C 274.101562 156.003906 272.984375 156.746094 273.542969 156.746094 L 301.523438 156.746094 L 301.523438 156.722656 C 302.082031 156.722656 300.964844 155.984375 301.398438 154.792969 C 302.195312 152.632812 302.746094 149.753906 302.957031 146.527344 Z M 328.878906 38.269531 C 306.039062 15.433594 269.015625 15.433594 246.171875 38.269531 C 223.328125 61.109375 223.335938 98.132812 246.171875 120.976562 C 269.007812 143.820312 306.03125 143.8125 328.878906 120.976562 C 351.722656 98.136719 351.714844 61.109375 328.878906 38.269531 Z M 292.304688 166.855469 L 282.765625 166.855469 L 282.765625 211.28125 L 282.789062 211.28125 C 282.789062 222.691406 292.289062 222.691406 292.289062 211.28125 L 292.3125 211.28125 L 292.3125 166.855469 Z M 141.367188 216.359375 C 154.007812 216.359375 160.382812 231.714844 151.441406 240.664062 C 150.0625 242.039062 148.394531 243.148438 146.546875 243.867188 L 146.546875 260.746094 L 154.355469 267.199219 C 156.519531 268.992188 156.824219 272.175781 155.039062 274.335938 C 153.246094 276.496094 150.0625 276.800781 147.902344 275.015625 L 138.242188 267.039062 C 137.03125 266.03125 136.390625 264.59375 136.390625 263.128906 L 136.390625 243.925781 C 126.753906 240.328125 123.953125 227.871094 131.316406 220.53125 C 133.890625 217.949219 137.445312 216.359375 141.367188 216.359375 Z M 144.269531 227.710938 C 141.699219 225.140625 137.300781 226.96875 137.300781 230.589844 C 137.300781 234.230469 141.714844 236.035156 144.269531 233.488281 C 145.847656 231.878906 145.847656 229.289062 144.269531 227.710938 Z M 72.519531 295.859375 C 70.054688 297.160156 66.988281 296.207031 65.695312 293.742188 C 64.382812 291.253906 65.347656 288.195312 67.8125 286.898438 L 79.589844 280.710938 L 79.589844 220.472656 L 73.113281 213.996094 C 63.78125 218.0625 53.191406 211.238281 53.191406 200.941406 C 53.191406 188.300781 68.53125 181.925781 77.496094 190.867188 C 81.664062 195.058594 82.863281 201.457031 80.351562 206.882812 L 88.230469 214.734375 C 89.15625 215.664062 89.753906 216.933594 89.753906 218.355469 L 89.753906 283.75 L 89.730469 283.75 C 89.730469 285.554688 88.742188 287.324219 87.019531 288.230469 Z M 105.476562 269.851562 C 105.476562 272.667969 103.191406 274.929688 100.398438 274.929688 C 97.585938 274.929688 95.320312 272.667969 95.320312 269.851562 L 95.320312 207.585938 C 85.742188 203.921875 83.007812 191.550781 90.324219 184.230469 C 99.265625 175.269531 114.628906 181.640625 114.628906 194.285156 C 114.628906 200.289062 110.90625 205.511719 105.484375 207.585938 L 105.484375 269.851562 Z M 133.308594 278.503906 C 135.777344 279.804688 136.726562 282.863281 135.429688 285.328125 C 134.113281 287.816406 131.046875 288.761719 128.582031 287.46875 L 114.089844 279.839844 C 112.363281 278.933594 111.402344 277.164062 111.402344 275.359375 L 111.378906 275.359375 L 111.378906 218.355469 C 111.378906 216.933594 111.953125 215.664062 112.902344 214.734375 L 122.316406 205.320312 C 118.160156 195.988281 125.007812 185.339844 135.328125 185.339844 C 147.96875 185.339844 154.34375 200.679688 145.398438 209.644531 C 141.230469 213.800781 134.875 214.988281 129.445312 212.546875 L 121.53125 220.480469 L 121.53125 272.304688 Z M 132.402344 202.40625 C 135.058594 205.082031 139.394531 203.144531 139.394531 199.570312 C 139.394531 195.929688 134.992188 194.125 132.445312 196.691406 C 130.867188 198.25 130.84375 200.816406 132.402344 202.40625 Z M 70.300781 198.0625 C 67.753906 195.496094 63.332031 197.324219 63.332031 200.941406 C 63.332031 204.582031 67.75 206.386719 70.300781 203.820312 C 71.902344 202.238281 71.902344 199.648438 70.300781 198.0625 Z M 103.277344 191.402344 C 100.710938 188.835938 96.308594 190.664062 96.308594 194.285156 C 96.308594 197.925781 100.710938 199.730469 103.277344 197.183594 C 104.878906 195.574219 104.878906 192.984375 103.277344 191.402344 Z M 103.277344 191.402344 "/></g></g></svg>