<svg xmlns="http://www.w3.org/2000/svg" xmlns:xlink="http://www.w3.org/1999/xlink" width="500" zoomAndPan="magnify" viewBox="0 0 375 374.999991" height="500" preserveAspectRatio="xMidYMid meet" version="1.2"><defs><clipPath id="477a0da842"><path d="M 0 22.5 L 375 22.5 L 375 370 L 0 370 Z M 0 22.5 "/></clipPath></defs><g id="86a8ca5d55"><g clip-rule="nonzero" clip-path="url(#477a0da842)"><path style=" stroke:none;fill-rule:evenodd;fill:#e6a823;fill-opacity:1;" d="M 361.5625 322.820312 L 306.296875 322.820312 C 300.234375 322.820312 295.199219 318.253906 294.617188 312.21875 C 293.285156 298.550781 289.417969 285.628906 283.496094 273.925781 C 281.285156 269.566406 281.910156 264.574219 285.132812 260.894531 L 323.292969 217.292969 C 325.769531 214.460938 329.101562 213.070312 332.855469 213.308594 C 336.613281 213.542969 339.746094 215.339844 341.855469 218.460938 C 359.765625 245.019531 371.03125 276.433594 373.273438 310.308594 C 373.492188 313.667969 372.429688 316.644531 370.128906 319.105469 C 367.828125 321.5625 364.929688 322.820312 361.5625 322.820312 Z M 217.46875 287.710938 C 236.851562 304.683594 238.816406 334.152344 221.851562 353.542969 C 204.886719 372.925781 175.414062 374.890625 156.03125 357.917969 C 136.640625 340.953125 134.679688 311.488281 151.644531 292.101562 C 168.613281 272.710938 198.078125 270.746094 217.46875 287.710938 Z M 114.199219 47.914062 L 108.628906 70.296875 C 108.492188 70.847656 108.09375 71.246094 107.542969 71.390625 L 85.195312 77.082031 C 84.597656 77.234375 84.175781 77.699219 84.078125 78.308594 C 83.984375 78.914062 84.25 79.480469 84.773438 79.808594 L 104.332031 92.023438 C 104.820312 92.324219 105.078125 92.820312 105.035156 93.390625 L 103.546875 116.40625 C 103.503906 117.015625 103.816406 117.5625 104.367188 117.839844 C 104.914062 118.121094 105.535156 118.050781 106.011719 117.652344 L 123.667969 102.820312 C 124.105469 102.453125 124.660156 102.363281 125.191406 102.574219 L 146.617188 111.109375 C 147.183594 111.332031 147.800781 111.207031 148.234375 110.765625 C 148.671875 110.332031 148.792969 109.71875 148.566406 109.148438 L 139.910156 87.769531 C 139.695312 87.238281 139.785156 86.683594 140.148438 86.25 L 154.886719 68.507812 C 155.277344 68.03125 155.347656 67.402344 155.066406 66.859375 C 154.785156 66.3125 154.238281 66 153.625 66.046875 L 130.617188 67.667969 C 130.054688 67.710938 129.542969 67.449219 129.246094 66.976562 L 116.925781 47.480469 C 116.597656 46.957031 116.023438 46.699219 115.417969 46.800781 C 114.808594 46.894531 114.34375 47.320312 114.199219 47.914062 Z M 31.648438 101.695312 L 31.070312 121.242188 C 31.050781 121.722656 30.792969 122.128906 30.363281 122.347656 L 12.863281 131.085938 C 12.402344 131.320312 12.128906 131.78125 12.164062 132.300781 C 12.195312 132.820312 12.519531 133.25 13.003906 133.421875 L 31.421875 140.015625 C 31.871094 140.179688 32.179688 140.550781 32.25 141.027344 L 35.160156 160.367188 C 35.234375 160.886719 35.59375 161.277344 36.097656 161.414062 C 36.601562 161.542969 37.105469 161.371094 37.425781 160.957031 L 49.382812 145.484375 C 49.679688 145.105469 50.125 144.929688 50.597656 145.003906 L 69.894531 148.222656 C 70.40625 148.304688 70.898438 148.085938 71.175781 147.644531 C 71.457031 147.207031 71.449219 146.671875 71.15625 146.242188 L 60.136719 130.085938 C 59.867188 129.6875 59.835938 129.210938 60.054688 128.785156 L 69.074219 111.425781 C 69.316406 110.960938 69.261719 110.433594 68.925781 110.027344 C 68.597656 109.628906 68.089844 109.46875 67.589844 109.617188 L 48.816406 115.105469 C 48.351562 115.238281 47.886719 115.117188 47.546875 114.777344 L 33.828125 100.835938 C 33.464844 100.460938 32.941406 100.351562 32.453125 100.542969 C 31.972656 100.730469 31.660156 101.171875 31.648438 101.695312 Z M 218.320312 23.648438 L 207.980469 47.855469 C 207.726562 48.449219 207.203125 48.828125 206.558594 48.886719 L 180.335938 51.242188 C 179.640625 51.300781 179.074219 51.753906 178.863281 52.421875 C 178.648438 53.085938 178.835938 53.777344 179.367188 54.242188 L 199.191406 71.554688 C 199.679688 71.976562 199.878906 72.59375 199.738281 73.226562 L 193.871094 98.882812 C 193.71875 99.570312 193.96875 100.238281 194.535156 100.648438 C 195.101562 101.066406 195.820312 101.097656 196.421875 100.738281 L 219.011719 87.226562 C 219.570312 86.898438 220.214844 86.898438 220.773438 87.226562 L 243.367188 100.738281 C 243.964844 101.097656 244.679688 101.066406 245.25 100.648438 C 245.820312 100.238281 246.070312 99.570312 245.914062 98.882812 L 240.050781 73.226562 C 239.902344 72.59375 240.101562 71.980469 240.589844 71.554688 L 260.421875 54.242188 C 260.949219 53.777344 261.140625 53.085938 260.925781 52.421875 C 260.707031 51.753906 260.144531 51.300781 259.445312 51.242188 L 233.230469 48.886719 C 232.585938 48.828125 232.0625 48.449219 231.804688 47.855469 L 221.46875 23.648438 C 221.195312 23 220.597656 22.609375 219.890625 22.609375 C 219.195312 22.609375 218.59375 23 218.320312 23.648438 Z M 342.453125 43.695312 L 320.609375 64.839844 C 320.070312 65.363281 319.34375 65.53125 318.632812 65.304688 L 289.664062 56.070312 C 288.894531 55.824219 288.097656 56.046875 287.570312 56.664062 C 287.035156 57.273438 286.929688 58.097656 287.289062 58.824219 L 300.644531 86.136719 C 300.972656 86.804688 300.914062 87.550781 300.472656 88.15625 L 282.746094 112.851562 C 282.269531 113.507812 282.242188 114.339844 282.65625 115.035156 C 283.078125 115.726562 283.824219 116.078125 284.628906 115.96875 L 314.730469 111.699219 C 315.46875 111.59375 316.15625 111.882812 316.601562 112.488281 L 334.605469 136.984375 C 335.085938 137.632812 335.863281 137.921875 336.65625 137.738281 C 337.441406 137.558594 338.011719 136.953125 338.152344 136.15625 L 343.398438 106.207031 C 343.519531 105.472656 344.011719 104.90625 344.722656 104.667969 L 373.585938 95.117188 C 374.355469 94.863281 374.863281 94.210938 374.933594 93.402344 C 375 92.597656 374.601562 91.863281 373.890625 91.488281 L 347.03125 77.246094 C 346.371094 76.894531 345.980469 76.253906 345.980469 75.507812 L 345.808594 45.109375 C 345.804688 44.300781 345.347656 43.605469 344.601562 43.296875 C 343.847656 42.980469 343.035156 43.132812 342.453125 43.695312 Z M 324.71875 165.164062 C 332.21875 171.726562 332.976562 183.117188 326.414062 190.617188 L 242.617188 286.367188 C 241.652344 287.464844 240.363281 288.023438 238.902344 287.964844 C 237.433594 287.90625 236.195312 287.25 235.320312 286.074219 C 232.890625 282.804688 230.078125 279.742188 226.886719 276.949219 C 223.699219 274.160156 220.285156 271.777344 216.730469 269.808594 C 215.449219 269.089844 214.632812 267.953125 214.382812 266.507812 C 214.128906 265.066406 214.503906 263.714844 215.472656 262.605469 L 299.265625 166.859375 C 305.828125 159.359375 317.222656 158.601562 324.71875 165.164062 Z M 197.179688 310.898438 C 203.757812 316.664062 204.429688 326.667969 198.664062 333.246094 C 192.902344 339.832031 182.902344 340.496094 176.316406 334.738281 C 169.738281 328.976562 169.070312 318.96875 174.832031 312.390625 C 180.589844 305.804688 190.59375 305.140625 197.179688 310.898438 Z M 222.390625 220.441406 C 211.230469 216.554688 199.234375 214.4375 186.746094 214.4375 C 130.464844 214.4375 84.210938 257.335938 78.878906 312.214844 C 78.292969 318.253906 73.265625 322.820312 67.203125 322.820312 L 11.9375 322.820312 C 8.566406 322.820312 5.667969 321.5625 3.367188 319.105469 C 1.0625 316.644531 0 313.667969 0.222656 310.308594 C 6.660156 212.898438 87.707031 135.878906 186.746094 135.878906 C 216.515625 135.878906 244.65625 142.84375 269.632812 155.222656 C 273.007812 156.894531 275.203125 159.765625 275.9375 163.457031 C 276.671875 167.148438 275.738281 170.640625 273.253906 173.472656 L 235.085938 217.089844 C 231.863281 220.761719 227.003906 222.046875 222.390625 220.441406 Z M 222.390625 220.441406 "/></g></g></svg>