<svg xmlns="http://www.w3.org/2000/svg" xmlns:xlink="http://www.w3.org/1999/xlink" width="500" zoomAndPan="magnify" viewBox="0 0 375 374.999991" height="500" preserveAspectRatio="xMidYMid meet" version="1.2"><g id="f1d3039cb9"><path style=" stroke:none;fill-rule:nonzero;fill:#e6a823;fill-opacity:1;" d="M 161.167969 173.152344 C 167.019531 179.003906 175.09375 181.789062 183.28125 180.863281 C 196.585938 179.34375 198.753906 162.378906 199.597656 155.992188 C 200.101562 152 201.929688 148.230469 204.773438 145.417969 C 211.917969 138.273438 223.535156 138.273438 230.652344 145.417969 C 234.113281 148.878906 236.023438 153.460938 236.023438 158.355469 C 236.023438 163.25 234.140625 167.867188 230.679688 171.296875 C 227.839844 174.136719 224.070312 175.996094 220.074219 176.5 C 213.691406 177.316406 196.726562 179.484375 195.207031 192.789062 C 194.28125 201.003906 197.09375 209.046875 202.914062 214.898438 L 227.5 239.484375 C 231.804688 243.789062 231.804688 250.824219 227.5 255.125 L 202.914062 279.710938 C 200.1875 282.414062 196.472656 283.734375 192.703125 283.3125 C 192.449219 283.199219 190.339844 281.683594 188.992188 270.90625 C 188.0625 263.789062 184.769531 257.066406 179.679688 251.949219 C 166.9375 239.203125 146.175781 239.203125 133.433594 251.949219 C 127.242188 258.136719 123.839844 266.351562 123.839844 275.097656 C 123.839844 283.820312 127.242188 292.0625 133.433594 298.25 C 138.523438 303.3125 145.246094 306.605469 152.363281 307.507812 C 163.140625 308.882812 164.65625 310.992188 164.769531 311.164062 C 165.191406 314.988281 163.871094 318.730469 161.167969 321.457031 L 136.582031 346.042969 C 132.28125 350.347656 125.246094 350.347656 120.941406 346.042969 L 96.355469 321.457031 C 90.535156 315.609375 82.433594 312.792969 74.273438 313.75 C 60.941406 315.269531 58.773438 332.234375 57.957031 338.617188 C 57.453125 342.613281 55.59375 346.355469 52.78125 349.195312 C 49.320312 352.65625 44.707031 354.570312 39.8125 354.570312 C 34.917969 354.570312 30.332031 352.65625 26.875 349.195312 C 19.730469 342.050781 19.730469 330.433594 26.875 323.316406 C 29.714844 320.472656 33.484375 318.617188 37.480469 318.109375 C 43.835938 317.296875 60.828125 315.128906 62.320312 301.824219 C 63.273438 293.609375 60.460938 285.5625 54.609375 279.710938 L 30.023438 255.125 C 29.769531 254.84375 29.460938 254.59375 29.152344 254.367188 C 25.578125 250.0625 25.859375 243.566406 30.023438 239.484375 L 54.609375 214.898438 C 60.433594 209.046875 63.246094 201.003906 62.320312 192.789062 C 60.800781 179.484375 43.835938 177.316406 37.449219 176.5 C 33.457031 175.996094 29.714844 174.136719 26.84375 171.296875 C 23.386719 167.867188 21.5 163.25 21.5 158.355469 C 21.5 153.460938 23.414062 148.878906 26.875 145.417969 C 34.019531 138.273438 45.636719 138.300781 52.753906 145.390625 C 55.59375 148.257812 57.421875 152 57.929688 155.992188 C 58.773438 162.378906 60.941406 179.34375 74.246094 180.863281 C 82.488281 181.789062 90.503906 179.003906 96.355469 173.152344 L 120.941406 148.566406 C 125.246094 144.261719 132.28125 144.261719 136.582031 148.566406 Z M 146.765625 122.742188 L 237.683594 31.824219 C 241.847656 27.660156 249.132812 27.660156 253.324219 31.824219 L 277.910156 56.410156 C 283.734375 62.261719 291.808594 65.019531 300.023438 64.121094 C 313.328125 62.601562 315.496094 45.636719 316.339844 39.25 C 316.84375 35.257812 318.671875 31.515625 321.484375 28.675781 C 328.632812 21.53125 340.277344 21.53125 347.394531 28.675781 C 354.539062 35.792969 354.539062 47.4375 347.421875 54.554688 C 344.554688 57.394531 340.8125 59.253906 336.816406 59.757812 C 330.433594 60.574219 313.46875 62.742188 311.949219 76.074219 C 311.023438 84.261719 313.835938 92.335938 319.65625 98.15625 L 344.242188 122.742188 C 348.546875 127.046875 348.546875 134.082031 344.242188 138.382812 L 319.65625 162.96875 C 313.804688 168.820312 310.992188 176.867188 311.949219 185.082031 C 313.441406 198.386719 330.402344 200.554688 336.789062 201.367188 C 340.785156 201.875 344.554688 203.730469 347.394531 206.574219 C 354.511719 213.691406 354.511719 225.308594 347.394531 232.453125 C 343.933594 235.914062 339.347656 237.828125 334.453125 237.828125 C 334.453125 237.828125 334.453125 237.828125 334.425781 237.828125 C 329.558594 237.828125 324.945312 235.914062 321.484375 232.480469 C 318.671875 229.640625 316.816406 225.871094 316.308594 221.875 C 315.496094 215.492188 313.328125 198.527344 299.996094 197.007812 C 291.753906 196.050781 283.734375 198.894531 277.910156 204.714844 L 253.324219 229.300781 C 249.023438 233.605469 241.988281 233.605469 237.683594 229.300781 L 213.097656 204.714844 C 210.398438 202.015625 209.074219 198.246094 209.5 194.503906 C 209.609375 194.25 211.128906 192.171875 221.902344 190.792969 C 229.019531 189.863281 235.742188 186.570312 240.863281 181.507812 C 247.023438 175.320312 250.429688 167.105469 250.429688 158.355469 C 250.429688 149.609375 247.023438 141.394531 240.835938 135.234375 C 228.09375 122.460938 207.332031 122.492188 194.5625 135.234375 C 189.496094 140.324219 186.207031 147.046875 185.304688 154.164062 C 183.925781 164.941406 181.816406 166.457031 181.648438 166.570312 C 177.851562 166.992188 174.082031 165.699219 171.351562 162.96875 L 146.765625 138.382812 C 142.460938 134.082031 142.460938 127.046875 146.765625 122.742188 Z M 110.757812 138.382812 L 86.171875 162.96875 C 83.445312 165.671875 79.703125 166.992188 75.960938 166.597656 C 75.707031 166.457031 73.597656 164.941406 72.21875 154.164062 C 71.320312 147.046875 68.027344 140.324219 62.964844 135.207031 C 50.195312 122.492188 29.433594 122.492188 16.691406 135.207031 C 10.5 141.394531 7.097656 149.609375 7.097656 158.355469 C 7.097656 167.105469 10.5 175.320312 16.691406 181.507812 C 21.78125 186.570312 28.503906 189.863281 35.621094 190.792969 C 46.398438 192.171875 47.914062 194.25 48.027344 194.421875 C 48.449219 198.246094 47.128906 201.988281 44.425781 204.714844 L 19.871094 229.246094 C 9.882812 239.121094 9.714844 255.210938 19.558594 265.199219 C 19.871094 265.535156 20.234375 265.816406 20.601562 266.070312 L 44.425781 289.894531 C 47.15625 292.625 48.449219 296.367188 48.054688 300.109375 C 47.914062 300.332031 46.398438 302.441406 35.621094 303.820312 C 28.503906 304.75 21.78125 308.039062 16.691406 313.105469 C 3.949219 325.875 3.949219 346.636719 16.691406 359.378906 C 22.851562 365.566406 31.09375 368.972656 39.8125 368.972656 C 48.5625 368.972656 56.777344 365.566406 62.964844 359.378906 C 68.027344 354.289062 71.320312 347.5625 72.25 340.445312 C 73.628906 329.671875 75.738281 328.152344 75.878906 328.042969 C 79.675781 327.621094 83.445312 328.914062 86.171875 331.640625 L 110.757812 356.226562 C 120.691406 366.160156 136.835938 366.160156 146.765625 356.226562 L 171.351562 331.640625 C 177.175781 325.820312 179.988281 317.746094 179.0625 309.53125 C 177.542969 296.226562 160.578125 294.058594 154.191406 293.214844 C 150.199219 292.710938 146.429688 290.878906 143.617188 288.039062 C 140.128906 284.578125 138.242188 279.992188 138.242188 275.097656 C 138.242188 270.203125 140.15625 265.621094 143.617188 262.160156 C 150.761719 255.015625 162.351562 255.015625 169.496094 262.132812 C 172.367188 265.027344 174.164062 268.6875 174.699219 272.738281 C 175.515625 279.121094 177.652344 296.085938 190.988281 297.605469 C 199.230469 298.53125 207.246094 295.71875 213.097656 289.894531 L 237.683594 265.308594 C 242.328125 260.667969 245.195312 254.421875 245.054688 246.828125 C 251.722656 246.96875 258.417969 244.550781 263.507812 239.484375 L 288.09375 214.898438 C 290.824219 212.171875 294.566406 210.878906 298.304688 211.269531 C 298.53125 211.410156 300.640625 212.929688 302.019531 223.703125 C 302.949219 230.820312 306.210938 237.546875 311.304688 242.664062 C 317.492188 248.824219 325.707031 252.230469 334.425781 252.230469 C 334.453125 252.230469 334.453125 252.230469 334.453125 252.230469 C 343.175781 252.230469 351.390625 248.824219 357.578125 242.636719 C 370.320312 229.894531 370.320312 209.132812 357.578125 196.363281 C 352.484375 191.296875 345.761719 188.007812 338.617188 187.105469 C 327.871094 185.699219 326.351562 183.617188 326.242188 183.449219 C 325.820312 179.625 327.113281 175.882812 329.839844 173.152344 L 354.425781 148.566406 C 359.238281 143.757812 361.882812 137.371094 361.882812 130.5625 C 361.882812 123.757812 359.238281 117.371094 354.425781 112.558594 L 329.839844 87.972656 C 327.140625 85.246094 325.820312 81.503906 326.242188 77.761719 C 326.351562 77.539062 327.871094 75.429688 338.644531 74.050781 C 345.761719 73.121094 352.484375 69.828125 357.578125 64.765625 C 370.347656 51.996094 370.347656 31.234375 357.578125 18.492188 C 344.835938 5.75 324.074219 5.71875 311.304688 18.492188 C 306.238281 23.582031 302.949219 30.304688 302.046875 37.421875 C 300.667969 48.199219 298.53125 49.714844 298.390625 49.828125 C 294.535156 50.277344 290.824219 48.957031 288.09375 46.226562 L 263.507812 21.640625 C 253.886719 12.019531 237.121094 12.019531 227.5 21.640625 L 136.582031 112.558594 C 131.914062 117.230469 129.042969 123.390625 129.269531 131.265625 C 122.488281 131.125 115.710938 133.433594 110.757812 138.382812 "/></g></svg>