<svg xmlns="http://www.w3.org/2000/svg" xmlns:xlink="http://www.w3.org/1999/xlink" width="500" zoomAndPan="magnify" viewBox="0 0 375 374.999991" height="500" preserveAspectRatio="xMidYMid meet" version="1.2"><defs><clipPath id="0c068b26e2"><path d="M 0 12.113281 L 375 12.113281 L 375 350.363281 L 0 350.363281 Z M 0 12.113281 "/></clipPath></defs><g id="dcdbc61705"><g clip-rule="nonzero" clip-path="url(#0c068b26e2)"><path style=" stroke:none;fill-rule:nonzero;fill:#e6a823;fill-opacity:1;" d="M 1.570312 340.992188 C 0.242188 343.046875 0.300781 345.703125 1.75 347.691406 C 2.898438 349.324219 4.769531 350.289062 6.699219 350.289062 C 7.121094 350.289062 7.542969 350.289062 8.027344 350.167969 L 63.492188 337.855469 C 79.484375 346.003906 97.410156 350.289062 115.394531 350.289062 C 177.980469 350.289062 228.980469 299.832031 229.945312 237.429688 C 257.105469 244.789062 286.859375 242.015625 312.085938 229.21875 L 367.550781 241.472656 C 367.972656 241.59375 368.394531 241.59375 368.878906 241.59375 C 370.808594 241.59375 372.679688 240.625 373.828125 238.996094 C 375.214844 237.003906 375.273438 234.351562 374.007812 232.296875 L 351.375 196.507812 C 366.585938 176.652344 374.914062 152.089844 374.914062 126.859375 C 374.914062 63.609375 323.492188 12.191406 260.242188 12.191406 C 196.992188 12.191406 146.65625 62.644531 145.691406 124.988281 C 136.035156 122.335938 125.894531 120.824219 115.394531 120.824219 C 52.023438 120.886719 0.605469 172.308594 0.605469 235.558594 C 0.605469 260.722656 8.933594 285.289062 24.203125 305.203125 Z M 260.121094 24.320312 C 316.671875 24.320312 362.722656 70.371094 362.722656 126.921875 C 362.722656 150.761719 354.394531 173.996094 339.183594 192.285156 C 337.492188 194.277344 337.3125 197.171875 338.699219 199.34375 L 355.902344 226.503906 L 312.449219 216.90625 C 311.058594 216.605469 309.550781 216.789062 308.28125 217.449219 C 284.203125 230.246094 255.171875 232.71875 229.339844 224.632812 C 225.238281 181.117188 196.628906 144.605469 157.519531 129.035156 C 157.519531 128.308594 157.460938 127.585938 157.460938 126.859375 C 157.460938 70.308594 203.511719 24.261719 260.0625 24.261719 Z M 12.675781 235.558594 C 12.675781 179.007812 58.722656 132.957031 115.273438 132.957031 C 171.824219 132.957031 217.875 179.007812 217.875 235.558594 C 217.875 292.109375 171.824219 338.15625 115.273438 338.15625 C 98.496094 338.15625 81.839844 333.992188 67.050781 326.085938 C 66.148438 325.605469 65.179688 325.363281 64.214844 325.363281 C 63.792969 325.363281 63.371094 325.363281 62.886719 325.484375 L 19.433594 335.078125 L 36.632812 307.921875 C 38.023438 305.6875 37.839844 302.851562 36.210938 300.859375 C 21.003906 282.511719 12.675781 259.277344 12.675781 235.4375 Z M 12.675781 235.558594 "/></g><path style=" stroke:none;fill-rule:nonzero;fill:#e6a823;fill-opacity:1;" d="M 211.839844 84.675781 L 308.402344 84.675781 L 308.402344 96.746094 L 211.839844 96.746094 Z M 211.839844 84.675781 "/><path style=" stroke:none;fill-rule:nonzero;fill:#e6a823;fill-opacity:1;" d="M 211.839844 120.886719 L 308.402344 120.886719 L 308.402344 132.957031 L 211.839844 132.957031 Z M 211.839844 120.886719 "/><path style=" stroke:none;fill-rule:nonzero;fill:#e6a823;fill-opacity:1;" d="M 235.980469 157.097656 L 308.402344 157.097656 L 308.402344 169.167969 L 235.980469 169.167969 Z M 235.980469 157.097656 "/><path style=" stroke:none;fill-rule:nonzero;fill:#e6a823;fill-opacity:1;" d="M 77.011719 247.628906 L 98.859375 247.628906 L 105.195312 271.769531 L 117.6875 271.769531 L 99.824219 203.871094 C 99.101562 201.214844 96.746094 199.34375 93.96875 199.34375 L 81.898438 199.34375 C 79.183594 199.34375 76.769531 201.214844 76.042969 203.871094 L 58.179688 271.769531 L 70.671875 271.769531 Z M 86.546875 211.414062 L 89.324219 211.414062 L 95.660156 235.558594 L 80.210938 235.558594 Z M 86.546875 211.414062 "/><path style=" stroke:none;fill-rule:nonzero;fill:#e6a823;fill-opacity:1;" d="M 172.367188 259.699219 L 157.28125 259.699219 L 157.28125 211.414062 L 172.367188 211.414062 L 172.367188 199.34375 L 130.121094 199.34375 L 130.121094 211.414062 L 145.210938 211.414062 L 145.210938 259.699219 L 130.121094 259.699219 L 130.121094 271.769531 L 172.367188 271.769531 Z M 172.367188 259.699219 "/></g></svg>