<svg xmlns="http://www.w3.org/2000/svg" xmlns:xlink="http://www.w3.org/1999/xlink" width="500" zoomAndPan="magnify" viewBox="0 0 375 374.999991" height="500" preserveAspectRatio="xMidYMid meet" version="1.2"><defs><clipPath id="2b1919b9b2"><path d="M 6.210938 9 L 375 9 L 375 348.578125 L 6.210938 348.578125 Z M 6.210938 9 "/></clipPath></defs><g id="5c4e4efd68"><g clip-rule="nonzero" clip-path="url(#2b1919b9b2)"><path style=" stroke:none;fill-rule:nonzero;fill:#e6a823;fill-opacity:1;" d="M 231.714844 278.144531 L 177.226562 292.964844 C 175.972656 293.308594 174.730469 293.554688 173.496094 293.707031 C 173.882812 293.15625 174.25 292.578125 174.601562 291.976562 C 179.875 282.84375 176.804688 271.019531 167.613281 265.058594 C 167.382812 264.914062 167.144531 264.78125 166.898438 264.664062 C 154.136719 258.652344 142.128906 250.28125 132.480469 243.558594 C 129.097656 241.199219 125.902344 238.972656 123.140625 237.179688 C 111.5625 229.671875 98.910156 231.644531 88.058594 234.566406 L 49.214844 245.023438 L 47.90625 239.960938 C 46.078125 232.90625 38.851562 228.648438 31.796875 230.476562 L 16.570312 234.417969 C 13.160156 235.300781 10.292969 237.464844 8.496094 240.511719 C 6.703125 243.558594 6.199219 247.117188 7.082031 250.523438 L 27.554688 329.640625 C 29.09375 335.589844 34.472656 339.546875 40.351562 339.546875 C 41.445312 339.546875 42.554688 339.410156 43.664062 339.125 L 58.894531 335.183594 C 65.949219 333.355469 70.203125 326.132812 68.378906 319.074219 L 66.691406 312.554688 L 73.605469 310.699219 L 129.027344 342.699219 C 135.3125 346.328125 142.015625 348.164062 148.816406 348.160156 C 152.574219 348.160156 156.363281 347.601562 160.128906 346.480469 L 259.773438 316.730469 C 269.703125 313.765625 275.96875 301.332031 272.917969 290.636719 C 271.445312 285.476562 264.125 269.328125 231.714844 278.144531 Z M 55.867188 323.5 L 40.640625 327.441406 C 40.035156 327.59375 39.394531 327.21875 39.238281 326.617188 L 18.765625 247.503906 C 18.667969 247.132812 18.78125 246.824219 18.894531 246.636719 C 19.007812 246.445312 19.21875 246.195312 19.589844 246.101562 L 34.820312 242.160156 C 34.914062 242.136719 35.007812 242.125 35.097656 242.125 C 35.609375 242.125 36.089844 242.476562 36.222656 242.984375 L 56.695312 322.101562 C 56.851562 322.703125 56.472656 323.34375 55.867188 323.5 Z M 256.324219 305.167969 L 156.675781 334.917969 C 149.242188 337.136719 141.96875 336.238281 135.0625 332.25 L 77.472656 299 C 76.089844 298.199219 74.441406 297.984375 72.894531 298.398438 L 63.664062 300.871094 L 52.238281 256.707031 L 91.195312 246.21875 C 103.089844 243.015625 110.445312 243.328125 116.574219 247.304688 C 119.167969 248.988281 122.136719 251.058594 125.578125 253.457031 C 135.5 260.371094 147.820312 268.957031 161.339844 275.382812 C 164.972656 277.929688 166.1875 282.410156 164.148438 285.941406 C 161.984375 289.695312 158.464844 290.648438 153.695312 288.785156 C 147.21875 285.535156 141.171875 281.914062 134.78125 278.082031 C 131.71875 276.246094 128.550781 274.347656 125.273438 272.457031 C 122.386719 270.789062 118.695312 271.78125 117.03125 274.664062 C 115.363281 277.550781 116.355469 281.242188 119.238281 282.90625 C 122.429688 284.75 125.554688 286.621094 128.578125 288.433594 C 135.25 292.433594 141.550781 296.210938 148.527344 299.695312 C 148.558594 299.710938 148.703125 299.78125 148.746094 299.800781 L 154.355469 302.324219 C 163.121094 306.246094 171.636719 306.992188 180.394531 304.609375 L 234.882812 289.789062 C 249.332031 285.855469 259.457031 287.449219 261.3125 293.949219 C 262.554688 298.304688 259.988281 304.070312 256.324219 305.167969 Z M 34.675781 254.804688 C 34.363281 257.488281 31.933594 259.40625 29.253906 259.09375 C 26.570312 258.777344 24.652344 256.347656 24.964844 253.667969 C 25.28125 250.988281 27.707031 249.066406 30.390625 249.382812 C 33.070312 249.695312 34.988281 252.125 34.675781 254.804688 Z M 380.335938 107.375 L 359.863281 28.261719 C 358.039062 21.207031 350.808594 16.949219 343.757812 18.777344 L 328.527344 22.71875 C 321.472656 24.542969 317.214844 31.769531 319.042969 38.824219 L 320.730469 45.347656 L 313.8125 47.199219 L 258.390625 15.203125 C 248.636719 9.566406 237.882812 8.261719 227.289062 11.421875 L 127.644531 41.171875 C 117.714844 44.132812 111.453125 56.570312 114.5 67.261719 C 115.667969 71.351562 120.503906 82.34375 138.589844 82.34375 C 143.328125 82.34375 148.976562 81.589844 155.703125 79.757812 L 210.191406 64.9375 C 211.445312 64.59375 212.6875 64.347656 213.921875 64.191406 C 213.535156 64.742188 213.167969 65.320312 212.816406 65.925781 C 207.542969 75.058594 210.613281 86.878906 219.808594 92.839844 C 220.035156 92.988281 220.273438 93.121094 220.519531 93.238281 C 233.28125 99.25 245.289062 107.617188 254.9375 114.34375 C 258.320312 116.703125 261.515625 118.929688 264.277344 120.71875 C 270.246094 124.59375 276.5 125.945312 282.648438 125.945312 C 288.421875 125.945312 294.101562 124.75 299.359375 123.335938 L 338.203125 112.878906 L 339.511719 117.9375 C 341.050781 123.890625 346.429688 127.847656 352.308594 127.847656 C 353.402344 127.847656 354.511719 127.710938 355.621094 127.425781 L 370.847656 123.484375 C 374.257812 122.601562 377.125 120.4375 378.921875 117.390625 C 380.714844 114.339844 381.21875 110.785156 380.335938 107.375 Z M 296.222656 111.683594 C 284.324219 114.886719 276.972656 114.570312 270.84375 110.59375 C 268.25 108.914062 265.28125 106.84375 261.839844 104.445312 C 251.917969 97.53125 239.597656 88.941406 226.078125 82.515625 C 222.441406 79.972656 221.226562 75.492188 223.269531 71.957031 C 225.433594 68.203125 228.953125 67.253906 233.722656 69.117188 C 240.195312 72.367188 246.242188 75.984375 252.632812 79.816406 C 255.695312 81.652344 258.863281 83.550781 262.144531 85.445312 C 263.09375 85.992188 264.132812 86.253906 265.15625 86.253906 C 267.242188 86.253906 269.269531 85.171875 270.386719 83.234375 C 272.050781 80.347656 271.0625 76.660156 268.175781 74.992188 C 264.984375 73.148438 261.859375 71.277344 258.835938 69.464844 C 252.164062 65.464844 245.863281 61.6875 238.890625 58.203125 C 238.855469 58.183594 238.707031 58.117188 238.671875 58.097656 L 233.0625 55.574219 C 224.296875 51.65625 215.777344 50.90625 207.023438 53.289062 L 152.535156 68.113281 C 138.085938 72.042969 127.957031 70.449219 126.105469 63.953125 C 124.863281 59.59375 127.425781 53.828125 131.09375 52.734375 L 230.742188 22.984375 C 238.175781 20.765625 245.449219 21.664062 252.359375 25.652344 L 309.945312 58.898438 C 311.328125 59.699219 312.976562 59.914062 314.523438 59.503906 L 323.753906 57.027344 L 335.179688 101.195312 Z M 368.523438 111.265625 C 368.410156 111.457031 368.199219 111.703125 367.828125 111.800781 L 352.597656 115.742188 C 351.996094 115.898438 351.351562 115.519531 351.195312 114.914062 L 330.722656 35.800781 C 330.566406 35.199219 330.945312 34.554688 331.550781 34.398438 L 346.777344 30.460938 C 347.382812 30.304688 348.023438 30.679688 348.179688 31.285156 L 368.652344 110.398438 C 368.75 110.769531 368.636719 111.074219 368.523438 111.265625 Z M 362.453125 104.230469 C 362.136719 106.914062 359.710938 108.832031 357.027344 108.519531 C 354.347656 108.203125 352.429688 105.777344 352.742188 103.09375 C 353.058594 100.414062 355.484375 98.496094 358.164062 98.808594 C 360.847656 99.121094 362.765625 101.550781 362.453125 104.230469 Z M 116.117188 163.113281 C 113.789062 164.007812 112.25 166.246094 112.25 168.742188 L 112.25 189.15625 C 112.25 191.65625 113.789062 193.890625 116.117188 194.789062 L 125.730469 198.488281 C 127.199219 203.609375 129.242188 208.535156 131.828125 213.199219 L 127.644531 222.617188 C 126.628906 224.898438 127.125 227.566406 128.890625 229.332031 L 143.328125 243.769531 C 145.089844 245.535156 147.761719 246.03125 150.042969 245.015625 L 159.46875 240.832031 C 164.128906 243.417969 169.054688 245.457031 174.171875 246.925781 L 177.871094 256.542969 C 178.769531 258.871094 181.007812 260.410156 183.503906 260.410156 L 203.917969 260.410156 C 206.414062 260.410156 208.652344 258.871094 209.550781 256.542969 L 213.25 246.929688 C 218.367188 245.460938 223.292969 243.417969 227.957031 240.832031 L 237.378906 245.015625 C 239.660156 246.03125 242.328125 245.53125 244.09375 243.769531 L 258.527344 229.332031 C 260.292969 227.566406 260.789062 224.898438 259.777344 222.617188 L 255.589844 213.191406 C 258.175781 208.53125 260.21875 203.605469 261.6875 198.488281 L 271.304688 194.789062 C 273.632812 193.890625 275.167969 191.652344 275.167969 189.15625 L 275.167969 168.742188 C 275.167969 166.246094 273.632812 164.007812 271.304688 163.109375 L 261.691406 159.410156 C 260.222656 154.292969 258.179688 149.367188 255.59375 144.703125 L 259.777344 135.28125 C 260.789062 133 260.292969 130.332031 258.53125 128.566406 L 244.09375 114.128906 C 242.328125 112.367188 239.660156 111.871094 237.378906 112.882812 L 227.953125 117.070312 C 223.289062 114.480469 218.367188 112.441406 213.25 110.972656 L 209.546875 101.359375 C 208.652344 99.027344 206.414062 97.492188 203.917969 97.492188 L 183.503906 97.492188 C 181.007812 97.492188 178.769531 99.027344 177.871094 101.359375 L 174.167969 110.972656 C 169.054688 112.441406 164.128906 114.484375 159.464844 117.070312 L 150.042969 112.882812 C 147.761719 111.871094 145.089844 112.367188 143.328125 114.132812 L 128.890625 128.566406 C 127.125 130.332031 126.628906 133.003906 127.644531 135.285156 L 131.828125 144.707031 C 129.242188 149.371094 127.199219 154.292969 125.730469 159.410156 Z M 132.949219 169.5625 C 134.804688 168.847656 136.191406 167.265625 136.652344 165.328125 C 138.089844 159.292969 140.472656 153.542969 143.734375 148.246094 C 144.777344 146.550781 144.917969 144.453125 144.109375 142.632812 L 140.355469 134.171875 L 148.929688 125.59375 L 157.390625 129.351562 C 159.210938 130.160156 161.3125 130.019531 163.003906 128.976562 C 168.304688 125.714844 174.050781 123.332031 180.085938 121.894531 C 182.023438 121.433594 183.605469 120.046875 184.320312 118.191406 L 187.644531 109.558594 L 199.773438 109.558594 L 203.097656 118.191406 C 203.8125 120.046875 205.394531 121.433594 207.332031 121.894531 C 213.367188 123.328125 219.113281 125.710938 224.414062 128.976562 C 226.105469 130.019531 228.207031 130.160156 230.027344 129.351562 L 238.488281 125.59375 L 247.066406 134.171875 L 243.308594 142.628906 C 242.5 144.449219 242.640625 146.546875 243.683594 148.242188 C 246.949219 153.542969 249.332031 159.289062 250.769531 165.328125 C 251.230469 167.265625 252.613281 168.847656 254.472656 169.5625 L 263.101562 172.886719 L 263.101562 185.015625 L 254.46875 188.339844 C 252.613281 189.050781 251.226562 190.636719 250.765625 192.574219 C 249.328125 198.605469 246.945312 204.355469 243.683594 209.65625 C 242.640625 211.347656 242.5 213.449219 243.308594 215.265625 L 247.066406 223.730469 L 238.488281 232.304688 L 230.03125 228.550781 C 228.210938 227.742188 226.113281 227.882812 224.417969 228.925781 C 219.117188 232.191406 213.371094 234.574219 207.332031 236.007812 C 205.394531 236.46875 203.8125 237.855469 203.097656 239.710938 L 199.773438 248.34375 L 187.644531 248.34375 L 184.324219 239.710938 C 183.609375 237.851562 182.023438 236.46875 180.089844 236.007812 C 174.054688 234.570312 168.304688 232.1875 163.007812 228.925781 C 161.3125 227.878906 159.210938 227.738281 157.394531 228.546875 L 148.929688 232.304688 L 140.355469 223.726562 L 144.109375 215.269531 C 144.917969 213.453125 144.777344 211.351562 143.734375 209.65625 C 140.472656 204.359375 138.089844 198.609375 136.652344 192.570312 C 136.191406 190.632812 134.804688 189.050781 132.949219 188.335938 L 124.320312 185.015625 L 124.320312 172.886719 Z M 193.710938 220.589844 C 216.667969 220.589844 235.347656 201.910156 235.347656 178.949219 C 235.347656 155.992188 216.667969 137.3125 193.710938 137.3125 C 170.75 137.3125 152.070312 155.992188 152.070312 178.949219 C 152.070312 201.910156 170.75 220.589844 193.710938 220.589844 Z M 193.710938 149.378906 C 210.015625 149.378906 223.277344 162.644531 223.277344 178.949219 C 223.277344 195.253906 210.015625 208.519531 193.710938 208.519531 C 177.402344 208.519531 164.140625 195.253906 164.140625 178.949219 C 164.140625 162.644531 177.402344 149.378906 193.710938 149.378906 Z M 289.480469 246.347656 L 296.511719 245.105469 C 299.789062 244.527344 302.921875 246.71875 303.503906 250 C 304.082031 253.28125 301.890625 256.410156 298.609375 256.992188 L 269.855469 262.0625 C 269.503906 262.125 269.15625 262.15625 268.804688 262.15625 C 267.183594 262.15625 265.609375 261.5 264.460938 260.308594 C 263.066406 258.859375 262.484375 256.816406 262.910156 254.851562 L 268.46875 229.027344 C 269.171875 225.769531 272.378906 223.695312 275.636719 224.398438 C 278.894531 225.097656 280.96875 228.308594 280.265625 231.566406 L 278.367188 240.394531 C 301.207031 218.5 310.925781 185.535156 302.71875 154.203125 C 301.871094 150.980469 303.800781 147.683594 307.023438 146.835938 C 310.25 145.988281 313.546875 147.921875 314.390625 151.144531 C 323.382812 185.460938 313.445312 221.503906 289.480469 246.347656 Z M 97.9375 111.554688 L 90.90625 112.792969 C 87.625 113.375 84.492188 111.183594 83.914062 107.898438 C 83.335938 104.617188 85.527344 101.488281 88.808594 100.910156 L 117.5625 95.835938 C 119.539062 95.488281 121.5625 96.144531 122.957031 97.59375 C 124.351562 99.039062 124.933594 101.085938 124.507812 103.050781 L 118.949219 128.875 C 118.339844 131.703125 115.835938 133.640625 113.054688 133.640625 C 112.632812 133.640625 112.207031 133.597656 111.777344 133.503906 C 108.523438 132.800781 106.449219 129.59375 107.152344 126.335938 L 109.050781 117.507812 C 86.210938 139.398438 76.492188 172.363281 84.699219 203.695312 C 85.546875 206.917969 83.617188 210.21875 80.394531 211.0625 C 79.878906 211.195312 79.367188 211.261719 78.859375 211.261719 C 76.183594 211.261719 73.738281 209.464844 73.027344 206.753906 C 64.035156 172.4375 73.972656 136.398438 97.9375 111.554688 Z M 97.9375 111.554688 "/></g></g></svg>