<svg xmlns="http://www.w3.org/2000/svg" xmlns:xlink="http://www.w3.org/1999/xlink" width="500" zoomAndPan="magnify" viewBox="0 0 375 374.999991" height="500" preserveAspectRatio="xMidYMid meet" version="1.2"><defs><clipPath id="2bd850d42e"><path d="M 21.621094 15.828125 L 199 15.828125 L 199 359 L 21.621094 359 Z M 21.621094 15.828125 "/></clipPath><clipPath id="2e28f09537"><path d="M 118 90 L 353.121094 90 L 353.121094 285 L 118 285 Z M 118 90 "/></clipPath></defs><g id="fa86adcd74"><path style=" stroke:none;fill-rule:nonzero;fill:#e6a823;fill-opacity:1;" d="M 187.027344 162.5 C 186.171875 160.269531 184.054688 158.785156 181.65625 158.785156 C 179.253906 158.785156 177.140625 160.269531 176.28125 162.5 L 159.136719 208.222656 C 158.050781 211.195312 159.535156 214.453125 162.507812 215.59375 C 165.480469 216.679688 168.738281 215.195312 169.882812 212.222656 L 172.796875 204.507812 L 190.570312 204.507812 L 193.484375 212.222656 C 194.34375 214.507812 196.515625 215.9375 198.859375 215.9375 C 199.542969 215.9375 200.230469 215.824219 200.859375 215.59375 C 203.832031 214.507812 205.316406 211.195312 204.175781 208.222656 Z M 177.082031 193.078125 L 181.710938 180.789062 L 186.339844 193.078125 Z M 177.082031 193.078125 "/><path style=" stroke:none;fill-rule:nonzero;fill:#e6a823;fill-opacity:1;" d="M 215.949219 158.785156 C 212.804688 158.785156 210.234375 161.355469 210.234375 164.5 L 210.234375 210.222656 C 210.234375 213.367188 212.804688 215.9375 215.949219 215.9375 C 219.089844 215.9375 221.664062 213.367188 221.664062 210.222656 L 221.664062 164.5 C 221.664062 161.355469 219.089844 158.785156 215.949219 158.785156 Z M 215.949219 158.785156 "/><g clip-rule="nonzero" clip-path="url(#2bd850d42e)"><path style=" stroke:none;fill-rule:nonzero;fill:#e6a823;fill-opacity:1;" d="M 193.085938 284.523438 C 139.53125 284.523438 95.921875 240.914062 95.921875 187.359375 C 95.921875 133.804688 139.53125 90.195312 193.085938 90.195312 C 196.230469 90.195312 198.800781 87.625 198.800781 84.480469 L 198.800781 21.609375 C 198.800781 18.46875 196.230469 15.894531 193.085938 15.894531 L 162.964844 15.894531 C 160.335938 15.894531 158.050781 17.667969 157.421875 20.238281 L 149.246094 53.046875 C 142.273438 55.332031 135.53125 58.074219 129.128906 61.332031 L 100.152344 43.957031 C 97.921875 42.585938 95.007812 42.988281 93.179688 44.816406 L 50.597656 87.398438 C 48.769531 89.226562 48.367188 92.140625 49.742188 94.371094 L 67.117188 123.347656 C 63.859375 129.75 61.058594 136.492188 58.828125 143.464844 L 26.019531 151.640625 C 23.449219 152.269531 21.675781 154.554688 21.675781 157.183594 L 21.675781 217.425781 C 21.675781 220.054688 23.449219 222.339844 26.019531 222.96875 L 58.828125 231.140625 C 61.113281 238.113281 63.859375 244.859375 67.117188 251.261719 L 49.742188 280.238281 C 48.367188 282.46875 48.769531 285.382812 50.597656 287.210938 L 93.179688 329.792969 C 95.007812 331.621094 97.921875 332.019531 100.152344 330.648438 L 129.128906 313.273438 C 135.53125 316.53125 142.273438 319.332031 149.246094 321.5625 L 157.421875 354.367188 C 158.050781 356.941406 160.335938 358.710938 162.964844 358.710938 L 193.085938 358.710938 C 196.230469 358.710938 198.800781 356.140625 198.800781 352.996094 L 198.800781 290.125 C 198.800781 286.984375 196.230469 284.410156 193.085938 284.410156 Z M 187.371094 347.394531 L 167.421875 347.394531 L 159.535156 315.789062 C 159.019531 313.84375 157.535156 312.300781 155.648438 311.671875 C 147.246094 309.160156 139.132812 305.84375 131.644531 301.785156 C 129.871094 300.8125 127.699219 300.871094 125.984375 301.898438 L 98.09375 318.644531 L 61.800781 282.351562 L 78.546875 254.460938 C 79.574219 252.746094 79.632812 250.574219 78.660156 248.804688 C 74.601562 241.316406 71.289062 233.199219 68.773438 224.796875 C 68.203125 222.855469 66.660156 221.367188 64.660156 220.910156 L 33.050781 213.023438 L 33.050781 161.699219 L 64.660156 153.8125 C 66.601562 153.296875 68.144531 151.808594 68.773438 149.925781 C 71.289062 141.523438 74.601562 133.40625 78.660156 125.917969 C 79.632812 124.148438 79.574219 121.976562 78.546875 120.261719 L 61.800781 92.367188 L 98.09375 56.074219 L 125.984375 72.820312 C 127.699219 73.851562 129.871094 73.90625 131.644531 72.9375 C 139.132812 68.878906 147.246094 65.5625 155.648438 63.046875 C 157.59375 62.476562 159.078125 60.933594 159.535156 58.933594 L 167.421875 27.328125 L 187.371094 27.328125 L 187.371094 78.9375 C 130.15625 81.910156 84.492188 129.40625 84.492188 187.359375 C 84.492188 245.316406 130.15625 292.8125 187.371094 295.785156 Z M 187.371094 347.394531 "/></g><g clip-rule="nonzero" clip-path="url(#2e28f09537)"><path style=" stroke:none;fill-rule:nonzero;fill:#e6a823;fill-opacity:1;" d="M 330.257812 164.5 C 319.628906 164.5 310.769531 171.816406 308.195312 181.644531 L 250.242188 181.644531 L 250.242188 158.785156 L 273.101562 158.785156 C 274.703125 158.785156 276.246094 158.097656 277.332031 156.898438 L 298.25 133.976562 C 301.050781 135.179688 304.136719 135.921875 307.394531 135.921875 C 320.027344 135.921875 330.257812 125.691406 330.257812 113.058594 C 330.257812 100.429688 320.027344 90.195312 307.394531 90.195312 C 294.765625 90.195312 284.535156 100.429688 284.535156 113.058594 C 284.535156 118.261719 286.363281 123.003906 289.277344 126.832031 L 270.589844 147.351562 L 250.242188 147.351562 L 250.242188 135.921875 C 250.242188 132.777344 247.667969 130.207031 244.527344 130.207031 L 233.09375 130.207031 L 233.09375 118.773438 C 233.09375 115.632812 230.523438 113.058594 227.378906 113.058594 C 224.234375 113.058594 221.664062 115.632812 221.664062 118.773438 L 221.664062 130.207031 L 198.800781 130.207031 L 198.800781 118.773438 C 198.800781 115.632812 196.230469 113.058594 193.085938 113.058594 C 189.941406 113.058594 187.371094 115.632812 187.371094 118.773438 L 187.371094 130.207031 L 164.507812 130.207031 L 164.507812 118.773438 C 164.507812 115.632812 161.9375 113.058594 158.792969 113.058594 C 155.648438 113.058594 153.078125 115.632812 153.078125 118.773438 L 153.078125 130.207031 L 141.644531 130.207031 C 138.503906 130.207031 135.929688 132.777344 135.929688 135.921875 L 135.929688 147.351562 L 124.5 147.351562 C 121.355469 147.351562 118.785156 149.925781 118.785156 153.066406 C 118.785156 156.210938 121.355469 158.785156 124.5 158.785156 L 135.929688 158.785156 L 135.929688 181.644531 L 124.5 181.644531 C 121.355469 181.644531 118.785156 184.21875 118.785156 187.359375 C 118.785156 190.503906 121.355469 193.078125 124.5 193.078125 L 135.929688 193.078125 L 135.929688 215.9375 L 124.5 215.9375 C 121.355469 215.9375 118.785156 218.511719 118.785156 221.652344 C 118.785156 224.796875 121.355469 227.371094 124.5 227.371094 L 135.929688 227.371094 L 135.929688 238.800781 C 135.929688 241.945312 138.503906 244.515625 141.644531 244.515625 L 153.078125 244.515625 L 153.078125 255.945312 C 153.078125 259.089844 155.648438 261.664062 158.792969 261.664062 C 161.9375 261.664062 164.507812 259.089844 164.507812 255.945312 L 164.507812 244.515625 L 187.371094 244.515625 L 187.371094 255.945312 C 187.371094 259.089844 189.941406 261.664062 193.085938 261.664062 C 196.230469 261.664062 198.800781 259.089844 198.800781 255.945312 L 198.800781 244.515625 L 221.664062 244.515625 L 221.664062 255.945312 C 221.664062 259.089844 224.234375 261.664062 227.378906 261.664062 C 230.523438 261.664062 233.09375 259.089844 233.09375 255.945312 L 233.09375 244.515625 L 244.527344 244.515625 C 247.667969 244.515625 250.242188 241.945312 250.242188 238.800781 L 250.242188 227.371094 L 270.589844 227.371094 L 289.277344 247.886719 C 286.363281 251.71875 284.535156 256.460938 284.535156 261.664062 C 284.535156 274.292969 294.765625 284.523438 307.394531 284.523438 C 320.027344 284.523438 330.257812 274.292969 330.257812 261.664062 C 330.257812 249.03125 320.027344 238.800781 307.394531 238.800781 C 304.136719 238.800781 301.050781 239.488281 298.25 240.742188 L 277.332031 217.824219 C 276.246094 216.625 274.703125 215.9375 273.101562 215.9375 L 250.242188 215.9375 L 250.242188 193.078125 L 308.195312 193.078125 C 310.769531 202.90625 319.628906 210.222656 330.257812 210.222656 C 342.890625 210.222656 353.121094 199.992188 353.121094 187.359375 C 353.121094 174.730469 342.890625 164.5 330.257812 164.5 Z M 307.394531 101.628906 C 313.683594 101.628906 318.828125 106.773438 318.828125 113.058594 C 318.828125 119.347656 313.683594 124.492188 307.394531 124.492188 C 301.109375 124.492188 295.964844 119.347656 295.964844 113.058594 C 295.964844 106.773438 301.109375 101.628906 307.394531 101.628906 Z M 318.828125 261.664062 C 318.828125 267.949219 313.683594 273.09375 307.394531 273.09375 C 301.109375 273.09375 295.964844 267.949219 295.964844 261.664062 C 295.964844 255.375 301.109375 250.230469 307.394531 250.230469 C 313.683594 250.230469 318.828125 255.375 318.828125 261.664062 Z M 238.808594 233.085938 L 147.363281 233.085938 L 147.363281 141.636719 L 238.808594 141.636719 Z M 330.257812 198.792969 C 323.972656 198.792969 318.828125 193.648438 318.828125 187.359375 C 318.828125 181.074219 323.972656 175.929688 330.257812 175.929688 C 336.546875 175.929688 341.6875 181.074219 341.6875 187.359375 C 341.6875 193.648438 336.546875 198.792969 330.257812 198.792969 Z M 330.257812 198.792969 "/></g></g></svg>