<svg xmlns="http://www.w3.org/2000/svg" xmlns:xlink="http://www.w3.org/1999/xlink" width="500" zoomAndPan="magnify" viewBox="0 0 375 374.999991" height="500" preserveAspectRatio="xMidYMid meet" version="1.2"><g id="3fe8411662"><path style=" stroke:none;fill-rule:nonzero;fill:#e6a823;fill-opacity:1;" d="M 77.390625 311.496094 C 78.316406 310.746094 79.199219 309.953125 80.042969 309.113281 C 80.886719 308.277344 81.683594 307.398438 82.4375 306.476562 C 83.1875 305.554688 83.890625 304.597656 84.546875 303.605469 C 85.199219 302.613281 85.804688 301.589844 86.351562 300.535156 C 86.902344 299.480469 87.394531 298.402344 87.832031 297.296875 C 88.269531 296.191406 88.652344 295.066406 88.972656 293.921875 C 89.296875 292.777344 89.558594 291.617188 89.761719 290.445312 C 89.96875 289.277344 90.109375 288.097656 90.191406 286.910156 C 90.277344 285.726562 90.296875 284.539062 90.257812 283.347656 C 90.21875 282.160156 90.117188 280.976562 89.957031 279.800781 C 89.796875 278.621094 89.574219 277.453125 89.292969 276.300781 C 89.015625 275.144531 88.675781 274.007812 88.277344 272.886719 C 87.878906 271.765625 87.425781 270.667969 86.914062 269.59375 C 86.40625 268.519531 85.839844 267.476562 85.222656 266.460938 C 84.605469 265.445312 83.9375 264.460938 83.21875 263.515625 C 82.5 262.566406 81.734375 261.660156 80.921875 260.789062 C 80.109375 259.921875 79.257812 259.097656 78.359375 258.316406 C 77.464844 257.535156 76.527344 256.800781 75.558594 256.117188 C 74.585938 255.433594 73.582031 254.800781 72.542969 254.21875 C 71.507812 253.636719 70.441406 253.109375 69.351562 252.636719 C 68.261719 252.164062 67.148438 251.75 66.015625 251.390625 C 64.882812 251.03125 63.730469 250.734375 62.566406 250.492188 C 61.402344 250.253906 60.230469 250.074219 59.046875 249.953125 C 57.863281 249.832031 56.675781 249.773438 55.488281 249.777344 C 54.300781 249.78125 53.113281 249.84375 51.929688 249.964844 C 50.75 250.089844 49.574219 250.273438 48.410156 250.519531 C 47.25 250.765625 46.101562 251.066406 44.96875 251.429688 C 43.835938 251.792969 42.726562 252.210938 41.636719 252.6875 C 40.546875 253.164062 39.484375 253.695312 38.449219 254.28125 C 37.414062 254.867188 36.414062 255.503906 35.445312 256.195312 C 34.472656 256.882812 33.542969 257.621094 32.648438 258.402344 C 31.753906 259.1875 30.90625 260.015625 30.097656 260.886719 C 29.289062 261.757812 28.527344 262.671875 27.8125 263.621094 C 27.097656 264.570312 26.429688 265.554688 25.816406 266.574219 C 25.203125 267.589844 24.644531 268.636719 24.136719 269.714844 C 23.632812 270.789062 23.179688 271.890625 22.789062 273.011719 C 22.394531 274.132812 22.058594 275.273438 21.785156 276.429688 C 21.507812 277.585938 21.289062 278.753906 21.132812 279.929688 C 20.976562 281.109375 20.882812 282.292969 20.847656 283.480469 C 20.8125 284.671875 20.839844 285.859375 20.925781 287.042969 C 21.011719 288.230469 21.160156 289.40625 21.367188 290.578125 C 21.578125 291.75 21.84375 292.90625 22.171875 294.046875 C 22.5 295.191406 22.882812 296.316406 23.324219 297.417969 C 23.769531 298.523438 24.265625 299.601562 24.820312 300.652344 C 25.371094 301.707031 25.976562 302.726562 26.636719 303.71875 C 27.292969 304.707031 28 305.660156 28.757812 306.578125 C 29.511719 307.496094 30.3125 308.375 31.160156 309.207031 C 32.007812 310.042969 32.894531 310.832031 33.820312 311.578125 C 31.40625 312.660156 29.078125 313.902344 26.839844 315.304688 C 24.597656 316.707031 22.464844 318.257812 20.4375 319.957031 C 18.410156 321.65625 16.511719 323.488281 14.738281 325.449219 C 12.964844 327.410156 11.335938 329.484375 9.847656 331.671875 C 8.363281 333.859375 7.035156 336.140625 5.863281 338.511719 C 4.695312 340.882812 3.691406 343.324219 2.859375 345.832031 C 2.027344 348.34375 1.371094 350.898438 0.890625 353.5 C 0.414062 356.097656 0.117188 358.71875 0 361.363281 L 0 368.054688 C 0 368.511719 0.0429688 368.964844 0.132812 369.410156 C 0.222656 369.859375 0.355469 370.292969 0.527344 370.714844 C 0.703125 371.132812 0.917969 371.535156 1.171875 371.914062 C 1.421875 372.292969 1.710938 372.644531 2.035156 372.964844 C 2.355469 373.289062 2.707031 373.578125 3.085938 373.828125 C 3.464844 374.082031 3.867188 374.296875 4.285156 374.472656 C 4.707031 374.644531 5.140625 374.777344 5.589844 374.867188 C 6.035156 374.957031 6.488281 375 6.945312 375 L 104.167969 375 C 104.621094 375 105.074219 374.957031 105.519531 374.867188 C 105.96875 374.777344 106.402344 374.644531 106.824219 374.472656 C 107.246094 374.296875 107.644531 374.082031 108.023438 373.828125 C 108.402344 373.578125 108.753906 373.289062 109.078125 372.964844 C 109.398438 372.644531 109.6875 372.292969 109.941406 371.914062 C 110.195312 371.535156 110.40625 371.132812 110.582031 370.714844 C 110.757812 370.292969 110.890625 369.859375 110.976562 369.410156 C 111.066406 368.964844 111.109375 368.511719 111.109375 368.054688 L 111.109375 362.257812 C 111.101562 359.5625 110.898438 356.882812 110.5 354.21875 C 110.101562 351.554688 109.511719 348.933594 108.726562 346.355469 C 107.945312 343.777344 106.980469 341.269531 105.832031 338.835938 C 104.683594 336.398438 103.363281 334.058594 101.871094 331.8125 C 100.382812 329.570312 98.738281 327.445312 96.9375 325.441406 C 95.132812 323.4375 93.199219 321.574219 91.125 319.855469 C 89.050781 318.132812 86.863281 316.574219 84.5625 315.171875 C 82.261719 313.769531 79.871094 312.542969 77.390625 311.492188 Z M 55.554688 263.890625 C 56.238281 263.890625 56.917969 263.921875 57.597656 263.988281 C 58.277344 264.054688 58.949219 264.15625 59.621094 264.289062 C 60.289062 264.421875 60.949219 264.589844 61.601562 264.785156 C 62.257812 264.984375 62.898438 265.214844 63.527344 265.476562 C 64.160156 265.734375 64.773438 266.027344 65.375 266.347656 C 65.976562 266.671875 66.5625 267.019531 67.128906 267.398438 C 67.695312 267.777344 68.246094 268.183594 68.773438 268.617188 C 69.300781 269.050781 69.804688 269.507812 70.285156 269.992188 C 70.769531 270.472656 71.226562 270.976562 71.660156 271.503906 C 72.09375 272.03125 72.5 272.582031 72.878906 273.148438 C 73.257812 273.714844 73.605469 274.300781 73.929688 274.902344 C 74.25 275.503906 74.542969 276.121094 74.804688 276.75 C 75.0625 277.378906 75.292969 278.023438 75.492188 278.675781 C 75.691406 279.328125 75.855469 279.988281 75.988281 280.65625 C 76.121094 281.328125 76.222656 282 76.289062 282.679688 C 76.355469 283.359375 76.390625 284.039062 76.390625 284.722656 C 76.390625 285.40625 76.355469 286.085938 76.289062 286.765625 C 76.222656 287.441406 76.121094 288.117188 75.988281 288.785156 C 75.855469 289.457031 75.691406 290.117188 75.492188 290.769531 C 75.292969 291.421875 75.0625 292.0625 74.804688 292.695312 C 74.542969 293.324219 74.25 293.941406 73.929688 294.542969 C 73.605469 295.144531 73.257812 295.730469 72.878906 296.296875 C 72.5 296.863281 72.09375 297.410156 71.660156 297.9375 C 71.226562 298.464844 70.769531 298.972656 70.285156 299.453125 C 69.804688 299.9375 69.300781 300.394531 68.773438 300.828125 C 68.246094 301.257812 67.695312 301.664062 67.128906 302.042969 C 66.5625 302.421875 65.976562 302.773438 65.375 303.09375 C 64.773438 303.417969 64.160156 303.707031 63.527344 303.96875 C 62.898438 304.230469 62.257812 304.460938 61.601562 304.660156 C 60.949219 304.855469 60.289062 305.023438 59.621094 305.15625 C 58.949219 305.289062 58.277344 305.386719 57.597656 305.457031 C 56.917969 305.523438 56.238281 305.554688 55.554688 305.554688 C 54.875 305.554688 54.191406 305.523438 53.511719 305.457031 C 52.835938 305.386719 52.160156 305.289062 51.492188 305.15625 C 50.820312 305.023438 50.160156 304.855469 49.507812 304.660156 C 48.855469 304.460938 48.214844 304.230469 47.582031 303.96875 C 46.953125 303.707031 46.335938 303.417969 45.734375 303.09375 C 45.132812 302.773438 44.546875 302.421875 43.980469 302.042969 C 43.414062 301.664062 42.867188 301.257812 42.339844 300.828125 C 41.8125 300.394531 41.304688 299.9375 40.824219 299.453125 C 40.339844 298.972656 39.882812 298.464844 39.453125 297.9375 C 39.019531 297.410156 38.613281 296.863281 38.234375 296.296875 C 37.855469 295.730469 37.503906 295.144531 37.183594 294.542969 C 36.859375 293.941406 36.570312 293.324219 36.308594 292.695312 C 36.046875 292.0625 35.816406 291.421875 35.621094 290.769531 C 35.421875 290.117188 35.253906 289.457031 35.121094 288.785156 C 34.988281 288.117188 34.890625 287.441406 34.824219 286.765625 C 34.753906 286.085938 34.722656 285.40625 34.722656 284.722656 C 34.722656 284.039062 34.757812 283.359375 34.824219 282.679688 C 34.890625 282.003906 34.992188 281.328125 35.125 280.660156 C 35.261719 279.992188 35.425781 279.328125 35.625 278.675781 C 35.824219 278.023438 36.054688 277.382812 36.3125 276.753906 C 36.574219 276.125 36.867188 275.507812 37.1875 274.90625 C 37.511719 274.304688 37.859375 273.71875 38.242188 273.152344 C 38.621094 272.585938 39.023438 272.039062 39.457031 271.511719 C 39.890625 270.984375 40.347656 270.480469 40.832031 269.996094 C 41.3125 269.515625 41.816406 269.058594 42.34375 268.625 C 42.871094 268.191406 43.417969 267.785156 43.988281 267.40625 C 44.554688 267.027344 45.136719 266.675781 45.738281 266.355469 C 46.339844 266.035156 46.957031 265.742188 47.585938 265.480469 C 48.214844 265.21875 48.859375 264.988281 49.511719 264.789062 C 50.164062 264.59375 50.824219 264.425781 51.492188 264.292969 C 52.160156 264.160156 52.835938 264.058594 53.515625 263.992188 C 54.191406 263.921875 54.875 263.890625 55.554688 263.890625 Z M 13.890625 361.109375 C 13.964844 359.925781 14.089844 358.742188 14.261719 357.566406 C 14.4375 356.390625 14.65625 355.226562 14.925781 354.066406 C 15.199219 352.910156 15.515625 351.765625 15.878906 350.636719 C 16.242188 349.503906 16.652344 348.390625 17.109375 347.292969 C 17.5625 346.195312 18.0625 345.117188 18.609375 344.058594 C 19.152344 343.003906 19.742188 341.972656 20.371094 340.964844 C 21 339.957031 21.671875 338.976562 22.382812 338.023438 C 23.089844 337.070312 23.839844 336.148438 24.625 335.257812 C 25.414062 334.367188 26.234375 333.507812 27.09375 332.6875 C 27.949219 331.863281 28.839844 331.078125 29.761719 330.328125 C 30.683594 329.578125 31.636719 328.867188 32.617188 328.195312 C 33.597656 327.523438 34.601562 326.894531 35.636719 326.304688 C 36.667969 325.714844 37.722656 325.171875 38.800781 324.671875 C 39.878906 324.167969 40.976562 323.710938 42.089844 323.300781 C 43.207031 322.890625 44.335938 322.527344 45.480469 322.207031 C 46.625 321.890625 47.78125 321.621094 48.949219 321.398438 C 50.570312 321.136719 52.203125 320.96875 53.84375 320.898438 C 55.484375 320.832031 57.125 320.859375 58.765625 320.984375 C 60.402344 321.109375 62.027344 321.328125 63.640625 321.648438 C 65.25 321.964844 66.839844 322.378906 68.402344 322.882812 C 69.964844 323.390625 71.492188 323.984375 72.984375 324.671875 C 74.476562 325.359375 75.925781 326.132812 77.324219 326.988281 C 78.726562 327.847656 80.070312 328.785156 81.359375 329.804688 C 82.648438 330.820312 83.875 331.914062 85.035156 333.074219 C 86.90625 334.910156 88.585938 336.90625 90.070312 339.0625 C 91.554688 341.21875 92.816406 343.5 93.859375 345.902344 C 94.902344 348.308594 95.707031 350.789062 96.269531 353.34375 C 96.832031 355.902344 97.144531 358.492188 97.207031 361.109375 Z M 13.890625 361.109375 "/><path style=" stroke:none;fill-rule:nonzero;fill:#e6a823;fill-opacity:1;" d="M 358.714844 73.222656 C 353.664062 68.175781 347.855469 64.269531 341.28125 61.496094 C 342.203125 60.746094 343.089844 59.953125 343.929688 59.117188 C 344.773438 58.277344 345.570312 57.398438 346.324219 56.476562 C 347.078125 55.554688 347.78125 54.601562 348.433594 53.605469 C 349.089844 52.613281 349.691406 51.589844 350.238281 50.535156 C 350.789062 49.480469 351.28125 48.402344 351.722656 47.296875 C 352.160156 46.191406 352.539062 45.066406 352.863281 43.921875 C 353.183594 42.777344 353.449219 41.621094 353.652344 40.449219 C 353.855469 39.277344 354 38.097656 354.082031 36.910156 C 354.164062 35.726562 354.1875 34.539062 354.144531 33.351562 C 354.105469 32.160156 354.007812 30.976562 353.847656 29.800781 C 353.683594 28.621094 353.464844 27.457031 353.183594 26.300781 C 352.902344 25.144531 352.5625 24.007812 352.164062 22.886719 C 351.769531 21.765625 351.3125 20.667969 350.804688 19.59375 C 350.292969 18.519531 349.730469 17.476562 349.113281 16.460938 C 348.492188 15.445312 347.824219 14.460938 347.105469 13.515625 C 346.390625 12.566406 345.625 11.660156 344.8125 10.789062 C 344 9.921875 343.144531 9.097656 342.25 8.316406 C 341.351562 7.535156 340.417969 6.800781 339.445312 6.117188 C 338.472656 5.433594 337.46875 4.800781 336.433594 4.21875 C 335.394531 3.636719 334.332031 3.109375 333.242188 2.636719 C 332.148438 2.164062 331.039062 1.75 329.902344 1.390625 C 328.769531 1.03125 327.621094 0.734375 326.457031 0.492188 C 325.292969 0.253906 324.117188 0.0742188 322.933594 -0.046875 C 321.753906 -0.167969 320.566406 -0.226562 319.378906 -0.222656 C 318.1875 -0.222656 317.003906 -0.15625 315.820312 -0.0351562 C 314.636719 0.0898438 313.464844 0.273438 312.300781 0.519531 C 311.136719 0.765625 309.988281 1.066406 308.855469 1.429688 C 307.722656 1.792969 306.613281 2.210938 305.523438 2.6875 C 304.433594 3.164062 303.375 3.695312 302.339844 4.28125 C 301.304688 4.867188 300.300781 5.503906 299.332031 6.195312 C 298.363281 6.882812 297.433594 7.617188 296.539062 8.402344 C 295.644531 9.1875 294.792969 10.015625 293.984375 10.886719 C 293.175781 11.757812 292.414062 12.671875 291.699219 13.621094 C 290.984375 14.570312 290.320312 15.554688 289.707031 16.574219 C 289.09375 17.589844 288.53125 18.636719 288.027344 19.714844 C 287.519531 20.789062 287.070312 21.886719 286.675781 23.011719 C 286.28125 24.132812 285.949219 25.273438 285.671875 26.429688 C 285.394531 27.585938 285.179688 28.753906 285.023438 29.929688 C 284.867188 31.109375 284.769531 32.292969 284.734375 33.480469 C 284.699219 34.671875 284.726562 35.855469 284.8125 37.042969 C 284.902344 38.230469 285.050781 39.40625 285.257812 40.578125 C 285.464844 41.75 285.734375 42.90625 286.058594 44.046875 C 286.386719 45.191406 286.773438 46.316406 287.214844 47.417969 C 287.65625 48.523438 288.152344 49.601562 288.707031 50.652344 C 289.261719 51.707031 289.867188 52.726562 290.523438 53.71875 C 291.183594 54.707031 291.890625 55.660156 292.644531 56.578125 C 293.402344 57.496094 294.203125 58.371094 295.050781 59.207031 C 295.894531 60.042969 296.78125 60.832031 297.710938 61.578125 C 295.296875 62.660156 292.96875 63.902344 290.726562 65.304688 C 288.484375 66.707031 286.351562 68.257812 284.324219 69.957031 C 282.300781 71.65625 280.398438 73.488281 278.625 75.449219 C 276.851562 77.410156 275.222656 79.484375 273.738281 81.671875 C 272.25 83.859375 270.921875 86.140625 269.753906 88.511719 C 268.582031 90.882812 267.582031 93.324219 266.75 95.832031 C 265.917969 98.34375 265.261719 100.898438 264.78125 103.5 C 264.300781 106.097656 264.003906 108.71875 263.890625 111.363281 L 263.890625 118.054688 C 263.890625 118.511719 263.933594 118.964844 264.023438 119.410156 C 264.109375 119.859375 264.242188 120.292969 264.417969 120.714844 C 264.59375 121.132812 264.804688 121.535156 265.058594 121.914062 C 265.3125 122.292969 265.601562 122.644531 265.921875 122.964844 C 266.246094 123.289062 266.597656 123.578125 266.976562 123.828125 C 267.355469 124.082031 267.753906 124.296875 268.175781 124.472656 C 268.597656 124.644531 269.03125 124.777344 269.476562 124.867188 C 269.925781 124.957031 270.378906 125 270.832031 125 L 368.054688 125 C 368.511719 125 368.964844 124.957031 369.410156 124.867188 C 369.859375 124.777344 370.292969 124.644531 370.714844 124.472656 C 371.132812 124.296875 371.535156 124.082031 371.914062 123.828125 C 372.292969 123.578125 372.644531 123.289062 372.964844 122.964844 C 373.289062 122.644531 373.578125 122.292969 373.828125 121.914062 C 374.082031 121.535156 374.296875 121.132812 374.472656 120.714844 C 374.644531 120.292969 374.777344 119.859375 374.867188 119.410156 C 374.957031 118.964844 375 118.511719 375 118.054688 L 375 112.257812 C 375.015625 108.625 374.667969 105.027344 373.964844 101.464844 C 373.257812 97.902344 372.207031 94.441406 370.808594 91.089844 C 369.410156 87.738281 367.691406 84.558594 365.65625 81.550781 C 363.621094 78.542969 361.304688 75.765625 358.714844 73.222656 Z M 319.445312 13.890625 C 320.125 13.890625 320.808594 13.921875 321.488281 13.988281 C 322.164062 14.054688 322.839844 14.15625 323.507812 14.289062 C 324.179688 14.421875 324.839844 14.589844 325.492188 14.785156 C 326.144531 14.984375 326.785156 15.214844 327.417969 15.476562 C 328.046875 15.734375 328.664062 16.027344 329.265625 16.347656 C 329.867188 16.671875 330.453125 17.019531 331.019531 17.398438 C 331.585938 17.777344 332.132812 18.183594 332.660156 18.617188 C 333.1875 19.050781 333.691406 19.507812 334.175781 19.992188 C 334.660156 20.472656 335.117188 20.976562 335.546875 21.503906 C 335.980469 22.03125 336.386719 22.582031 336.765625 23.148438 C 337.144531 23.714844 337.496094 24.300781 337.816406 24.902344 C 338.140625 25.503906 338.429688 26.121094 338.691406 26.75 C 338.953125 27.378906 339.183594 28.023438 339.378906 28.675781 C 339.578125 29.328125 339.746094 29.988281 339.878906 30.65625 C 340.011719 31.328125 340.109375 32 340.175781 32.679688 C 340.246094 33.359375 340.277344 34.039062 340.277344 34.722656 C 340.277344 35.40625 340.246094 36.085938 340.175781 36.765625 C 340.109375 37.441406 340.011719 38.117188 339.878906 38.785156 C 339.746094 39.457031 339.578125 40.117188 339.378906 40.769531 C 339.183594 41.421875 338.953125 42.0625 338.691406 42.695312 C 338.429688 43.324219 338.140625 43.941406 337.816406 44.542969 C 337.496094 45.144531 337.144531 45.730469 336.765625 46.296875 C 336.386719 46.863281 335.980469 47.410156 335.546875 47.9375 C 335.117188 48.464844 334.660156 48.972656 334.175781 49.453125 C 333.691406 49.9375 333.1875 50.394531 332.660156 50.828125 C 332.132812 51.257812 331.585938 51.664062 331.019531 52.042969 C 330.453125 52.421875 329.867188 52.773438 329.265625 53.09375 C 328.664062 53.417969 328.046875 53.707031 327.417969 53.96875 C 326.785156 54.230469 326.144531 54.460938 325.492188 54.660156 C 324.839844 54.855469 324.179688 55.023438 323.507812 55.15625 C 322.839844 55.289062 322.164062 55.386719 321.488281 55.457031 C 320.808594 55.523438 320.125 55.554688 319.445312 55.554688 C 318.761719 55.554688 318.082031 55.523438 317.402344 55.457031 C 316.722656 55.386719 316.050781 55.289062 315.378906 55.15625 C 314.710938 55.023438 314.050781 54.855469 313.398438 54.660156 C 312.742188 54.460938 312.101562 54.230469 311.472656 53.96875 C 310.839844 53.707031 310.226562 53.417969 309.625 53.09375 C 309.023438 52.773438 308.4375 52.421875 307.871094 52.042969 C 307.300781 51.664062 306.753906 51.257812 306.226562 50.828125 C 305.699219 50.394531 305.195312 49.9375 304.714844 49.453125 C 304.230469 48.972656 303.773438 48.464844 303.339844 47.9375 C 302.90625 47.410156 302.5 46.863281 302.121094 46.296875 C 301.742188 45.730469 301.394531 45.144531 301.070312 44.542969 C 300.75 43.941406 300.457031 43.324219 300.195312 42.695312 C 299.9375 42.0625 299.707031 41.421875 299.507812 40.769531 C 299.308594 40.117188 299.144531 39.457031 299.011719 38.785156 C 298.878906 38.117188 298.777344 37.441406 298.710938 36.765625 C 298.644531 36.085938 298.609375 35.40625 298.609375 34.722656 C 298.613281 34.039062 298.644531 33.359375 298.714844 32.679688 C 298.78125 32.003906 298.882812 31.328125 299.015625 30.660156 C 299.148438 29.992188 299.316406 29.328125 299.511719 28.675781 C 299.710938 28.023438 299.941406 27.382812 300.203125 26.753906 C 300.464844 26.125 300.757812 25.507812 301.078125 24.90625 C 301.398438 24.304688 301.75 23.71875 302.128906 23.152344 C 302.507812 22.585938 302.914062 22.039062 303.347656 21.511719 C 303.78125 20.984375 304.238281 20.480469 304.71875 19.996094 C 305.203125 19.515625 305.707031 19.058594 306.234375 18.625 C 306.761719 18.191406 307.308594 17.785156 307.875 17.40625 C 308.441406 17.027344 309.027344 16.675781 309.628906 16.355469 C 310.230469 16.035156 310.84375 15.742188 311.476562 15.480469 C 312.105469 15.21875 312.746094 14.988281 313.398438 14.792969 C 314.050781 14.59375 314.710938 14.425781 315.382812 14.292969 C 316.050781 14.160156 316.722656 14.058594 317.402344 13.992188 C 318.082031 13.921875 318.761719 13.890625 319.445312 13.890625 Z M 277.777344 111.109375 C 277.855469 109.925781 277.980469 108.742188 278.152344 107.566406 C 278.324219 106.390625 278.546875 105.226562 278.816406 104.066406 C 279.085938 102.910156 279.402344 101.765625 279.765625 100.636719 C 280.132812 99.503906 280.539062 98.390625 280.996094 97.292969 C 281.453125 96.195312 281.953125 95.117188 282.496094 94.058594 C 283.042969 93.003906 283.628906 91.972656 284.257812 90.964844 C 284.890625 89.957031 285.558594 88.976562 286.269531 88.023438 C 286.980469 87.070312 287.730469 86.148438 288.515625 85.257812 C 289.300781 84.367188 290.125 83.507812 290.980469 82.6875 C 291.839844 81.863281 292.726562 81.078125 293.648438 80.328125 C 294.574219 79.578125 295.523438 78.867188 296.503906 78.195312 C 297.484375 77.523438 298.492188 76.894531 299.523438 76.304688 C 300.558594 75.714844 301.613281 75.171875 302.691406 74.671875 C 303.765625 74.167969 304.863281 73.710938 305.980469 73.300781 C 307.09375 72.890625 308.222656 72.527344 309.371094 72.207031 C 310.515625 71.890625 311.671875 71.621094 312.839844 71.398438 C 314.460938 71.136719 316.09375 70.972656 317.734375 70.902344 C 319.375 70.832031 321.015625 70.863281 322.652344 70.988281 C 324.289062 71.113281 325.914062 71.335938 327.527344 71.652344 C 329.136719 71.96875 330.726562 72.382812 332.289062 72.886719 C 333.851562 73.394531 335.378906 73.992188 336.871094 74.675781 C 338.363281 75.363281 339.8125 76.136719 341.210938 76.992188 C 342.613281 77.851562 343.957031 78.789062 345.246094 79.804688 C 346.539062 80.824219 347.761719 81.914062 348.925781 83.074219 C 350.796875 84.910156 352.472656 86.90625 353.957031 89.0625 C 355.441406 91.21875 356.707031 93.5 357.75 95.902344 C 358.792969 98.308594 359.59375 100.789062 360.15625 103.34375 C 360.722656 105.902344 361.03125 108.492188 361.09375 111.109375 Z M 277.777344 111.109375 "/><path style=" stroke:none;fill-rule:nonzero;fill:#e6a823;fill-opacity:1;" d="M 323.609375 154.167969 C 323.042969 153.867188 322.472656 153.570312 321.902344 153.273438 C 321.109375 152.96875 320.292969 152.816406 319.445312 152.816406 C 318.597656 152.816406 317.777344 152.96875 316.984375 153.273438 C 316.414062 153.570312 315.847656 153.867188 315.277344 154.167969 L 287.5 175 C 287.136719 175.273438 286.800781 175.582031 286.496094 175.917969 C 286.191406 176.257812 285.921875 176.625 285.691406 177.015625 C 285.457031 177.410156 285.265625 177.820312 285.117188 178.25 C 284.964844 178.679688 284.855469 179.121094 284.792969 179.574219 C 284.726562 180.023438 284.707031 180.476562 284.734375 180.933594 C 284.757812 181.390625 284.828125 181.835938 284.941406 182.277344 C 285.050781 182.722656 285.207031 183.148438 285.40625 183.558594 C 285.601562 183.96875 285.835938 184.355469 286.109375 184.722656 C 286.382812 185.085938 286.691406 185.421875 287.03125 185.726562 C 287.371094 186.03125 287.734375 186.296875 288.128906 186.53125 C 288.519531 186.761719 288.933594 186.957031 289.363281 187.105469 C 289.792969 187.257812 290.234375 187.367188 290.683594 187.429688 C 291.136719 187.496094 291.589844 187.515625 292.042969 187.488281 C 292.5 187.464844 292.949219 187.394531 293.390625 187.28125 C 293.832031 187.167969 294.257812 187.015625 294.667969 186.816406 C 295.082031 186.621094 295.46875 186.382812 295.832031 186.109375 L 312.5 173.609375 L 312.5 305.554688 L 131.945312 305.554688 C 131.488281 305.554688 131.035156 305.601562 130.589844 305.6875 C 130.140625 305.777344 129.707031 305.910156 129.285156 306.085938 C 128.867188 306.257812 128.464844 306.472656 128.085938 306.726562 C 127.707031 306.980469 127.355469 307.265625 127.035156 307.589844 C 126.710938 307.910156 126.421875 308.261719 126.171875 308.640625 C 125.917969 309.019531 125.703125 309.421875 125.527344 309.84375 C 125.355469 310.265625 125.222656 310.699219 125.132812 311.144531 C 125.042969 311.59375 125 312.042969 125 312.5 C 125 312.957031 125.042969 313.40625 125.132812 313.855469 C 125.222656 314.300781 125.355469 314.734375 125.527344 315.15625 C 125.703125 315.578125 125.917969 315.980469 126.171875 316.359375 C 126.421875 316.738281 126.710938 317.089844 127.035156 317.410156 C 127.355469 317.734375 127.707031 318.019531 128.085938 318.273438 C 128.464844 318.527344 128.867188 318.742188 129.285156 318.914062 C 129.707031 319.089844 130.140625 319.222656 130.589844 319.3125 C 131.035156 319.398438 131.488281 319.445312 131.945312 319.445312 L 319.445312 319.445312 C 319.898438 319.445312 320.351562 319.398438 320.800781 319.3125 C 321.246094 319.222656 321.679688 319.089844 322.101562 318.914062 C 322.523438 318.742188 322.921875 318.527344 323.300781 318.273438 C 323.679688 318.019531 324.03125 317.734375 324.355469 317.410156 C 324.675781 317.089844 324.964844 316.738281 325.21875 316.359375 C 325.472656 315.980469 325.6875 315.578125 325.859375 315.15625 C 326.035156 314.734375 326.167969 314.300781 326.253906 313.855469 C 326.34375 313.40625 326.390625 312.957031 326.390625 312.5 L 326.390625 173.609375 L 343.054688 186.109375 C 343.421875 186.382812 343.808594 186.621094 344.21875 186.816406 C 344.628906 187.015625 345.058594 187.167969 345.5 187.28125 C 345.941406 187.394531 346.390625 187.464844 346.84375 187.488281 C 347.300781 187.515625 347.753906 187.496094 348.203125 187.429688 C 348.65625 187.367188 349.097656 187.257812 349.527344 187.105469 C 349.957031 186.957031 350.367188 186.761719 350.761719 186.53125 C 351.152344 186.296875 351.519531 186.03125 351.859375 185.726562 C 352.199219 185.421875 352.503906 185.085938 352.777344 184.722656 C 353.050781 184.355469 353.285156 183.96875 353.484375 183.558594 C 353.679688 183.148438 353.835938 182.71875 353.949219 182.277344 C 354.0625 181.835938 354.132812 181.390625 354.15625 180.933594 C 354.179688 180.476562 354.160156 180.023438 354.097656 179.574219 C 354.03125 179.121094 353.925781 178.679688 353.773438 178.25 C 353.621094 177.820312 353.429688 177.410156 353.199219 177.015625 C 352.964844 176.625 352.695312 176.257812 352.394531 175.917969 C 352.089844 175.582031 351.753906 175.273438 351.390625 175 Z M 323.609375 154.167969 "/><path style=" stroke:none;fill-rule:nonzero;fill:#e6a823;fill-opacity:1;" d="M 51.390625 220.832031 C 51.6875 221.023438 52 221.183594 52.328125 221.324219 C 52.578125 221.476562 52.835938 221.609375 53.101562 221.726562 C 53.886719 222.058594 54.703125 222.222656 55.554688 222.222656 C 56.40625 222.222656 57.226562 222.058594 58.011719 221.726562 C 58.277344 221.609375 58.535156 221.476562 58.785156 221.324219 C 59.109375 221.183594 59.421875 221.019531 59.722656 220.832031 L 87.5 200 C 87.863281 199.726562 88.199219 199.417969 88.503906 199.078125 C 88.804688 198.742188 89.074219 198.375 89.304688 197.980469 C 89.539062 197.589844 89.730469 197.179688 89.878906 196.75 C 90.03125 196.320312 90.140625 195.878906 90.203125 195.425781 C 90.269531 194.976562 90.289062 194.523438 90.261719 194.066406 C 90.238281 193.613281 90.167969 193.164062 90.054688 192.722656 C 89.941406 192.28125 89.785156 191.855469 89.589844 191.445312 C 89.394531 191.035156 89.15625 190.644531 88.882812 190.28125 C 88.609375 189.917969 88.304688 189.582031 87.964844 189.277344 C 87.625 188.972656 87.261719 188.707031 86.867188 188.472656 C 86.476562 188.242188 86.066406 188.050781 85.636719 187.898438 C 85.207031 187.746094 84.765625 187.636719 84.3125 187.574219 C 83.863281 187.507812 83.410156 187.488281 82.953125 187.511719 C 82.5 187.539062 82.050781 187.605469 81.609375 187.71875 C 81.167969 187.832031 80.742188 187.988281 80.332031 188.183594 C 79.917969 188.378906 79.53125 188.617188 79.167969 188.890625 L 62.5 201.390625 L 62.5 69.445312 L 243.054688 69.445312 C 243.511719 69.445312 243.964844 69.398438 244.410156 69.3125 C 244.859375 69.222656 245.292969 69.089844 245.714844 68.914062 C 246.132812 68.742188 246.535156 68.527344 246.914062 68.273438 C 247.292969 68.019531 247.644531 67.734375 247.964844 67.410156 C 248.289062 67.089844 248.578125 66.738281 248.828125 66.359375 C 249.082031 65.980469 249.296875 65.578125 249.472656 65.15625 C 249.644531 64.734375 249.777344 64.300781 249.867188 63.855469 C 249.957031 63.40625 250 62.957031 250 62.5 C 250 62.042969 249.957031 61.59375 249.867188 61.144531 C 249.777344 60.699219 249.644531 60.265625 249.472656 59.84375 C 249.296875 59.421875 249.082031 59.019531 248.828125 58.640625 C 248.578125 58.261719 248.289062 57.910156 247.964844 57.589844 C 247.644531 57.265625 247.292969 56.980469 246.914062 56.726562 C 246.535156 56.472656 246.132812 56.257812 245.714844 56.085938 C 245.292969 55.910156 244.859375 55.777344 244.410156 55.6875 C 243.964844 55.601562 243.511719 55.554688 243.054688 55.554688 L 55.554688 55.554688 C 55.097656 55.554688 54.648438 55.601562 54.199219 55.6875 C 53.753906 55.777344 53.320312 55.910156 52.898438 56.085938 C 52.476562 56.257812 52.078125 56.472656 51.699219 56.726562 C 51.316406 56.980469 50.96875 57.265625 50.644531 57.589844 C 50.324219 57.910156 50.035156 58.261719 49.78125 58.640625 C 49.527344 59.019531 49.3125 59.421875 49.140625 59.84375 C 48.964844 60.265625 48.832031 60.699219 48.746094 61.144531 C 48.65625 61.59375 48.609375 62.042969 48.609375 62.5 L 48.609375 201.390625 L 31.945312 188.890625 C 31.578125 188.617188 31.191406 188.382812 30.78125 188.183594 C 30.371094 187.988281 29.941406 187.832031 29.5 187.71875 C 29.058594 187.609375 28.613281 187.539062 28.15625 187.515625 C 27.703125 187.492188 27.25 187.511719 26.796875 187.574219 C 26.347656 187.640625 25.90625 187.746094 25.476562 187.898438 C 25.046875 188.050781 24.636719 188.242188 24.246094 188.476562 C 23.851562 188.707031 23.488281 188.976562 23.148438 189.28125 C 22.808594 189.582031 22.503906 189.917969 22.230469 190.28125 C 21.957031 190.648438 21.71875 191.035156 21.523438 191.445312 C 21.324219 191.855469 21.171875 192.28125 21.058594 192.722656 C 20.945312 193.164062 20.875 193.613281 20.851562 194.066406 C 20.824219 194.523438 20.84375 194.976562 20.910156 195.425781 C 20.972656 195.878906 21.082031 196.320312 21.230469 196.75 C 21.382812 197.179688 21.574219 197.589844 21.804688 197.980469 C 22.039062 198.375 22.304688 198.742188 22.609375 199.078125 C 22.914062 199.417969 23.246094 199.726562 23.609375 200 Z M 51.390625 220.832031 "/><path style=" stroke:none;fill-rule:nonzero;fill:#e6a823;fill-opacity:1;" d="M 152.492188 223.566406 L 152.492188 224.824219 C 151.289062 225.6875 150.207031 226.679688 149.238281 227.800781 C 148.269531 228.921875 147.449219 230.140625 146.769531 231.457031 C 146.09375 232.773438 145.582031 234.148438 145.230469 235.585938 C 144.878906 237.023438 144.703125 238.484375 144.699219 239.964844 L 144.699219 241.375 C 144.703125 242.296875 144.769531 243.210938 144.90625 244.121094 C 145.042969 245.03125 145.246094 245.929688 145.515625 246.808594 C 145.78125 247.691406 146.113281 248.546875 146.507812 249.378906 C 146.902344 250.210938 147.355469 251.007812 147.867188 251.773438 C 148.382812 252.539062 148.945312 253.261719 149.566406 253.945312 C 150.183594 254.625 150.847656 255.257812 151.5625 255.84375 C 152.273438 256.425781 153.023438 256.953125 153.8125 257.429688 C 154.601562 257.902344 155.421875 258.3125 156.273438 258.667969 C 156.375 259.550781 156.515625 260.429688 156.695312 261.300781 C 156.875 262.175781 157.09375 263.035156 157.351562 263.886719 C 157.609375 264.742188 157.90625 265.578125 158.242188 266.402344 C 158.578125 267.230469 158.949219 268.039062 159.359375 268.828125 C 159.765625 269.621094 160.210938 270.390625 160.6875 271.140625 C 161.167969 271.894531 161.679688 272.621094 162.222656 273.324219 C 162.769531 274.03125 163.34375 274.707031 163.949219 275.359375 C 164.554688 276.011719 165.191406 276.636719 165.855469 277.230469 C 166.519531 277.824219 167.207031 278.386719 167.921875 278.917969 C 168.636719 279.449219 169.371094 279.949219 170.132812 280.410156 C 170.890625 280.875 171.671875 281.304688 172.46875 281.699219 C 173.269531 282.09375 174.082031 282.449219 174.914062 282.769531 C 175.746094 283.089844 176.589844 283.367188 177.445312 283.613281 C 178.304688 283.855469 179.167969 284.058594 180.046875 284.222656 C 180.921875 284.386719 181.800781 284.507812 182.6875 284.59375 C 183.574219 284.675781 184.464844 284.71875 185.351562 284.722656 L 189.648438 284.722656 C 190.535156 284.71875 191.425781 284.675781 192.3125 284.59375 C 193.199219 284.507812 194.078125 284.386719 194.957031 284.222656 C 195.832031 284.058594 196.695312 283.855469 197.554688 283.613281 C 198.410156 283.367188 199.253906 283.085938 200.085938 282.769531 C 200.917969 282.449219 201.730469 282.09375 202.53125 281.699219 C 203.328125 281.304688 204.109375 280.875 204.867188 280.410156 C 205.628906 279.945312 206.367188 279.449219 207.078125 278.917969 C 207.792969 278.386719 208.484375 277.824219 209.144531 277.226562 C 209.808594 276.632812 210.445312 276.011719 211.050781 275.359375 C 211.65625 274.707031 212.234375 274.027344 212.777344 273.324219 C 213.324219 272.621094 213.835938 271.890625 214.3125 271.140625 C 214.792969 270.390625 215.234375 269.617188 215.644531 268.828125 C 216.050781 268.035156 216.421875 267.226562 216.757812 266.402344 C 217.09375 265.578125 217.390625 264.738281 217.648438 263.886719 C 217.90625 263.035156 218.125 262.171875 218.304688 261.300781 C 218.484375 260.425781 218.625 259.546875 218.726562 258.664062 C 219.578125 258.3125 220.398438 257.898438 221.1875 257.425781 C 221.976562 256.953125 222.726562 256.421875 223.4375 255.839844 C 224.152344 255.257812 224.816406 254.625 225.433594 253.941406 C 226.054688 253.257812 226.617188 252.535156 227.132812 251.769531 C 227.644531 251.003906 228.097656 250.207031 228.492188 249.375 C 228.886719 248.542969 229.21875 247.6875 229.484375 246.804688 C 229.753906 245.925781 229.957031 245.03125 230.09375 244.121094 C 230.230469 243.207031 230.296875 242.292969 230.300781 241.371094 L 230.300781 239.960938 C 230.296875 238.480469 230.121094 237.023438 229.769531 235.585938 C 229.417969 234.144531 228.90625 232.769531 228.230469 231.453125 C 227.550781 230.136719 226.730469 228.917969 225.761719 227.796875 C 224.792969 226.675781 223.710938 225.683594 222.507812 224.824219 L 222.507812 223.5625 C 222.550781 221.027344 222.828125 218.519531 223.339844 216.039062 C 223.855469 213.554688 224.59375 211.140625 225.558594 208.796875 C 226.527344 206.457031 227.699219 204.222656 229.085938 202.097656 C 230.46875 199.976562 232.039062 198 233.796875 196.171875 C 235.765625 194.042969 237.582031 191.785156 239.238281 189.40625 C 240.898438 187.027344 242.386719 184.542969 243.703125 181.957031 C 245.019531 179.371094 246.152344 176.707031 247.101562 173.964844 C 248.050781 171.226562 248.808594 168.429688 249.371094 165.585938 C 249.9375 162.738281 250.300781 159.867188 250.46875 156.96875 C 250.636719 154.074219 250.601562 151.179688 250.371094 148.285156 C 250.140625 145.394531 249.710938 142.53125 249.082031 139.699219 C 248.453125 136.867188 247.636719 134.089844 246.625 131.371094 C 245.617188 128.648438 244.421875 126.011719 243.046875 123.457031 C 241.675781 120.902344 240.128906 118.453125 238.417969 116.109375 C 236.707031 113.769531 234.839844 111.554688 232.824219 109.46875 C 230.804688 107.386719 228.652344 105.449219 226.367188 103.660156 C 224.082031 101.871094 221.6875 100.25 219.175781 98.792969 C 216.667969 97.335938 214.070312 96.058594 211.386719 94.957031 C 208.699219 93.859375 205.953125 92.949219 203.140625 92.230469 C 200.332031 91.511719 197.484375 90.988281 194.601562 90.660156 C 192.265625 90.40625 189.921875 90.277344 187.570312 90.277344 L 187.5 90.292969 L 187.429688 90.277344 C 185.078125 90.28125 182.734375 90.410156 180.394531 90.664062 C 177.511719 90.992188 174.664062 91.515625 171.855469 92.234375 C 169.042969 92.953125 166.296875 93.863281 163.609375 94.960938 C 160.925781 96.0625 158.328125 97.339844 155.820312 98.796875 C 153.3125 100.253906 150.914062 101.875 148.628906 103.664062 C 146.34375 105.453125 144.191406 107.390625 142.175781 109.472656 C 140.15625 111.558594 138.292969 113.773438 136.582031 116.117188 C 134.867188 118.457031 133.324219 120.90625 131.949219 123.460938 C 130.578125 126.015625 129.382812 128.65625 128.375 131.375 C 127.363281 134.09375 126.542969 136.871094 125.917969 139.703125 C 125.289062 142.535156 124.859375 145.398438 124.628906 148.292969 C 124.398438 151.183594 124.363281 154.078125 124.53125 156.972656 C 124.699219 159.871094 125.066406 162.742188 125.628906 165.589844 C 126.191406 168.433594 126.949219 171.226562 127.898438 173.96875 C 128.847656 176.710938 129.980469 179.375 131.296875 181.960938 C 132.613281 184.546875 134.101562 187.027344 135.761719 189.410156 C 137.417969 191.789062 139.234375 194.042969 141.203125 196.171875 C 142.960938 198.003906 144.53125 199.976562 145.914062 202.101562 C 147.300781 204.222656 148.472656 206.457031 149.441406 208.800781 C 150.40625 211.144531 151.144531 213.558594 151.660156 216.039062 C 152.171875 218.523438 152.449219 221.03125 152.492188 223.566406 Z M 211.570312 235.121094 C 211.890625 235.121094 212.203125 235.152344 212.515625 235.214844 C 212.828125 235.277344 213.128906 235.371094 213.421875 235.492188 C 213.714844 235.613281 213.996094 235.761719 214.257812 235.9375 C 214.523438 236.117188 214.769531 236.316406 214.992188 236.539062 C 215.21875 236.765625 215.417969 237.011719 215.59375 237.273438 C 215.769531 237.539062 215.921875 237.816406 216.042969 238.109375 C 216.164062 238.40625 216.253906 238.707031 216.316406 239.019531 C 216.378906 239.332031 216.410156 239.644531 216.410156 239.964844 L 216.410156 241.375 C 216.410156 241.691406 216.378906 242.003906 216.316406 242.316406 C 216.253906 242.628906 216.160156 242.929688 216.039062 243.222656 C 215.917969 243.515625 215.769531 243.796875 215.59375 244.058594 C 215.414062 244.324219 215.214844 244.566406 214.992188 244.792969 C 214.765625 245.015625 214.523438 245.214844 214.257812 245.394531 C 213.992188 245.570312 213.714844 245.71875 213.421875 245.839844 C 213.128906 245.960938 212.828125 246.054688 212.515625 246.117188 C 212.203125 246.175781 211.890625 246.207031 211.570312 246.210938 L 163.429688 246.210938 C 163.109375 246.207031 162.796875 246.175781 162.484375 246.117188 C 162.171875 246.054688 161.871094 245.960938 161.578125 245.839844 C 161.285156 245.71875 161.007812 245.570312 160.742188 245.394531 C 160.476562 245.214844 160.234375 245.015625 160.007812 244.792969 C 159.785156 244.566406 159.585938 244.324219 159.40625 244.058594 C 159.230469 243.796875 159.082031 243.515625 158.960938 243.222656 C 158.839844 242.929688 158.746094 242.628906 158.683594 242.316406 C 158.621094 242.003906 158.589844 241.691406 158.589844 241.375 L 158.589844 239.964844 C 158.589844 239.644531 158.621094 239.332031 158.683594 239.019531 C 158.746094 238.707031 158.835938 238.40625 158.957031 238.109375 C 159.078125 237.816406 159.230469 237.539062 159.40625 237.273438 C 159.582031 237.011719 159.78125 236.765625 160.007812 236.539062 C 160.230469 236.316406 160.476562 236.117188 160.742188 235.9375 C 161.003906 235.761719 161.285156 235.613281 161.578125 235.492188 C 161.871094 235.371094 162.171875 235.277344 162.484375 235.214844 C 162.796875 235.152344 163.109375 235.121094 163.429688 235.121094 Z M 189.648438 270.832031 L 185.351562 270.832031 C 184.539062 270.832031 183.730469 270.769531 182.925781 270.640625 C 182.121094 270.511719 181.328125 270.320312 180.554688 270.070312 C 179.78125 269.816406 179.03125 269.503906 178.304688 269.132812 C 177.578125 268.765625 176.886719 268.339844 176.226562 267.859375 C 175.566406 267.382812 174.949219 266.855469 174.371094 266.277344 C 173.796875 265.703125 173.269531 265.085938 172.789062 264.425781 C 172.308594 263.765625 171.886719 263.074219 171.515625 262.347656 C 171.144531 261.621094 170.832031 260.871094 170.578125 260.097656 L 204.421875 260.097656 C 204.167969 260.871094 203.855469 261.621094 203.484375 262.347656 C 203.113281 263.074219 202.691406 263.765625 202.210938 264.425781 C 201.730469 265.085938 201.203125 265.703125 200.628906 266.277344 C 200.050781 266.855469 199.433594 267.382812 198.773438 267.859375 C 198.113281 268.339844 197.421875 268.765625 196.695312 269.132812 C 195.96875 269.503906 195.21875 269.816406 194.445312 270.070312 C 193.671875 270.320312 192.878906 270.511719 192.074219 270.640625 C 191.269531 270.769531 190.460938 270.832031 189.648438 270.832031 Z M 138.480469 149.324219 C 138.605469 147.925781 138.792969 146.53125 139.035156 145.144531 C 139.28125 143.757812 139.582031 142.382812 139.941406 141.023438 C 140.304688 139.664062 140.722656 138.320312 141.195312 136.996094 C 141.671875 135.671875 142.203125 134.371094 142.785156 133.089844 C 143.371094 131.808594 144.011719 130.558594 144.703125 129.332031 C 145.394531 128.105469 146.140625 126.914062 146.933594 125.75 C 147.726562 124.589844 148.566406 123.460938 149.457031 122.371094 C 150.347656 121.28125 151.28125 120.230469 152.261719 119.21875 C 153.238281 118.207031 154.257812 117.238281 155.320312 116.316406 C 156.382812 115.390625 157.480469 114.511719 158.617188 113.683594 C 159.75 112.851562 160.921875 112.070312 162.125 111.339844 C 163.324219 110.605469 164.554688 109.925781 165.816406 109.300781 C 167.078125 108.671875 168.359375 108.101562 169.671875 107.582031 C 170.980469 107.066406 172.308594 106.605469 173.65625 106.199219 C 175.003906 105.796875 176.367188 105.449219 177.742188 105.160156 C 179.121094 104.871094 180.507812 104.640625 181.90625 104.472656 C 183.742188 104.269531 185.582031 104.167969 187.429688 104.167969 L 187.5 104.152344 L 187.570312 104.167969 C 189.414062 104.167969 191.253906 104.269531 193.085938 104.472656 C 194.484375 104.640625 195.871094 104.871094 197.25 105.160156 C 198.625 105.449219 199.988281 105.796875 201.335938 106.199219 C 202.683594 106.605469 204.011719 107.066406 205.324219 107.582031 C 206.632812 108.101562 207.917969 108.671875 209.175781 109.300781 C 210.4375 109.925781 211.667969 110.605469 212.871094 111.335938 C 214.074219 112.066406 215.242188 112.847656 216.378906 113.679688 C 217.515625 114.511719 218.613281 115.386719 219.675781 116.3125 C 220.734375 117.238281 221.757812 118.207031 222.734375 119.214844 C 223.714844 120.226562 224.648438 121.277344 225.539062 122.367188 C 226.429688 123.460938 227.269531 124.585938 228.0625 125.75 C 228.859375 126.910156 229.601562 128.105469 230.292969 129.332031 C 230.984375 130.554688 231.625 131.808594 232.210938 133.089844 C 232.796875 134.367188 233.328125 135.671875 233.800781 136.996094 C 234.277344 138.320312 234.695312 139.664062 235.054688 141.023438 C 235.414062 142.382812 235.71875 143.757812 235.960938 145.144531 C 236.207031 146.53125 236.390625 147.921875 236.515625 149.324219 C 236.804688 152.722656 236.742188 156.109375 236.320312 159.492188 C 235.902344 162.875 235.136719 166.175781 234.023438 169.398438 C 232.910156 172.621094 231.476562 175.691406 229.71875 178.613281 C 227.964844 181.53125 225.921875 184.238281 223.597656 186.734375 C 221.398438 189.058594 219.414062 191.5625 217.652344 194.238281 C 215.890625 196.914062 214.375 199.722656 213.109375 202.664062 C 211.839844 205.605469 210.839844 208.636719 210.101562 211.757812 C 209.367188 214.875 208.910156 218.03125 208.730469 221.230469 L 166.265625 221.230469 C 166.085938 218.03125 165.628906 214.875 164.894531 211.757812 C 164.160156 208.636719 163.15625 205.605469 161.890625 202.664062 C 160.621094 199.722656 159.105469 196.914062 157.34375 194.238281 C 155.582031 191.5625 153.601562 189.058594 151.398438 186.734375 C 149.074219 184.238281 147.035156 181.53125 145.277344 178.613281 C 143.519531 175.691406 142.085938 172.621094 140.976562 169.398438 C 139.863281 166.175781 139.097656 162.875 138.675781 159.492188 C 138.257812 156.109375 138.191406 152.722656 138.480469 149.324219 Z M 138.480469 149.324219 "/><path style=" stroke:none;fill-rule:nonzero;fill:#e6a823;fill-opacity:1;" d="M 179.117188 175.046875 C 179.769531 175.699219 180.519531 176.203125 181.371094 176.554688 C 182.222656 176.90625 183.105469 177.082031 184.027344 177.082031 C 184.28125 177.082031 184.53125 177.070312 184.785156 177.042969 C 185.832031 176.925781 186.800781 176.59375 187.695312 176.035156 C 188.589844 175.480469 189.320312 174.757812 189.886719 173.867188 L 214.191406 135.675781 C 214.4375 135.289062 214.644531 134.882812 214.808594 134.460938 C 214.972656 134.035156 215.09375 133.597656 215.175781 133.148438 C 215.253906 132.699219 215.289062 132.246094 215.277344 131.789062 C 215.269531 131.335938 215.214844 130.882812 215.113281 130.4375 C 215.015625 129.992188 214.875 129.5625 214.691406 129.144531 C 214.507812 128.726562 214.285156 128.332031 214.023438 127.957031 C 213.761719 127.585938 213.464844 127.242188 213.136719 126.925781 C 212.804688 126.609375 212.449219 126.328125 212.0625 126.085938 C 211.679688 125.839844 211.273438 125.636719 210.847656 125.46875 C 210.421875 125.304688 209.988281 125.183594 209.539062 125.105469 C 209.089844 125.023438 208.636719 124.988281 208.179688 125 C 207.722656 125.011719 207.273438 125.066406 206.828125 125.164062 C 206.382812 125.261719 205.953125 125.402344 205.535156 125.585938 C 205.117188 125.773438 204.722656 125.996094 204.347656 126.257812 C 203.972656 126.519531 203.628906 126.8125 203.316406 127.144531 C 203 127.472656 202.71875 127.828125 202.472656 128.214844 L 182.816406 159.105469 L 171.578125 147.867188 C 171.253906 147.554688 170.902344 147.277344 170.523438 147.03125 C 170.144531 146.785156 169.746094 146.582031 169.324219 146.414062 C 168.90625 146.246094 168.476562 146.121094 168.03125 146.039062 C 167.589844 145.953125 167.140625 145.914062 166.691406 145.917969 C 166.242188 145.921875 165.792969 145.96875 165.351562 146.0625 C 164.910156 146.152344 164.484375 146.285156 164.066406 146.460938 C 163.652344 146.632812 163.253906 146.847656 162.882812 147.097656 C 162.507812 147.347656 162.160156 147.632812 161.839844 147.953125 C 161.523438 148.273438 161.238281 148.617188 160.988281 148.992188 C 160.734375 149.367188 160.523438 149.761719 160.347656 150.179688 C 160.171875 150.59375 160.039062 151.023438 159.949219 151.464844 C 159.859375 151.90625 159.8125 152.351562 159.808594 152.804688 C 159.804688 153.253906 159.84375 153.699219 159.925781 154.144531 C 160.011719 154.585938 160.136719 155.019531 160.300781 155.4375 C 160.46875 155.855469 160.675781 156.253906 160.921875 156.632812 C 161.164062 157.011719 161.445312 157.363281 161.757812 157.6875 Z M 179.117188 175.046875 "/></g></svg>