<svg xmlns="http://www.w3.org/2000/svg" xmlns:xlink="http://www.w3.org/1999/xlink" width="500" zoomAndPan="magnify" viewBox="0 0 375 374.999991" height="500" preserveAspectRatio="xMidYMid meet" version="1.2"><defs><clipPath id="de6ac9b01c"><path d="M 16 10.136719 L 359 10.136719 L 359 350 L 16 350 Z M 16 10.136719 "/></clipPath></defs><g id="34b0f6b9d5"><g clip-rule="nonzero" clip-path="url(#de6ac9b01c)"><path style=" stroke:none;fill-rule:evenodd;fill:#e6a823;fill-opacity:1;" d="M 306.039062 267.796875 C 316.054688 267.796875 324.175781 275.917969 324.175781 285.933594 C 324.175781 295.949219 316.054688 304.070312 306.039062 304.070312 C 303.355469 304.070312 300.8125 303.488281 298.519531 302.441406 C 264.042969 336.351562 216.804688 353.449219 168.535156 349.199219 C 131.4375 345.933594 95.472656 330.148438 67.496094 302.5625 L 68.75 313.15625 C 69.113281 316.230469 66.914062 319.015625 63.839844 319.382812 C 60.761719 319.746094 57.976562 317.546875 57.613281 314.46875 L 54.3125 286.574219 C 53.878906 282.867188 57.160156 279.730469 60.890625 280.414062 L 88.0625 285.429688 C 91.105469 285.988281 93.117188 288.902344 92.558594 291.941406 C 92 294.980469 89.085938 296.992188 86.046875 296.4375 L 75.191406 294.429688 C 101.273438 320.214844 134.851562 334.96875 169.5 338.019531 C 214.304688 341.964844 258.128906 326.234375 290.253906 294.875 C 288.757812 292.234375 287.902344 289.183594 287.902344 285.933594 C 287.902344 275.917969 296.019531 267.796875 306.039062 267.796875 Z M 162.679688 70.304688 C 135.285156 70.304688 113.078125 92.511719 113.078125 119.902344 C 113.078125 130.484375 116.394531 140.289062 122.039062 148.34375 C 116.855469 153.371094 111.675781 158.402344 106.492188 163.429688 L 105.929688 162.851562 C 104.203125 161.074219 101.335938 161.03125 99.554688 162.757812 L 72.316406 189.1875 C 70.535156 190.917969 70.492188 193.785156 72.21875 195.566406 L 82.054688 205.699219 C 83.78125 207.480469 86.652344 207.523438 88.429688 205.796875 L 115.667969 179.363281 C 117.449219 177.636719 117.492188 174.769531 115.765625 172.988281 L 115.203125 172.410156 L 130.457031 157.609375 C 139.125 165.023438 150.378906 169.503906 162.679688 169.503906 C 190.070312 169.503906 212.277344 147.296875 212.277344 119.902344 C 212.28125 92.511719 190.074219 70.304688 162.679688 70.304688 Z M 162.679688 84.832031 C 182.050781 84.832031 197.753906 100.535156 197.753906 119.90625 C 197.753906 139.273438 182.050781 154.976562 162.679688 154.976562 C 143.308594 154.976562 127.605469 139.273438 127.605469 119.90625 C 127.605469 100.535156 143.308594 84.832031 162.679688 84.832031 Z M 104.214844 226.257812 C 102.28125 226.257812 100.707031 227.832031 100.707031 229.765625 L 100.707031 271.554688 C 100.707031 273.488281 102.28125 275.0625 104.214844 275.0625 L 122.636719 275.0625 C 124.570312 275.0625 126.144531 273.488281 126.144531 271.554688 L 126.144531 229.765625 C 126.144531 227.832031 124.570312 226.257812 122.636719 226.257812 Z M 245.925781 149.964844 C 243.992188 149.964844 242.417969 151.542969 242.417969 153.472656 L 242.417969 271.554688 C 242.417969 273.484375 243.992188 275.0625 245.925781 275.0625 L 264.351562 275.0625 C 266.28125 275.0625 267.859375 273.484375 267.859375 271.554688 L 267.859375 153.472656 C 267.859375 151.542969 266.28125 149.964844 264.351562 149.964844 Z M 217.113281 173.984375 L 198.691406 173.984375 C 196.757812 173.984375 195.183594 175.5625 195.183594 177.492188 L 195.183594 271.554688 C 195.183594 273.484375 196.757812 275.0625 198.691406 275.0625 L 217.113281 275.0625 C 219.046875 275.0625 220.621094 273.484375 220.621094 271.554688 L 220.621094 177.492188 C 220.621094 175.5625 219.046875 173.984375 217.113281 173.984375 Z M 169.875 200.6875 C 163.734375 200.6875 157.59375 200.6875 151.453125 200.6875 C 149.519531 200.6875 147.945312 202.261719 147.945312 204.195312 C 147.945312 228.0625 147.945312 247.683594 147.945312 271.554688 C 147.945312 273.488281 149.519531 275.0625 151.453125 275.0625 C 157.59375 275.0625 163.734375 275.0625 169.875 275.0625 C 171.808594 275.0625 173.382812 273.488281 173.382812 271.554688 C 173.382812 247.683594 173.382812 228.0625 173.382812 204.195312 C 173.382812 202.261719 171.808594 200.6875 169.875 200.6875 Z M 23.589844 226.671875 C 16.355469 198.820312 16.601562 169.632812 24.019531 142.15625 C 39.011719 86.625 82.183594 42.890625 137.121094 27.027344 L 129.335938 24.261719 C 126.417969 23.234375 124.886719 20.035156 125.917969 17.117188 C 126.945312 14.199219 130.144531 12.667969 133.0625 13.695312 L 159.105469 22.9375 C 162.691406 24.203125 163.972656 28.574219 161.730469 31.574219 L 144.933594 54.085938 C 143.078125 56.566406 139.566406 57.078125 137.082031 55.226562 C 134.601562 53.375 134.089844 49.859375 135.941406 47.378906 L 143.863281 36.769531 C 91.03125 50.660156 49.179688 91.964844 34.851562 145.050781 C 27.980469 170.5 27.695312 197.503906 34.285156 223.285156 C 44.238281 223.359375 52.28125 231.449219 52.28125 241.421875 C 52.28125 251.4375 44.160156 259.558594 34.144531 259.558594 C 24.128906 259.558594 16.007812 251.4375 16.007812 241.421875 C 16.007812 235.339844 19 229.960938 23.589844 226.671875 Z M 349.109375 219.226562 C 351.460938 217.214844 354.992188 217.492188 357.003906 219.839844 C 359.011719 222.1875 358.738281 225.722656 356.390625 227.734375 L 335.367188 245.664062 C 332.484375 248.128906 328.058594 247.050781 326.582031 243.621094 L 315.480469 217.816406 C 314.257812 214.972656 315.574219 211.675781 318.421875 210.453125 C 321.265625 209.230469 324.5625 210.542969 325.785156 213.390625 L 330.992188 225.503906 C 336.886719 203.777344 337.972656 180.886719 334.070312 158.578125 C 323.882812 100.375 280.976562 53.234375 224.292969 37.429688 C 221.140625 42.792969 215.316406 46.394531 208.644531 46.394531 C 198.628906 46.394531 190.507812 38.273438 190.507812 28.257812 C 190.507812 18.242188 198.628906 10.121094 208.644531 10.121094 C 218.0625 10.121094 225.800781 17.296875 226.695312 26.476562 C 287.78125 43.253906 334.152344 93.992188 345.117188 156.648438 C 349.074219 179.257812 348.242188 202.441406 342.78125 224.628906 Z M 349.109375 219.226562 "/></g></g></svg>