<svg xmlns="http://www.w3.org/2000/svg" xmlns:xlink="http://www.w3.org/1999/xlink" width="500" zoomAndPan="magnify" viewBox="0 0 375 374.999991" height="500" preserveAspectRatio="xMidYMid meet" version="1.2"><g id="ae4fe8d162"><path style=" stroke:none;fill-rule:nonzero;fill:#e6a823;fill-opacity:1;" d="M 348.152344 128.359375 C 350.386719 126.121094 352.464844 123.75 354.378906 121.234375 C 356.296875 118.722656 358.035156 116.089844 359.601562 113.34375 C 361.164062 110.597656 362.535156 107.757812 363.71875 104.828125 C 364.902344 101.894531 365.882812 98.898438 366.664062 95.835938 C 367.445312 92.773438 368.015625 89.671875 368.378906 86.53125 C 368.742188 83.390625 368.898438 80.242188 368.839844 77.082031 C 368.78125 73.921875 368.511719 70.777344 368.03125 67.65625 C 367.550781 64.53125 366.863281 61.453125 365.96875 58.421875 C 365.878906 58.109375 365.765625 57.800781 365.632812 57.503906 C 365.503906 57.203125 365.351562 56.914062 365.183594 56.636719 C 365.015625 56.355469 364.828125 56.089844 364.625 55.835938 C 364.421875 55.582031 364.203125 55.339844 363.96875 55.113281 C 363.734375 54.886719 363.484375 54.675781 363.222656 54.480469 C 362.960938 54.285156 362.6875 54.109375 362.402344 53.953125 C 362.117188 53.792969 361.824219 53.652344 361.519531 53.53125 C 361.21875 53.410156 360.90625 53.308594 360.589844 53.230469 C 360.277344 53.148438 359.957031 53.085938 359.632812 53.046875 C 359.308594 53.007812 358.984375 52.992188 358.65625 52.992188 C 358.332031 52.996094 358.003906 53.019531 357.683594 53.066406 C 357.359375 53.109375 357.039062 53.175781 356.726562 53.261719 C 356.410156 53.347656 356.101562 53.453125 355.800781 53.578125 C 355.5 53.707031 355.210938 53.851562 354.925781 54.015625 C 354.644531 54.175781 354.375 54.359375 354.117188 54.558594 C 353.855469 54.757812 353.613281 54.972656 353.382812 55.203125 L 322.386719 86.179688 L 295.035156 81.648438 L 290.5 54.296875 L 321.480469 23.300781 C 321.714844 23.070312 321.933594 22.824219 322.132812 22.5625 C 322.335938 22.304688 322.519531 22.03125 322.6875 21.746094 C 322.855469 21.460938 323 21.167969 323.128906 20.867188 C 323.257812 20.5625 323.363281 20.25 323.453125 19.933594 C 323.539062 19.617188 323.605469 19.292969 323.652344 18.96875 C 323.695312 18.640625 323.71875 18.316406 323.722656 17.984375 C 323.726562 17.65625 323.707031 17.328125 323.664062 17 C 323.625 16.675781 323.5625 16.351562 323.480469 16.03125 C 323.398438 15.714844 323.296875 15.402344 323.171875 15.097656 C 323.046875 14.792969 322.90625 14.496094 322.742188 14.207031 C 322.582031 13.921875 322.402344 13.648438 322.203125 13.382812 C 322.003906 13.121094 321.789062 12.871094 321.558594 12.636719 C 321.328125 12.402344 321.085938 12.183594 320.824219 11.980469 C 320.566406 11.777344 320.292969 11.589844 320.011719 11.425781 C 319.726562 11.257812 319.433594 11.109375 319.132812 10.980469 C 318.828125 10.851562 318.519531 10.742188 318.203125 10.652344 C 315.054688 9.722656 311.859375 9.019531 308.613281 8.535156 C 305.371094 8.050781 302.105469 7.796875 298.828125 7.765625 C 295.546875 7.738281 292.28125 7.9375 289.027344 8.367188 C 285.773438 8.792969 282.566406 9.441406 279.40625 10.316406 C 276.242188 11.191406 273.15625 12.28125 270.144531 13.585938 C 267.136719 14.890625 264.230469 16.394531 261.429688 18.105469 C 258.628906 19.8125 255.960938 21.710938 253.425781 23.789062 C 250.890625 25.871094 248.511719 28.121094 246.289062 30.53125 C 244.066406 32.945312 242.023438 35.5 240.15625 38.199219 C 238.289062 40.894531 236.617188 43.710938 235.144531 46.640625 C 233.671875 49.570312 232.40625 52.589844 231.351562 55.699219 C 230.300781 58.804688 229.46875 61.96875 228.855469 65.191406 C 228.242188 68.414062 227.855469 71.664062 227.699219 74.941406 C 227.539062 78.21875 227.609375 81.492188 227.90625 84.757812 C 228.203125 88.023438 228.722656 91.253906 229.472656 94.449219 C 230.21875 97.644531 231.183594 100.769531 232.367188 103.832031 L 191.125 145.070312 L 151.578125 105.523438 L 168.808594 88.296875 C 169.335938 87.757812 169.773438 87.15625 170.125 86.488281 C 170.472656 85.820312 170.71875 85.113281 170.863281 84.375 C 171.003906 83.632812 171.035156 82.890625 170.960938 82.140625 C 170.882812 81.390625 170.699219 80.664062 170.410156 79.96875 C 169.695312 78.113281 169.214844 76.199219 168.96875 74.222656 C 168.722656 72.25 168.714844 70.277344 168.953125 68.300781 C 169.1875 66.324219 169.65625 64.40625 170.359375 62.546875 C 171.066406 60.6875 171.984375 58.9375 173.113281 57.300781 C 179.820312 48.804688 187.878906 41.886719 197.292969 36.539062 C 197.554688 36.402344 197.808594 36.25 198.054688 36.082031 C 198.300781 35.914062 198.535156 35.730469 198.757812 35.535156 C 198.980469 35.339844 199.191406 35.132812 199.390625 34.914062 C 199.589844 34.691406 199.777344 34.460938 199.949219 34.21875 C 200.121094 33.976562 200.277344 33.726562 200.417969 33.464844 C 200.5625 33.203125 200.6875 32.9375 200.796875 32.660156 C 200.910156 32.386719 201.003906 32.105469 201.082031 31.816406 C 201.15625 31.53125 201.21875 31.242188 201.261719 30.949219 C 201.304688 30.652344 201.332031 30.359375 201.339844 30.0625 C 201.347656 29.765625 201.339844 29.46875 201.3125 29.171875 C 201.285156 28.878906 201.242188 28.585938 201.179688 28.292969 C 201.121094 28.003906 201.042969 27.71875 200.949219 27.4375 C 200.851562 27.15625 200.742188 26.878906 200.617188 26.613281 C 200.488281 26.34375 200.347656 26.082031 200.1875 25.832031 C 200.03125 25.582031 199.859375 25.339844 199.671875 25.109375 C 199.488281 24.875 199.289062 24.65625 199.074219 24.449219 C 198.683594 24.054688 158.96875 -14.523438 114.449219 30.101562 L 8.367188 136.230469 C 8.015625 136.582031 7.703125 136.964844 7.425781 137.375 C 7.152344 137.789062 6.917969 138.222656 6.726562 138.683594 C 6.539062 139.140625 6.394531 139.613281 6.296875 140.097656 C 6.203125 140.585938 6.152344 141.078125 6.152344 141.574219 C 6.152344 142.070312 6.203125 142.558594 6.296875 143.046875 C 6.394531 143.53125 6.539062 144.003906 6.726562 144.464844 C 6.917969 144.921875 7.152344 145.359375 7.425781 145.769531 C 7.703125 146.183594 8.015625 146.5625 8.367188 146.914062 L 53.957031 192.507812 C 54.308594 192.859375 54.691406 193.171875 55.101562 193.445312 C 55.515625 193.722656 55.949219 193.953125 56.410156 194.144531 C 56.867188 194.335938 57.339844 194.476562 57.824219 194.574219 C 58.3125 194.671875 58.804688 194.71875 59.300781 194.71875 C 59.796875 194.71875 60.285156 194.671875 60.773438 194.574219 C 61.261719 194.476562 61.730469 194.335938 62.191406 194.144531 C 62.648438 193.953125 63.085938 193.722656 63.496094 193.445312 C 63.910156 193.171875 64.289062 192.859375 64.640625 192.507812 L 104.386719 152.671875 L 143.976562 192.21875 L 102.210938 233.988281 C 99.148438 232.804688 96.023438 231.839844 92.828125 231.09375 C 89.632812 230.34375 86.402344 229.824219 83.136719 229.527344 C 79.867188 229.230469 76.597656 229.160156 73.320312 229.320312 C 70.042969 229.480469 66.792969 229.863281 63.570312 230.476562 C 60.347656 231.089844 57.183594 231.921875 54.074219 232.976562 C 50.96875 234.027344 47.949219 235.292969 45.019531 236.765625 C 42.089844 238.242188 39.273438 239.910156 36.578125 241.777344 C 33.878906 243.644531 31.324219 245.6875 28.910156 247.910156 C 26.496094 250.132812 24.25 252.511719 22.167969 255.046875 C 20.085938 257.585938 18.191406 260.253906 16.484375 263.054688 C 14.773438 265.851562 13.265625 268.757812 11.960938 271.769531 C 10.660156 274.777344 9.570312 277.863281 8.695312 281.027344 C 7.820312 284.1875 7.171875 287.394531 6.742188 290.648438 C 6.316406 293.902344 6.117188 297.167969 6.144531 300.449219 C 6.175781 303.730469 6.429688 306.992188 6.914062 310.238281 C 7.394531 313.480469 8.101562 316.675781 9.03125 319.824219 C 9.121094 320.136719 9.234375 320.441406 9.367188 320.742188 C 9.496094 321.039062 9.648438 321.328125 9.816406 321.605469 C 9.984375 321.886719 10.171875 322.152344 10.375 322.410156 C 10.578125 322.664062 10.796875 322.902344 11.03125 323.128906 C 11.265625 323.355469 11.515625 323.566406 11.777344 323.761719 C 12.039062 323.957031 12.3125 324.132812 12.597656 324.292969 C 12.882812 324.453125 13.175781 324.589844 13.480469 324.710938 C 13.78125 324.832031 14.09375 324.933594 14.410156 325.015625 C 14.722656 325.097656 15.042969 325.15625 15.367188 325.195312 C 15.691406 325.234375 16.015625 325.253906 16.34375 325.25 C 16.667969 325.246094 16.996094 325.222656 17.316406 325.179688 C 17.640625 325.132812 17.960938 325.070312 18.273438 324.984375 C 18.589844 324.898438 18.898438 324.789062 19.199219 324.664062 C 19.5 324.539062 19.789062 324.394531 20.074219 324.230469 C 20.355469 324.066406 20.625 323.886719 20.882812 323.6875 C 21.144531 323.488281 21.386719 323.273438 21.617188 323.042969 L 52.613281 292.0625 L 79.964844 296.597656 L 84.5 323.949219 L 53.519531 354.941406 C 53.289062 355.175781 53.074219 355.417969 52.875 355.675781 C 52.675781 355.9375 52.496094 356.207031 52.332031 356.488281 C 52.167969 356.769531 52.023438 357.0625 51.898438 357.363281 C 51.769531 357.664062 51.664062 357.972656 51.578125 358.285156 C 51.492188 358.601562 51.425781 358.921875 51.382812 359.242188 C 51.335938 359.566406 51.3125 359.890625 51.3125 360.21875 C 51.308594 360.542969 51.328125 360.871094 51.367188 361.191406 C 51.40625 361.515625 51.464844 361.835938 51.546875 362.152344 C 51.628906 362.46875 51.726562 362.777344 51.847656 363.082031 C 51.96875 363.382812 52.109375 363.679688 52.269531 363.964844 C 52.429688 364.25 52.605469 364.523438 52.800781 364.785156 C 52.992188 365.046875 53.203125 365.292969 53.429688 365.527344 C 53.65625 365.765625 53.898438 365.984375 54.152344 366.1875 C 54.40625 366.390625 54.675781 366.578125 54.953125 366.746094 C 55.234375 366.914062 55.523438 367.0625 55.820312 367.195312 C 56.121094 367.328125 56.425781 367.4375 56.738281 367.53125 C 59.882812 368.460938 63.082031 369.164062 66.324219 369.648438 C 69.570312 370.132812 72.832031 370.386719 76.113281 370.414062 C 79.394531 370.445312 82.660156 370.246094 85.914062 369.816406 C 89.164062 369.390625 92.371094 368.742188 95.535156 367.867188 C 98.695312 366.992188 101.78125 365.902344 104.792969 364.597656 C 107.804688 363.292969 110.707031 361.789062 113.507812 360.078125 C 116.308594 358.367188 118.976562 356.472656 121.511719 354.390625 C 124.046875 352.3125 126.429688 350.0625 128.652344 347.652344 C 130.875 345.238281 132.917969 342.683594 134.785156 339.984375 C 136.652344 337.289062 138.320312 334.472656 139.796875 331.542969 C 141.269531 328.613281 142.535156 325.59375 143.585938 322.484375 C 144.640625 319.378906 145.472656 316.214844 146.085938 312.992188 C 146.695312 309.769531 147.082031 306.519531 147.242188 303.242188 C 147.402344 299.964844 147.332031 296.691406 147.035156 293.425781 C 146.738281 290.160156 146.214844 286.925781 145.46875 283.734375 C 144.722656 280.539062 143.757812 277.410156 142.574219 274.351562 L 184.476562 232.644531 L 311.898438 360.066406 C 313.425781 361.597656 315.089844 362.964844 316.886719 364.167969 C 318.683594 365.371094 320.582031 366.386719 322.578125 367.214844 C 324.578125 368.042969 326.636719 368.667969 328.757812 369.085938 C 330.882812 369.503906 333.023438 369.710938 335.1875 369.707031 C 337.40625 369.703125 339.601562 369.480469 341.777344 369.042969 C 343.953125 368.605469 346.0625 367.960938 348.109375 367.105469 C 350.15625 366.25 352.101562 365.207031 353.941406 363.96875 C 355.785156 362.730469 357.484375 361.324219 359.046875 359.75 C 359.8125 358.980469 360.535156 358.175781 361.222656 357.335938 C 361.90625 356.496094 362.546875 355.625 363.148438 354.71875 C 363.746094 353.816406 364.300781 352.886719 364.8125 351.929688 C 365.320312 350.972656 365.78125 349.996094 366.195312 348.992188 C 366.605469 347.992188 366.96875 346.96875 367.28125 345.933594 C 367.597656 344.894531 367.859375 343.84375 368.066406 342.78125 C 368.277344 341.71875 368.4375 340.648438 368.542969 339.570312 C 368.648438 338.492188 368.699219 337.410156 368.699219 336.324219 C 368.699219 335.242188 368.648438 334.160156 368.542969 333.082031 C 368.4375 332.003906 368.277344 330.933594 368.066406 329.867188 C 367.859375 328.804688 367.597656 327.753906 367.28125 326.71875 C 366.96875 325.679688 366.605469 324.660156 366.195312 323.660156 C 365.78125 322.65625 365.320312 321.675781 364.8125 320.71875 C 364.300781 319.761719 363.746094 318.832031 363.148438 317.929688 C 362.546875 317.027344 361.90625 316.15625 361.222656 315.316406 C 360.535156 314.476562 359.8125 313.671875 359.046875 312.902344 L 231.550781 185.496094 L 272.789062 144.253906 C 274.375 144.867188 275.976562 145.417969 277.601562 145.914062 C 279.226562 146.410156 280.867188 146.84375 282.519531 147.222656 C 284.175781 147.597656 285.84375 147.914062 287.519531 148.171875 C 289.199219 148.429688 290.882812 148.625 292.574219 148.761719 C 294.269531 148.898438 295.960938 148.972656 297.660156 148.984375 C 299.359375 149 301.054688 148.953125 302.746094 148.84375 C 304.441406 148.734375 306.128906 148.566406 307.8125 148.335938 C 309.492188 148.105469 311.164062 147.816406 312.824219 147.464844 C 314.488281 147.113281 316.132812 146.707031 317.765625 146.234375 C 319.394531 145.765625 321.007812 145.242188 322.601562 144.65625 C 324.195312 144.070312 325.765625 143.429688 327.3125 142.730469 C 328.859375 142.03125 330.382812 141.28125 331.875 140.472656 C 333.367188 139.664062 334.828125 138.804688 336.261719 137.890625 C 337.691406 136.976562 339.089844 136.015625 340.449219 135 C 341.8125 133.988281 343.136719 132.925781 344.421875 131.816406 C 345.707031 130.710938 346.949219 129.554688 348.152344 128.359375 Z M 125.117188 40.800781 C 148.964844 16.96875 169.683594 22.894531 180.609375 29.332031 C 173.082031 34.652344 166.535156 40.984375 160.964844 48.324219 C 159.296875 50.648438 157.898438 53.121094 156.777344 55.75 C 155.65625 58.378906 154.832031 61.101562 154.3125 63.910156 C 153.789062 66.722656 153.578125 69.554688 153.679688 72.414062 C 153.785156 75.269531 154.195312 78.082031 154.917969 80.847656 L 86.660156 149.074219 L 51.765625 114.167969 Z M 59.308594 176.429688 L 24.398438 141.535156 L 41.023438 124.910156 L 75.914062 159.820312 Z M 128.335938 267.339844 C 127.785156 267.890625 127.328125 268.511719 126.964844 269.203125 C 126.601562 269.894531 126.355469 270.625 126.21875 271.390625 C 126.085938 272.160156 126.070312 272.929688 126.171875 273.703125 C 126.277344 274.476562 126.492188 275.21875 126.828125 275.921875 C 127.4375 277.207031 128 278.515625 128.511719 279.84375 C 129.023438 281.171875 129.484375 282.519531 129.894531 283.882812 C 130.300781 285.246094 130.65625 286.621094 130.960938 288.011719 C 131.261719 289.40625 131.511719 290.804688 131.707031 292.214844 C 131.902344 293.625 132.042969 295.039062 132.128906 296.460938 C 132.21875 297.882812 132.25 299.304688 132.226562 300.726562 C 132.203125 302.152344 132.125 303.570312 131.996094 304.988281 C 131.863281 306.40625 131.675781 307.816406 131.4375 309.21875 C 131.199219 310.625 130.902344 312.015625 130.558594 313.394531 C 130.210938 314.777344 129.8125 316.140625 129.359375 317.492188 C 128.90625 318.839844 128.40625 320.171875 127.851562 321.484375 C 127.296875 322.792969 126.691406 324.082031 126.039062 325.347656 C 125.386719 326.613281 124.6875 327.851562 123.9375 329.0625 C 123.191406 330.273438 122.398438 331.453125 121.558594 332.605469 C 120.722656 333.753906 119.839844 334.871094 118.914062 335.953125 C 117.992188 337.035156 117.027344 338.082031 116.019531 339.089844 C 113.289062 341.757812 110.320312 344.128906 107.113281 346.203125 C 103.90625 348.277344 100.523438 350.011719 96.972656 351.40625 C 93.417969 352.804688 89.757812 353.835938 86 354.5 C 82.238281 355.160156 78.449219 355.445312 74.628906 355.351562 L 98.007812 331.929688 C 98.871094 331.066406 99.492188 330.050781 99.863281 328.890625 C 100.238281 327.726562 100.324219 326.542969 100.125 325.339844 L 93.972656 288.859375 C 93.84375 288.082031 93.597656 287.34375 93.238281 286.644531 C 92.878906 285.945312 92.421875 285.316406 91.863281 284.757812 C 91.304688 284.203125 90.679688 283.742188 89.976562 283.382812 C 89.277344 283.023438 88.539062 282.777344 87.761719 282.648438 L 51.28125 276.496094 C 50.078125 276.296875 48.894531 276.382812 47.730469 276.757812 C 46.570312 277.128906 45.558594 277.75 44.695312 278.613281 L 21.269531 301.992188 C 21.222656 300.804688 21.214844 299.613281 21.246094 298.425781 C 21.277344 297.238281 21.34375 296.050781 21.449219 294.867188 C 21.554688 293.683594 21.699219 292.503906 21.882812 291.328125 C 22.0625 290.152344 22.285156 288.984375 22.539062 287.824219 C 22.796875 286.664062 23.089844 285.511719 23.421875 284.371094 C 23.753906 283.230469 24.121094 282.097656 24.523438 280.980469 C 24.929688 279.863281 25.367188 278.757812 25.84375 277.667969 C 26.316406 276.578125 26.824219 275.503906 27.371094 274.445312 C 27.914062 273.390625 28.492188 272.351562 29.101562 271.332031 C 29.710938 270.3125 30.355469 269.3125 31.027344 268.332031 C 31.703125 267.351562 32.410156 266.398438 33.144531 265.464844 C 33.882812 264.53125 34.644531 263.621094 35.441406 262.734375 C 36.234375 261.851562 37.058594 260.992188 37.90625 260.164062 C 38.757812 259.332031 39.632812 258.527344 40.535156 257.75 C 41.433594 256.976562 42.359375 256.230469 43.308594 255.515625 C 44.257812 254.800781 45.230469 254.113281 46.222656 253.460938 C 47.21875 252.808594 48.230469 252.1875 49.265625 251.597656 C 50.296875 251.011719 51.347656 250.457031 52.417969 249.9375 C 53.484375 249.414062 54.570312 248.929688 55.671875 248.476562 C 56.769531 248.027344 57.882812 247.613281 59.011719 247.234375 C 60.136719 246.851562 61.273438 246.511719 62.421875 246.203125 C 63.574219 245.898438 64.730469 245.628906 65.894531 245.398438 C 67.0625 245.164062 68.234375 244.96875 69.414062 244.8125 C 70.589844 244.65625 71.773438 244.539062 72.960938 244.457031 C 74.144531 244.378906 75.332031 244.335938 76.523438 244.332031 C 77.710938 244.328125 78.898438 244.359375 80.085938 244.433594 C 81.273438 244.503906 82.457031 244.617188 83.636719 244.765625 C 84.816406 244.910156 85.988281 245.097656 87.15625 245.320312 C 88.324219 245.546875 89.484375 245.804688 90.636719 246.105469 C 91.785156 246.402344 92.925781 246.738281 94.054688 247.109375 C 95.183594 247.480469 96.300781 247.886719 97.40625 248.332031 C 98.507812 248.773438 99.59375 249.253906 100.667969 249.765625 C 101.375 250.097656 102.113281 250.316406 102.886719 250.417969 C 103.660156 250.523438 104.429688 250.507812 105.199219 250.371094 C 105.96875 250.238281 106.699219 249.988281 107.390625 249.625 C 108.082031 249.265625 108.703125 248.808594 109.25 248.253906 L 154.585938 202.917969 L 173.640625 221.976562 Z M 347.972656 349.382812 C 347.554688 349.796875 347.117188 350.195312 346.660156 350.566406 C 346.207031 350.941406 345.734375 351.292969 345.242188 351.621094 C 344.753906 351.945312 344.246094 352.25 343.726562 352.527344 C 343.207031 352.804688 342.675781 353.058594 342.128906 353.28125 C 341.585938 353.507812 341.03125 353.707031 340.464844 353.878906 C 339.902344 354.046875 339.332031 354.191406 338.753906 354.304688 C 338.171875 354.421875 337.589844 354.507812 337.003906 354.566406 C 336.417969 354.625 335.828125 354.652344 335.238281 354.652344 C 334.648438 354.652344 334.0625 354.625 333.476562 354.566406 C 332.886719 354.507812 332.304688 354.421875 331.726562 354.304688 C 331.148438 354.191406 330.578125 354.046875 330.015625 353.878906 C 329.449219 353.707031 328.894531 353.507812 328.351562 353.28125 C 327.804688 353.058594 327.273438 352.804688 326.753906 352.527344 C 326.234375 352.25 325.726562 351.945312 325.238281 351.621094 C 324.746094 351.292969 324.273438 350.941406 323.816406 350.566406 C 323.363281 350.195312 322.925781 349.796875 322.507812 349.382812 L 115.113281 141.988281 L 140.894531 116.207031 L 348.289062 323.617188 C 348.707031 324.042969 349.105469 324.488281 349.480469 324.953125 C 349.855469 325.417969 350.207031 325.898438 350.535156 326.398438 C 350.863281 326.898438 351.164062 327.414062 351.441406 327.941406 C 351.71875 328.472656 351.96875 329.015625 352.191406 329.570312 C 352.414062 330.125 352.609375 330.6875 352.777344 331.261719 C 352.945312 331.835938 353.082031 332.414062 353.195312 333.003906 C 353.304688 333.589844 353.382812 334.179688 353.4375 334.777344 C 353.488281 335.371094 353.507812 335.96875 353.503906 336.566406 C 353.496094 337.164062 353.457031 337.757812 353.390625 338.351562 C 353.324219 338.945312 353.230469 339.535156 353.105469 340.121094 C 352.980469 340.703125 352.828125 341.28125 352.648438 341.851562 C 352.464844 342.417969 352.257812 342.976562 352.019531 343.527344 C 351.78125 344.074219 351.519531 344.609375 351.230469 345.132812 C 350.941406 345.65625 350.625 346.164062 350.285156 346.65625 C 349.945312 347.144531 349.582031 347.621094 349.195312 348.074219 C 348.808594 348.53125 348.402344 348.964844 347.972656 349.382812 Z M 265.71875 129.960938 L 220.867188 174.8125 L 201.8125 155.753906 L 246.664062 110.902344 C 247.214844 110.355469 247.671875 109.734375 248.035156 109.042969 C 248.398438 108.351562 248.644531 107.621094 248.78125 106.851562 C 248.914062 106.082031 248.929688 105.3125 248.828125 104.539062 C 248.722656 103.765625 248.507812 103.027344 248.171875 102.320312 C 247.5625 101.035156 247 99.726562 246.488281 98.398438 C 245.976562 97.070312 245.515625 95.726562 245.105469 94.363281 C 244.699219 93 244.34375 91.621094 244.039062 90.230469 C 243.738281 88.839844 243.488281 87.4375 243.292969 86.027344 C 243.097656 84.617188 242.957031 83.203125 242.871094 81.78125 C 242.78125 80.359375 242.75 78.9375 242.773438 77.515625 C 242.796875 76.09375 242.875 74.671875 243.003906 73.253906 C 243.136719 71.835938 243.324219 70.425781 243.5625 69.023438 C 243.800781 67.621094 244.097656 66.230469 244.441406 64.847656 C 244.789062 63.46875 245.1875 62.101562 245.640625 60.753906 C 246.09375 59.402344 246.59375 58.070312 247.148438 56.761719 C 247.703125 55.449219 248.308594 54.160156 248.960938 52.894531 C 249.613281 51.628906 250.3125 50.390625 251.0625 49.179688 C 251.808594 47.96875 252.601562 46.789062 253.441406 45.640625 C 254.277344 44.488281 255.160156 43.371094 256.085938 42.289062 C 257.007812 41.207031 257.972656 40.160156 258.980469 39.152344 C 261.714844 36.492188 264.6875 34.128906 267.898438 32.058594 C 271.105469 29.992188 274.488281 28.257812 278.039062 26.863281 C 281.59375 25.46875 285.25 24.433594 289.007812 23.765625 C 292.765625 23.097656 296.554688 22.808594 300.371094 22.894531 L 276.992188 46.316406 C 276.128906 47.179688 275.507812 48.191406 275.136719 49.355469 C 274.761719 50.515625 274.675781 51.699219 274.875 52.90625 L 281.027344 89.382812 C 281.15625 90.160156 281.402344 90.898438 281.761719 91.601562 C 282.121094 92.300781 282.578125 92.929688 283.136719 93.484375 C 283.695312 94.042969 284.320312 94.5 285.023438 94.859375 C 285.722656 95.222656 286.460938 95.464844 287.238281 95.59375 L 323.71875 101.746094 C 324.921875 101.945312 326.105469 101.859375 327.269531 101.488281 C 328.429688 101.113281 329.441406 100.496094 330.304688 99.628906 L 353.730469 76.253906 C 353.777344 77.441406 353.785156 78.628906 353.753906 79.816406 C 353.726562 81.003906 353.65625 82.191406 353.550781 83.375 C 353.445312 84.558594 353.300781 85.738281 353.121094 86.914062 C 352.9375 88.089844 352.71875 89.257812 352.464844 90.417969 C 352.207031 91.578125 351.914062 92.730469 351.582031 93.871094 C 351.25 95.015625 350.882812 96.144531 350.480469 97.261719 C 350.078125 98.382812 349.640625 99.484375 349.164062 100.574219 C 348.691406 101.664062 348.179688 102.738281 347.636719 103.796875 C 347.09375 104.855469 346.515625 105.894531 345.90625 106.914062 C 345.296875 107.933594 344.65625 108.933594 343.980469 109.914062 C 343.304688 110.890625 342.601562 111.847656 341.863281 112.78125 C 341.128906 113.714844 340.363281 114.625 339.570312 115.507812 C 338.773438 116.394531 337.953125 117.25 337.101562 118.082031 C 336.253906 118.914062 335.378906 119.71875 334.476562 120.492188 C 333.574219 121.269531 332.648438 122.015625 331.703125 122.730469 C 330.753906 123.445312 329.78125 124.128906 328.789062 124.785156 C 327.792969 125.4375 326.78125 126.058594 325.75 126.648438 C 324.714844 127.234375 323.664062 127.789062 322.59375 128.308594 C 321.527344 128.832031 320.441406 129.316406 319.34375 129.769531 C 318.242188 130.21875 317.128906 130.632812 316.003906 131.011719 C 314.875 131.394531 313.738281 131.734375 312.589844 132.042969 C 311.441406 132.347656 310.28125 132.617188 309.117188 132.847656 C 307.949219 133.082031 306.777344 133.277344 305.601562 133.433594 C 304.421875 133.589844 303.238281 133.707031 302.054688 133.789062 C 300.867188 133.867188 299.679688 133.910156 298.492188 133.914062 C 297.300781 133.917969 296.113281 133.882812 294.925781 133.8125 C 293.742188 133.738281 292.558594 133.628906 291.378906 133.480469 C 290.199219 133.332031 289.023438 133.148438 287.855469 132.921875 C 286.6875 132.699219 285.53125 132.4375 284.378906 132.140625 C 283.226562 131.84375 282.089844 131.507812 280.960938 131.136719 C 279.828125 130.765625 278.714844 130.355469 277.609375 129.914062 C 276.507812 129.46875 275.417969 128.992188 274.347656 128.476562 C 273.640625 128.140625 272.898438 127.914062 272.121094 127.804688 C 271.34375 127.695312 270.570312 127.710938 269.796875 127.84375 C 269.023438 127.972656 268.289062 128.222656 267.59375 128.582031 C 266.894531 128.945312 266.273438 129.402344 265.71875 129.960938 Z M 265.71875 129.960938 "/></g></svg>