<svg xmlns="http://www.w3.org/2000/svg" xmlns:xlink="http://www.w3.org/1999/xlink" width="500" zoomAndPan="magnify" viewBox="0 0 375 374.999991" height="500" preserveAspectRatio="xMidYMid meet" version="1.2"><defs><clipPath id="23ade12760"><path d="M 22 31.40625 L 363 31.40625 L 363 374.90625 L 22 374.90625 Z M 22 31.40625 "/></clipPath></defs><g id="5bc95a0b6b"><g clip-rule="nonzero" clip-path="url(#23ade12760)"><path style=" stroke:none;fill-rule:nonzero;fill:#e6a823;fill-opacity:1;" d="M 196.535156 31.40625 C 160.710938 31.257812 124.792969 42.210938 94.28125 64.28125 C 20.632812 117.5625 1.375 217.855469 47.714844 294.214844 L 33.015625 299.945312 C 30.25 301.03125 27.980469 304.660156 28.230469 307.613281 C 28.472656 310.578125 31.296875 313.769531 34.207031 314.378906 L 72.234375 322.34375 C 74.109375 322.742188 76.335938 322.3125 77.933594 321.257812 C 77.707031 321.414062 78.183594 321.09375 78.269531 321.03125 C 78.292969 321 78.316406 320.984375 78.347656 320.953125 C 79.925781 319.757812 81.074219 317.738281 81.292969 315.785156 L 85.625 277.179688 C 85.953125 274.222656 83.804688 270.542969 81.066406 269.390625 C 78.332031 268.234375 74.1875 269.25 72.296875 271.535156 L 61.546875 284.542969 C 20.46875 215.765625 38.089844 125.710938 104.210938 77.871094 C 159.15625 38.128906 233.46875 38.347656 288.171875 78.417969 C 288.25 78.472656 288.3125 78.542969 288.335938 78.628906 L 288.382812 78.597656 C 291.335938 81.042969 295.566406 81.105469 298.6875 78.839844 C 302.464844 76.09375 303.238281 70.972656 300.5 67.175781 C 299.890625 66.335938 299.1875 65.625 298.5 65.148438 L 298.5 65.117188 C 298.484375 65.117188 298.484375 65.117188 298.46875 65.117188 C 268.15625 42.796875 232.371094 31.554688 196.535156 31.40625 Z M 287.742188 79.238281 L 287.742188 79.285156 L 287.789062 79.285156 L 287.835938 79.238281 C 287.804688 79.238281 287.773438 79.238281 287.742188 79.238281 Z M 190.617188 79.511719 C 189.222656 79.535156 187.957031 79.636719 186.714844 79.707031 C 186.667969 79.707031 186.613281 79.707031 186.558594 79.707031 C 179.617188 79.878906 173.390625 84.078125 170.578125 90.363281 C 170.578125 90.394531 170.570312 90.425781 170.5625 90.457031 L 170.53125 90.488281 C 170.515625 90.527344 170.476562 90.652344 170.367188 90.902344 C 170.351562 90.949219 170.328125 90.996094 170.304688 91.042969 C 167.214844 97.796875 165.464844 105.304688 163.855469 113.167969 C 163.503906 114.828125 162.34375 116.21875 160.765625 116.859375 C 160.515625 116.960938 160.171875 117.125 159.726562 117.320312 C 158.132812 117.992188 156.316406 117.820312 154.878906 116.859375 C 148.15625 112.410156 141.636719 108.257812 134.628906 105.664062 C 134.277344 105.53125 133.558594 105.375 134.503906 105.632812 C 134.355469 105.601562 134.207031 105.554688 134.058594 105.507812 C 127.640625 103.066406 120.324219 104.484375 115.320312 109.230469 C 115.273438 109.261719 115.226562 109.292969 115.179688 109.324219 C 114.199219 110.199219 113.253906 111.011719 112.238281 111.996094 C 112.222656 112.011719 112.199219 112.035156 112.175781 112.058594 C 112.167969 112.066406 112.160156 112.074219 112.144531 112.089844 L 112.113281 112.121094 C 112.105469 112.128906 112.097656 112.136719 112.082031 112.152344 C 111.488281 112.738281 110.917969 113.292969 110.339844 113.878906 C 110.332031 113.894531 110.324219 113.910156 110.308594 113.925781 L 110.246094 113.988281 C 110.238281 114.003906 110.230469 114.019531 110.214844 114.035156 C 109.628906 114.609375 109.070312 115.140625 108.492188 115.726562 C 108.492188 115.734375 108.484375 115.742188 108.476562 115.757812 L 108.445312 115.789062 L 108.398438 115.820312 C 108.398438 115.828125 108.390625 115.835938 108.382812 115.851562 L 108.351562 115.898438 C 107.382812 116.898438 106.5 117.851562 105.648438 118.796875 C 105.617188 118.835938 105.585938 118.882812 105.554688 118.921875 C 100.785156 123.933594 99.363281 131.308594 101.816406 137.734375 C 101.878906 137.914062 101.925781 138.109375 101.972656 138.296875 C 101.996094 138.34375 102.027344 138.398438 102.050781 138.453125 C 102.050781 138.460938 102.050781 138.492188 102.050781 138.5 C 104.632812 145.425781 108.773438 151.898438 113.183594 158.5625 C 114.136719 160.007812 114.300781 161.835938 113.613281 163.425781 C 113.402344 163.917969 113.214844 164.277344 113.113281 164.527344 C 112.464844 166.097656 111.082031 167.246094 109.417969 167.597656 C 101.558594 169.203125 94.046875 170.96875 87.296875 174.058594 C 87.257812 174.082031 87.21875 174.097656 87.171875 174.121094 C 86.929688 174.238281 86.820312 174.253906 86.773438 174.277344 L 86.617188 174.339844 C 80.324219 177.152344 76.148438 183.367188 75.976562 190.304688 C 75.976562 190.359375 75.976562 190.414062 75.976562 190.46875 C 75.90625 191.734375 75.804688 193.015625 75.78125 194.4375 C 75.78125 194.453125 75.78125 194.484375 75.78125 194.5 C 75.789062 194.507812 75.796875 194.515625 75.8125 194.53125 L 75.8125 194.578125 C 75.820312 194.554688 75.8125 194.5625 75.804688 194.570312 C 75.796875 195.378906 75.796875 196.183594 75.804688 196.996094 C 75.8125 197.003906 75.820312 197.011719 75.835938 197.027344 L 75.835938 197.167969 C 75.828125 197.175781 75.820312 197.183594 75.804688 197.199219 C 75.796875 198.011719 75.796875 198.816406 75.804688 199.628906 C 75.8125 199.636719 75.820312 199.644531 75.835938 199.660156 L 75.835938 199.707031 C 75.828125 199.714844 75.820312 199.722656 75.804688 199.738281 C 75.804688 199.753906 75.804688 199.785156 75.804688 199.800781 C 75.828125 201.21875 75.929688 202.5 76 203.765625 C 76 203.820312 76 203.875 76 203.929688 C 76.171875 210.871094 80.355469 217.089844 86.640625 219.894531 L 86.796875 219.957031 C 86.835938 219.972656 86.953125 219.996094 87.195312 220.113281 C 87.234375 220.128906 87.273438 220.152344 87.320312 220.175781 C 94.070312 223.265625 101.582031 225.03125 109.441406 226.640625 C 111.105469 226.992188 112.488281 228.128906 113.136719 229.707031 C 113.238281 229.949219 113.433594 230.316406 113.636719 230.808594 C 114.324219 232.394531 114.160156 234.226562 113.207031 235.671875 C 108.804688 242.339844 104.65625 248.816406 102.074219 255.734375 C 102.074219 255.742188 102.074219 255.773438 102.074219 255.78125 C 102.050781 255.835938 102.027344 255.890625 101.996094 255.9375 C 101.957031 256.125 101.902344 256.320312 101.839844 256.5 C 99.386719 262.925781 100.800781 270.292969 105.578125 275.300781 C 105.609375 275.339844 105.640625 275.378906 105.671875 275.425781 C 106.515625 276.367188 107.40625 277.328125 108.375 278.335938 L 108.40625 278.367188 C 108.40625 278.382812 108.414062 278.398438 108.421875 278.414062 L 108.46875 278.429688 L 108.5 278.476562 C 108.5 278.492188 108.507812 278.492188 108.515625 278.507812 C 109.082031 279.085938 109.652344 279.625 110.238281 280.203125 C 110.246094 280.21875 110.253906 280.234375 110.269531 280.25 L 110.332031 280.3125 C 110.339844 280.328125 110.347656 280.34375 110.363281 280.359375 C 110.941406 280.945312 111.511719 281.496094 112.105469 282.082031 C 112.113281 282.097656 112.121094 282.097656 112.136719 282.113281 L 112.167969 282.144531 C 112.175781 282.160156 112.183594 282.160156 112.199219 282.175781 C 112.214844 282.191406 112.238281 282.222656 112.261719 282.238281 C 113.277344 283.214844 114.222656 284.027344 115.203125 284.910156 C 115.242188 284.941406 115.28125 284.972656 115.328125 285.003906 C 120.339844 289.742188 127.671875 291.1875 134.082031 288.742188 C 134.230469 288.6875 134.378906 288.640625 134.527344 288.601562 C 133.582031 288.859375 134.292969 288.710938 134.652344 288.570312 C 141.652344 285.980469 148.179688 281.832031 154.902344 277.375 C 156.339844 276.414062 158.15625 276.242188 159.75 276.914062 C 160.195312 277.101562 160.53125 277.265625 160.789062 277.375 C 162.375 278.015625 163.527344 279.398438 163.878906 281.066406 C 165.488281 288.929688 167.238281 296.441406 170.328125 303.191406 C 170.351562 303.238281 170.367188 303.285156 170.390625 303.332031 C 170.507812 303.574219 170.539062 303.699219 170.554688 303.746094 L 170.570312 303.777344 C 170.578125 303.808594 170.585938 303.839844 170.601562 303.871094 C 173.414062 310.164062 179.640625 314.355469 186.582031 314.527344 C 186.628906 314.527344 186.683594 314.527344 186.738281 314.527344 C 187.980469 314.605469 189.246094 314.683594 190.640625 314.707031 L 190.71875 314.707031 C 190.734375 314.707031 190.765625 314.707031 190.78125 314.707031 C 190.789062 314.691406 190.796875 314.691406 190.8125 314.675781 L 190.84375 314.675781 C 190.859375 314.691406 190.875 314.691406 190.890625 314.707031 C 191.742188 314.714844 192.585938 314.714844 193.4375 314.707031 C 193.453125 314.707031 193.476562 314.707031 193.5 314.707031 C 194.34375 314.714844 195.207031 314.714844 196.042969 314.707031 C 196.058594 314.707031 196.074219 314.707031 196.089844 314.707031 C 196.113281 314.707031 196.152344 314.707031 196.183594 314.707031 C 197.574219 314.675781 198.839844 314.597656 200.074219 314.527344 C 200.136719 314.527344 200.183594 314.527344 200.238281 314.527344 C 207.175781 314.355469 213.382812 310.15625 216.1875 303.871094 C 216.203125 303.855469 216.21875 303.855469 216.234375 303.839844 C 216.25 303.824219 216.25 303.792969 216.265625 303.777344 C 216.3125 303.691406 216.34375 303.597656 216.441406 303.363281 C 216.457031 303.332031 216.457031 303.316406 216.472656 303.285156 L 216.472656 303.269531 C 219.582031 296.503906 221.324219 289 222.921875 281.113281 C 223.265625 279.429688 224.421875 278.023438 226.015625 277.375 C 226.351562 277.234375 226.726562 277.054688 227.144531 276.875 C 228.730469 276.195312 230.558594 276.367188 231.996094 277.320312 C 234.4375 278.9375 236.875 280.414062 239.300781 281.894531 L 219.019531 261.597656 C 212.3125 264.511719 207.449219 270.503906 205.980469 277.671875 C 204.429688 285.339844 202.898438 291.382812 200.828125 295.941406 C 200.679688 296.230469 200.546875 296.527344 200.414062 296.824219 C 200.304688 297.066406 200.066406 297.226562 199.792969 297.234375 C 199.550781 297.242188 199.300781 297.25 199.058594 297.265625 C 197.792969 297.34375 196.925781 297.414062 196.050781 297.429688 C 195.980469 297.429688 195.878906 297.429688 195.808594 297.429688 C 195.105469 297.4375 194.398438 297.4375 193.664062 297.429688 C 193.539062 297.429688 193.40625 297.429688 193.28125 297.429688 C 192.539062 297.4375 191.789062 297.4375 191.023438 297.429688 L 190.8125 297.429688 C 189.921875 297.40625 188.996094 297.335938 187.722656 297.265625 C 187.496094 297.25 187.261719 297.242188 187.035156 297.234375 C 186.761719 297.226562 186.503906 297.074219 186.394531 296.824219 C 186.277344 296.589844 186.167969 296.347656 186.042969 296.121094 C 186.058594 296.144531 186.160156 296.300781 186.167969 296.316406 C 186.128906 296.222656 186.144531 296.222656 186.074219 296.089844 C 186.058594 296.058594 186.035156 296.011719 186.011719 295.980469 C 183.921875 291.40625 182.367188 285.277344 180.796875 277.617188 C 179.289062 270.292969 174.246094 264.222656 167.332031 261.394531 C 167.480469 261.457031 167.222656 261.308594 166.519531 261.011719 C 159.59375 258.078125 151.671875 258.820312 145.402344 262.964844 C 138.835938 267.3125 133.355469 270.613281 128.648438 272.355469 C 128.40625 272.433594 128.164062 272.519531 127.929688 272.597656 C 127.695312 272.691406 127.40625 272.613281 127.226562 272.441406 C 127.046875 272.277344 126.867188 272.121094 126.679688 271.964844 C 125.476562 270.894531 124.886719 270.410156 124.378906 269.9375 L 124.347656 269.90625 C 124.339844 269.890625 124.332031 269.859375 124.316406 269.84375 C 124.300781 269.828125 124.246094 269.796875 124.222656 269.78125 C 124.222656 269.765625 124.222656 269.75 124.222656 269.734375 C 123.707031 269.234375 123.199219 268.75 122.683594 268.226562 C 122.636719 268.179688 122.589844 268.148438 122.542969 268.101562 L 122.480469 268.039062 C 122.441406 267.976562 122.402344 267.929688 122.355469 267.875 C 121.847656 267.375 121.347656 266.921875 120.832031 266.398438 C 120.792969 266.351562 120.753906 266.320312 120.707031 266.273438 L 120.660156 266.242188 L 120.644531 266.195312 C 120.613281 266.164062 120.574219 266.132812 120.535156 266.101562 C 119.917969 265.453125 119.320312 264.746094 118.554688 263.894531 C 118.390625 263.730469 118.226562 263.558594 118.0625 263.394531 C 117.921875 263.246094 117.867188 262.941406 117.96875 262.675781 C 118.070312 262.378906 118.164062 262.082031 118.257812 261.777344 C 119.988281 257.125 123.238281 251.746094 127.570312 245.1875 C 131.714844 238.917969 132.441406 231.003906 129.507812 224.085938 C 129.15625 223.25 129.023438 222.953125 129.125 223.203125 C 126.296875 216.28125 120.207031 211.226562 112.886719 209.722656 C 105.226562 208.152344 99.136719 206.597656 94.554688 204.507812 C 94.507812 204.492188 94.460938 204.476562 94.414062 204.460938 C 94.273438 204.398438 94.289062 204.414062 94.203125 204.367188 L 93.6875 204.140625 C 93.445312 204.03125 93.296875 203.773438 93.289062 203.5 C 93.28125 203.265625 93.273438 203.03125 93.257812 202.796875 C 93.1875 201.523438 93.109375 200.609375 93.09375 199.714844 L 93.09375 199.667969 C 93.09375 199.613281 93.09375 199.535156 93.09375 199.488281 C 93.085938 198.777344 93.085938 198.089844 93.09375 197.371094 C 93.09375 197.308594 93.09375 197.246094 93.09375 197.191406 L 93.09375 197.050781 C 93.09375 196.988281 93.09375 196.925781 93.09375 196.871094 C 93.085938 196.152344 93.085938 195.457031 93.09375 194.757812 C 93.09375 194.703125 93.09375 194.609375 93.09375 194.5625 L 93.09375 194.53125 C 93.117188 193.640625 93.1875 192.726562 93.257812 191.445312 C 93.273438 191.210938 93.28125 190.976562 93.289062 190.742188 C 93.296875 190.46875 93.445312 190.210938 93.6875 190.101562 L 94.203125 189.875 C 94.296875 189.835938 94.273438 189.851562 94.414062 189.78125 C 94.460938 189.765625 94.507812 189.742188 94.554688 189.71875 C 99.128906 187.628906 105.226562 186.089844 112.886719 184.519531 C 120.207031 183.023438 126.296875 177.964844 129.125 171.039062 C 129.023438 171.28125 129.148438 170.992188 129.507812 170.15625 C 132.433594 163.238281 131.714844 155.324219 127.570312 149.054688 C 123.238281 142.496094 119.988281 137.101562 118.257812 132.449219 C 118.164062 132.152344 118.070312 131.855469 117.96875 131.566406 C 117.867188 131.300781 117.921875 130.996094 118.0625 130.847656 C 118.226562 130.683594 118.390625 130.523438 118.554688 130.351562 C 119.320312 129.492188 119.917969 128.773438 120.535156 128.125 C 120.566406 128.09375 120.605469 128.0625 120.644531 128.03125 L 120.660156 128 L 120.707031 127.96875 C 120.746094 127.929688 120.785156 127.890625 120.832031 127.84375 C 121.347656 127.320312 121.847656 126.851562 122.355469 126.351562 C 122.394531 126.304688 122.433594 126.257812 122.480469 126.210938 L 122.511719 126.164062 L 122.542969 126.132812 C 122.582031 126.09375 122.621094 126.054688 122.667969 126.007812 C 123.183594 125.484375 123.707031 124.988281 124.222656 124.488281 C 124.222656 124.480469 124.222656 124.472656 124.222656 124.457031 C 124.238281 124.441406 124.292969 124.417969 124.316406 124.394531 C 124.324219 124.378906 124.332031 124.355469 124.347656 124.332031 L 124.378906 124.300781 C 124.886719 123.816406 125.476562 123.339844 126.679688 122.269531 C 126.867188 122.113281 127.046875 121.957031 127.226562 121.792969 C 127.40625 121.621094 127.695312 121.550781 127.929688 121.636719 C 128.164062 121.722656 128.40625 121.800781 128.648438 121.878906 C 133.363281 123.621094 138.835938 126.90625 145.402344 131.253906 C 151.664062 135.417969 159.59375 136.15625 166.519531 133.238281 C 167.222656 132.941406 167.472656 132.785156 167.332031 132.839844 C 174.238281 130.015625 179.289062 123.933594 180.796875 116.617188 C 182.367188 108.960938 183.921875 102.855469 186.011719 98.273438 C 186.027344 98.234375 186.050781 98.195312 186.074219 98.148438 C 186.136719 98.007812 186.121094 98.007812 186.167969 97.921875 C 186.167969 97.929688 186.058594 98.078125 186.042969 98.101562 C 186.167969 97.875 186.277344 97.640625 186.394531 97.414062 C 186.503906 97.171875 186.746094 97.007812 187.019531 97 C 187.253906 96.992188 187.488281 96.984375 187.722656 96.96875 C 189.003906 96.898438 189.929688 96.835938 190.8125 96.8125 L 191.023438 96.8125 C 191.789062 96.804688 192.539062 96.804688 193.28125 96.8125 C 193.40625 96.8125 193.539062 96.8125 193.664062 96.8125 C 194.40625 96.804688 195.105469 96.804688 195.808594 96.8125 C 195.878906 96.8125 195.980469 96.8125 196.050781 96.8125 C 196.917969 96.835938 197.792969 96.890625 199.058594 96.96875 C 199.300781 96.984375 199.550781 96.992188 199.792969 97 C 200.066406 97.007812 200.304688 97.164062 200.414062 97.414062 C 200.546875 97.710938 200.679688 98.007812 200.828125 98.296875 C 202.90625 102.855469 204.429688 108.898438 205.980469 116.5625 C 207.472656 123.902344 212.539062 130.007812 219.480469 132.832031 C 219.605469 132.878906 219.925781 133.035156 220.410156 133.246094 C 227.324219 136.171875 235.242188 135.441406 241.511719 131.292969 C 248.078125 126.953125 253.480469 123.691406 258.132812 121.964844 C 258.164062 121.957031 258.210938 121.917969 258.242188 121.902344 C 258.484375 121.832031 258.726562 121.753906 258.960938 121.675781 C 259.28125 121.550781 259.519531 121.589844 259.707031 121.769531 C 259.871094 121.925781 260.027344 122.082031 260.199219 122.230469 C 261.011719 122.957031 261.722656 123.597656 262.394531 124.246094 C 262.441406 124.292969 262.488281 124.339844 262.535156 124.386719 L 262.566406 124.417969 L 262.675781 124.511719 C 262.691406 124.527344 262.707031 124.550781 262.722656 124.574219 C 263.074219 124.917969 263.566406 125.4375 264.214844 126.09375 C 264.339844 126.226562 264.457031 126.351562 264.582031 126.476562 C 264.675781 126.578125 264.765625 126.671875 264.867188 126.765625 C 264.929688 126.820312 264.984375 126.835938 265.03125 126.890625 C 265.421875 127.273438 265.75 127.632812 266.039062 127.929688 C 266.054688 127.929688 266.054688 127.929688 266.070312 127.929688 L 266.265625 128.109375 C 266.742188 128.609375 267.1875 129.210938 268.25 130.398438 C 268.414062 130.578125 268.59375 130.753906 268.765625 130.925781 C 268.945312 131.113281 268.96875 131.410156 268.890625 131.628906 C 268.835938 131.792969 268.78125 131.964844 268.734375 132.128906 C 268.703125 132.199219 268.65625 132.269531 268.625 132.339844 C 266.859375 137.101562 263.589844 142.589844 259.28125 149.125 C 255.148438 155.371094 254.398438 163.277344 257.3125 170.179688 C 257.40625 170.398438 257.5 170.640625 257.632812 170.960938 C 260.441406 177.917969 266.554688 183 273.902344 184.496094 C 281.550781 186.066406 287.671875 187.605469 292.246094 189.699219 C 292.292969 189.714844 292.324219 189.734375 292.371094 189.757812 C 292.511719 189.820312 292.496094 189.804688 292.582031 189.851562 C 292.566406 189.851562 292.417969 189.742188 292.386719 189.726562 C 292.621094 189.851562 292.863281 189.960938 293.105469 190.078125 C 293.347656 190.1875 293.496094 190.445312 293.503906 190.71875 C 293.519531 190.953125 293.535156 191.1875 293.550781 191.421875 C 293.628906 192.679688 293.683594 193.570312 293.707031 194.445312 C 293.707031 194.507812 293.707031 194.570312 293.707031 194.625 C 293.707031 194.648438 293.707031 194.703125 293.707031 194.734375 C 293.714844 195.464844 293.714844 196.199219 293.707031 196.941406 C 293.707031 196.988281 293.707031 197.042969 293.707031 197.097656 C 293.707031 197.152344 293.707031 197.207031 293.707031 197.261719 C 293.714844 198.003906 293.714844 198.738281 293.707031 199.472656 C 293.707031 199.496094 293.707031 199.535156 293.707031 199.566406 C 293.707031 199.628906 293.707031 199.691406 293.707031 199.746094 C 293.683594 200.609375 293.628906 201.523438 293.550781 202.78125 C 293.535156 203.015625 293.519531 203.25 293.503906 203.484375 C 293.496094 203.757812 293.347656 204 293.105469 204.109375 C 292.863281 204.226562 292.621094 204.351562 292.386719 204.476562 C 292.417969 204.460938 292.566406 204.359375 292.582031 204.351562 C 292.488281 204.390625 292.503906 204.375 292.371094 204.445312 C 292.324219 204.460938 292.292969 204.476562 292.246094 204.492188 C 287.671875 206.582031 281.558594 208.136719 273.902344 209.707031 C 266.992188 211.128906 261.152344 215.726562 258.148438 222.101562 L 277.085938 241.042969 C 275.945312 239.222656 274.855469 237.398438 273.644531 235.570312 C 272.699219 234.125 272.527344 232.308594 273.214844 230.722656 C 273.355469 230.394531 273.488281 230.066406 273.628906 229.714844 C 274.269531 228.128906 275.671875 226.96875 277.351562 226.625 C 285.214844 225.015625 292.722656 223.265625 299.476562 220.175781 C 299.523438 220.152344 299.554688 220.128906 299.601562 220.113281 C 299.851562 219.996094 299.96875 219.972656 300.015625 219.957031 L 300.0625 219.925781 C 300.09375 219.910156 300.125 219.910156 300.15625 219.894531 C 306.449219 217.089844 310.625 210.871094 310.796875 203.929688 C 310.796875 203.882812 310.796875 203.828125 310.796875 203.773438 C 310.875 202.507812 310.960938 201.210938 310.992188 199.792969 C 310.992188 199.777344 310.992188 199.753906 310.992188 199.730469 C 311 198.855469 311 197.964844 310.992188 197.089844 C 311 196.214844 311 195.339844 310.992188 194.46875 C 310.992188 194.453125 310.992188 194.429688 310.992188 194.40625 C 310.960938 192.984375 310.867188 191.6875 310.796875 190.421875 C 310.796875 190.375 310.796875 190.320312 310.796875 190.265625 C 310.625 183.335938 306.441406 177.113281 300.15625 174.300781 C 300.125 174.292969 300.09375 174.285156 300.0625 174.269531 L 300.015625 174.238281 C 299.976562 174.222656 299.851562 174.183594 299.601562 174.074219 C 299.554688 174.058594 299.523438 174.035156 299.476562 174.011719 C 292.722656 170.921875 285.214844 169.171875 277.351562 167.566406 C 275.671875 167.222656 274.285156 166.066406 273.628906 164.480469 C 273.480469 164.128906 273.355469 163.785156 273.214844 163.457031 C 272.542969 161.875 272.699219 160.0625 273.644531 158.625 C 278.085938 151.90625 282.261719 145.347656 284.855469 138.328125 C 284.902344 138.148438 284.949219 137.96875 285.011719 137.796875 C 287.460938 131.378906 286.035156 124.042969 281.269531 119.03125 C 281.238281 118.984375 281.207031 118.9375 281.175781 118.890625 C 280.3125 117.914062 279.523438 117 278.554688 115.992188 L 278.523438 115.945312 C 278.507812 115.9375 278.492188 115.929688 278.476562 115.914062 C 278.476562 115.914062 278.460938 115.90625 278.460938 115.898438 L 278.398438 115.859375 L 278.351562 115.828125 C 278.351562 115.820312 278.335938 115.8125 278.335938 115.796875 C 278.234375 115.695312 278.148438 115.578125 278.046875 115.476562 L 276.460938 113.941406 C 275.765625 113.238281 275.214844 112.691406 274.753906 112.246094 C 274.738281 112.230469 274.738281 112.214844 274.722656 112.199219 L 274.691406 112.167969 C 274.675781 112.160156 274.675781 112.152344 274.660156 112.136719 C 274.644531 112.121094 274.628906 112.121094 274.613281 112.105469 L 274.582031 112.074219 C 273.644531 111.160156 272.660156 110.269531 271.683594 109.386719 C 271.652344 109.355469 271.621094 109.316406 271.589844 109.277344 C 266.554688 104.484375 259.210938 103.082031 252.761719 105.539062 C 252.535156 105.632812 252.300781 105.703125 252.074219 105.765625 C 252.066406 105.765625 252.035156 105.765625 252.027344 105.765625 C 245.101562 108.351562 238.621094 112.488281 231.964844 116.898438 C 230.519531 117.851562 228.699219 118.023438 227.113281 117.34375 C 226.695312 117.164062 226.320312 116.976562 225.984375 116.84375 C 224.398438 116.195312 223.234375 114.796875 222.890625 113.121094 C 221.292969 105.242188 219.550781 97.726562 216.441406 90.949219 C 216.441406 90.949219 216.441406 90.941406 216.441406 90.933594 C 216.425781 90.910156 216.425781 90.886719 216.410156 90.855469 C 216.304688 90.628906 216.273438 90.527344 216.234375 90.441406 C 216.21875 90.425781 216.203125 90.402344 216.1875 90.378906 C 216.1875 90.371094 216.171875 90.363281 216.171875 90.347656 C 213.367188 84.054688 207.128906 79.863281 200.191406 79.691406 C 200.144531 79.691406 200.082031 79.691406 200.035156 79.691406 C 198.800781 79.621094 197.535156 79.519531 196.144531 79.496094 C 196.121094 79.496094 196.082031 79.496094 196.050781 79.496094 C 196.035156 79.496094 196.019531 79.496094 196.003906 79.496094 C 195.167969 79.488281 194.304688 79.488281 193.460938 79.496094 C 193.445312 79.496094 193.421875 79.496094 193.398438 79.496094 C 192.546875 79.488281 191.6875 79.488281 190.835938 79.496094 C 190.828125 79.511719 190.820312 79.527344 190.804688 79.542969 L 190.773438 79.542969 C 190.765625 79.527344 190.757812 79.511719 190.742188 79.496094 C 190.726562 79.496094 190.695312 79.496094 190.679688 79.496094 L 190.617188 79.496094 Z M 241.792969 80.355469 C 241.777344 80.363281 241.777344 80.378906 241.761719 80.386719 C 241.855469 80.589844 241.933594 80.800781 242.019531 81.011719 C 241.863281 80.519531 241.847656 80.503906 241.792969 80.355469 Z M 309.882812 83.960938 C 308.890625 84.148438 307.921875 84.515625 307.121094 85.046875 C 307.347656 84.898438 306.871094 85.210938 306.785156 85.273438 C 306.753906 85.296875 306.738281 85.320312 306.707031 85.351562 C 305.136719 86.546875 303.972656 88.566406 303.761719 90.519531 L 299.429688 129.125 C 299.09375 132.074219 301.242188 135.753906 303.988281 136.914062 C 306.722656 138.070312 310.882812 137.054688 312.773438 134.769531 L 323.507812 121.761719 C 354.609375 173.824219 352.046875 238.066406 320.273438 286.984375 L 325.746094 292.457031 C 328.199219 294.910156 330.054688 297.765625 331.3125 300.796875 C 369.707031 245.773438 373.539062 171.648438 337.394531 112.074219 L 352.03125 106.359375 C 354.796875 105.28125 357.074219 101.652344 356.832031 98.691406 C 356.589844 95.726562 353.75 92.535156 350.835938 91.925781 L 312.8125 83.960938 C 311.890625 83.765625 310.875 83.773438 309.882812 83.960938 Z M 193.375 150 C 167.363281 150 146.277344 171.078125 146.277344 197.082031 C 146.277344 223.09375 167.355469 244.179688 193.367188 244.179688 C 193.367188 244.179688 193.375 244.179688 193.375 244.179688 C 195.925781 244.179688 198.464844 243.984375 200.984375 243.570312 L 191.03125 233.632812 C 189.914062 232.527344 189.300781 231.441406 188.855469 230.144531 C 188.855469 230.113281 188.855469 230.097656 188.855469 230.066406 L 187.621094 226.390625 C 173.613281 223.632812 163.511719 211.351562 163.511719 197.082031 C 163.511719 180.710938 176.691406 167.402344 193.0625 167.230469 C 193.171875 167.230469 193.273438 167.230469 193.382812 167.230469 C 207.402344 167.230469 219.535156 176.980469 222.546875 190.664062 L 226.882812 192.132812 C 226.898438 192.132812 226.914062 192.132812 226.929688 192.132812 C 228.207031 192.578125 229.246094 193.195312 230.347656 194.296875 L 230.394531 194.296875 L 239.996094 203.929688 C 240.324219 201.65625 240.488281 199.378906 240.488281 197.082031 C 240.480469 171.078125 219.386719 150 193.375 150 Z M 183.375 184.886719 C 182.960938 184.980469 182.5625 185.199219 182.257812 185.496094 C 181.648438 186.097656 181.4375 187.050781 181.710938 187.863281 L 195.207031 227.964844 C 195.324219 228.300781 195.511719 228.605469 195.753906 228.847656 L 210.667969 243.773438 L 262.464844 295.605469 L 282.652344 315.792969 C 286.171875 314.816406 289.570312 313.394531 292.730469 311.570312 L 210.214844 229.003906 L 206.996094 225.789062 L 206.980469 225.773438 C 205.445312 224.25 203.0625 224.25 201.523438 225.789062 C 201.078125 226.234375 200.789062 226.75 200.609375 227.292969 L 199.378906 225.9375 L 199.160156 225.40625 C 199.160156 225.414062 199.128906 225.414062 199.128906 225.421875 L 189.59375 197.089844 C 190.59375 196.714844 191.46875 196.160156 192.1875 195.441406 C 192.203125 195.425781 192.21875 195.410156 192.234375 195.394531 C 192.929688 194.6875 193.46875 193.820312 193.835938 192.835938 L 222.164062 202.398438 L 222.773438 202.640625 L 224.039062 203.859375 C 223.492188 204.046875 222.96875 204.335938 222.53125 204.773438 C 221.011719 206.292969 221.011719 208.636719 222.484375 210.183594 L 308.21875 295.980469 C 310.03125 292.800781 311.453125 289.398438 312.398438 285.871094 L 306.675781 280.148438 L 292.308594 265.75 L 240.511719 213.921875 L 225.585938 199.011719 C 225.34375 198.761719 225.039062 198.558594 224.703125 198.449219 L 184.613281 184.941406 C 184.222656 184.808594 183.789062 184.792969 183.375 184.886719 Z M 218.261719 210.628906 C 217.277344 210.628906 216.296875 211.011719 215.515625 211.78125 C 214.015625 213.28125 214.007812 215.570312 215.421875 217.121094 L 302.265625 304.019531 C 304.050781 302.132812 305.667969 300.085938 307.066406 297.90625 L 224.210938 215.007812 L 221.011719 211.789062 C 220.230469 211.011719 219.246094 210.628906 218.261719 210.628906 Z M 211.242188 217.628906 C 210.269531 217.628906 209.285156 218.019531 208.511719 218.785156 C 207.011719 220.285156 207.003906 222.570312 208.417969 224.125 L 294.636719 310.375 C 296.816406 308.953125 298.859375 307.355469 300.734375 305.574219 L 217.207031 222 L 213.976562 218.769531 C 213.195312 218.003906 212.21875 217.628906 211.242188 217.628906 Z M 316.042969 289.507812 C 315.308594 291.730469 314.339844 293.871094 313.277344 295.957031 C 312.257812 297.984375 310.585938 300.679688 309.25 302.542969 C 307.898438 304.464844 306.324219 306.339844 304.582031 308.078125 C 303.207031 309.460938 301.75 310.75 300.234375 311.890625 L 300.21875 311.890625 C 300.195312 311.90625 300.179688 311.9375 300.15625 311.953125 C 297.257812 314.027344 295.605469 315.089844 292.847656 316.527344 C 290.703125 317.628906 288.507812 318.632812 286.214844 319.390625 L 292.527344 325.691406 C 300.765625 333.9375 314.128906 333.945312 322.367188 325.707031 C 330.601562 317.472656 330.601562 304.105469 322.367188 295.871094 Z M 285.183594 325.121094 C 283.746094 326.238281 282.332031 327.363281 280.847656 328.433594 C 225.90625 368.175781 151.609375 367.957031 96.898438 327.886719 C 96.8125 327.839844 96.75 327.761719 96.71875 327.675781 L 96.6875 327.722656 C 93.734375 325.277344 89.503906 325.199219 86.382812 327.464844 C 82.601562 330.210938 81.832031 335.332031 84.570312 339.128906 C 85.179688 339.960938 85.867188 340.695312 86.554688 341.171875 L 86.554688 341.203125 C 86.570312 341.203125 86.585938 341.203125 86.601562 341.203125 C 116.914062 363.515625 152.714844 374.75 188.542969 374.90625 C 224.375 375.0625 260.277344 364.109375 290.796875 342.046875 C 293.792969 339.886719 296.652344 337.597656 299.46875 335.277344 C 295.707031 334.0625 292.144531 332.078125 289.179688 329.105469 Z M 97.289062 327.027344 L 97.242188 327.074219 C 97.265625 327.074219 97.289062 327.074219 97.320312 327.074219 L 97.320312 327.027344 Z M 97.289062 327.027344 "/></g></g></svg>