<svg xmlns="http://www.w3.org/2000/svg" xmlns:xlink="http://www.w3.org/1999/xlink" width="500" zoomAndPan="magnify" viewBox="0 0 375 374.999991" height="500" preserveAspectRatio="xMidYMid meet" version="1.2"><defs><clipPath id="821a89a858"><path d="M 29.824219 14.230469 L 344.824219 14.230469 L 344.824219 360.730469 L 29.824219 360.730469 Z M 29.824219 14.230469 "/></clipPath></defs><g id="152b5d9f46"><g clip-rule="nonzero" clip-path="url(#821a89a858)"><path style=" stroke:none;fill-rule:nonzero;fill:#e6a823;fill-opacity:1;" d="M 270.765625 121.855469 C 271.652344 123.144531 271.945312 124.753906 271.558594 126.265625 L 265.089844 151.894531 C 264.464844 154.359375 262.257812 155.996094 259.828125 155.996094 C 259.386719 155.996094 258.941406 155.941406 258.5 155.824219 C 255.59375 155.09375 253.828125 152.140625 254.5625 149.234375 L 257.617188 137.132812 L 244.800781 145.550781 L 182.628906 213.632812 C 180.816406 215.617188 177.832031 215.976562 175.597656 214.484375 L 117.191406 175.339844 L 57.65625 252.757812 C 56.585938 254.148438 54.976562 254.875 53.347656 254.875 C 52.195312 254.875 51.027344 254.507812 50.042969 253.75 C 47.667969 251.921875 47.21875 248.507812 49.050781 246.132812 L 111.6875 164.695312 C 113.429688 162.429688 116.632812 161.898438 119.011719 163.496094 L 177.761719 202.863281 L 237.242188 137.722656 C 237.546875 137.390625 237.894531 137.09375 238.265625 136.847656 L 250.796875 128.613281 L 239.414062 127.304688 C 236.433594 126.964844 234.296875 124.269531 234.640625 121.289062 C 234.980469 118.3125 237.675781 116.167969 240.65625 116.519531 L 266.914062 119.539062 C 268.46875 119.730469 269.875 120.570312 270.765625 121.855469 Z M 201.980469 256.132812 L 201.980469 351.863281 C 201.980469 356.566406 198.152344 360.394531 193.449219 360.394531 L 163.785156 360.394531 C 159.082031 360.394531 155.253906 356.566406 155.253906 351.863281 L 155.253906 256.132812 C 155.253906 251.425781 159.082031 247.597656 163.785156 247.597656 L 193.449219 247.597656 C 198.152344 247.597656 201.980469 251.425781 201.980469 256.132812 Z M 191.121094 258.460938 L 166.113281 258.460938 L 166.113281 349.535156 L 191.121094 349.535156 Z M 139.351562 226.355469 L 139.351562 351.863281 C 139.351562 356.566406 135.523438 360.394531 130.820312 360.394531 L 101.160156 360.394531 C 96.457031 360.394531 92.628906 356.566406 92.628906 351.863281 L 92.628906 226.355469 C 92.628906 221.652344 96.457031 217.824219 101.160156 217.824219 L 130.820312 217.824219 C 135.523438 217.824219 139.351562 221.652344 139.351562 226.355469 Z M 128.492188 228.683594 L 103.488281 228.683594 L 103.488281 349.535156 L 128.492188 349.535156 Z M 76.71875 295.585938 L 76.71875 351.863281 C 76.71875 356.566406 72.890625 360.394531 68.183594 360.394531 L 38.523438 360.394531 C 33.820312 360.394531 29.992188 356.566406 29.992188 351.863281 L 29.992188 295.585938 C 29.992188 290.882812 33.820312 287.054688 38.523438 287.054688 L 68.183594 287.054688 C 72.890625 287.0625 76.71875 290.882812 76.71875 295.585938 Z M 65.855469 297.921875 L 40.851562 297.921875 L 40.851562 349.535156 L 65.855469 349.535156 Z M 264.613281 201.960938 L 264.613281 351.863281 C 264.613281 356.566406 260.785156 360.394531 256.082031 360.394531 L 226.421875 360.394531 C 221.71875 360.394531 217.890625 356.566406 217.890625 351.863281 L 217.890625 201.960938 C 217.890625 197.257812 221.71875 193.429688 226.421875 193.429688 L 256.082031 193.429688 C 260.785156 193.429688 264.613281 197.25 264.613281 201.960938 Z M 253.753906 204.289062 L 228.75 204.289062 L 228.75 349.535156 L 253.753906 349.535156 Z M 327.25 149.105469 L 327.25 351.863281 C 327.25 356.566406 323.421875 360.394531 318.71875 360.394531 L 289.058594 360.394531 C 284.351562 360.394531 280.523438 356.566406 280.523438 351.863281 L 280.523438 149.105469 C 280.523438 144.402344 284.351562 140.574219 289.058594 140.574219 L 318.71875 140.574219 C 323.421875 140.574219 327.25 144.402344 327.25 149.105469 Z M 316.390625 151.433594 L 291.386719 151.433594 L 291.386719 349.535156 L 316.390625 349.535156 Z M 83.917969 98.015625 L 83.917969 75.605469 C 83.917969 72.605469 86.347656 70.175781 89.347656 70.175781 L 96.304688 70.175781 C 97.671875 65.226562 99.632812 60.480469 102.175781 56.007812 L 97.257812 51.085938 C 96.238281 50.070312 95.667969 48.683594 95.667969 47.246094 C 95.667969 45.808594 96.238281 44.421875 97.257812 43.40625 L 113.105469 27.554688 C 115.222656 25.4375 118.664062 25.4375 120.78125 27.554688 L 125.703125 32.476562 C 130.175781 29.929688 134.914062 27.96875 139.867188 26.605469 L 139.867188 19.660156 C 139.867188 16.660156 142.296875 14.230469 145.296875 14.230469 L 167.710938 14.230469 C 170.710938 14.230469 173.140625 16.660156 173.140625 19.660156 L 173.140625 26.617188 C 178.09375 27.984375 182.832031 29.945312 187.304688 32.488281 L 192.226562 27.570312 C 193.246094 26.550781 194.628906 25.980469 196.066406 25.980469 C 197.507812 25.980469 198.890625 26.550781 199.910156 27.570312 L 215.757812 43.417969 C 217.875 45.535156 217.875 48.976562 215.757812 51.09375 L 210.835938 56.015625 C 213.382812 60.488281 215.34375 65.226562 216.707031 70.179688 L 223.660156 70.179688 C 226.660156 70.179688 229.089844 72.609375 229.089844 75.609375 L 229.089844 98.023438 C 229.089844 101.023438 226.660156 103.453125 223.660156 103.453125 L 216.707031 103.453125 C 215.34375 108.402344 213.382812 113.144531 210.835938 117.617188 L 215.757812 122.539062 C 217.875 124.65625 217.875 128.097656 215.757812 130.214844 L 199.910156 146.066406 C 197.792969 148.183594 194.351562 148.183594 192.234375 146.066406 L 187.3125 141.144531 C 182.839844 143.691406 178.101562 145.652344 173.148438 147.015625 L 173.148438 153.972656 C 173.148438 156.972656 170.71875 159.402344 167.71875 159.402344 L 145.304688 159.402344 C 142.304688 159.402344 139.875 156.972656 139.875 153.972656 L 139.875 147.015625 C 134.917969 145.652344 130.183594 143.691406 125.710938 141.144531 L 120.789062 146.066406 C 119.769531 147.082031 118.390625 147.652344 116.945312 147.652344 C 115.507812 147.652344 114.121094 147.082031 113.105469 146.066406 L 97.257812 130.214844 C 95.136719 128.097656 95.136719 124.65625 97.257812 122.539062 L 102.175781 117.617188 C 99.632812 113.144531 97.671875 108.40625 96.304688 103.453125 L 89.347656 103.453125 C 86.347656 103.445312 83.917969 101.015625 83.917969 98.015625 Z M 94.777344 92.585938 L 100.59375 92.585938 C 103.179688 92.585938 105.414062 94.414062 105.921875 96.957031 C 107.242188 103.574219 109.8125 109.777344 113.566406 115.40625 C 115.003906 117.558594 114.71875 120.429688 112.886719 122.261719 L 108.773438 126.375 L 116.941406 134.539062 L 121.054688 130.425781 C 122.886719 128.59375 125.757812 128.316406 127.910156 129.746094 C 133.535156 133.5 139.738281 136.074219 146.351562 137.390625 C 148.886719 137.898438 150.722656 140.125 150.722656 142.71875 L 150.722656 148.535156 L 162.273438 148.535156 L 162.273438 142.71875 C 162.273438 140.125 164.097656 137.898438 166.644531 137.390625 C 173.261719 136.074219 179.464844 133.5 185.09375 129.746094 C 187.246094 128.308594 190.117188 128.59375 191.949219 130.425781 L 196.0625 134.539062 L 204.226562 126.375 L 200.113281 122.261719 C 198.28125 120.429688 198.003906 117.5625 199.433594 115.40625 C 203.1875 109.777344 205.761719 103.574219 207.078125 96.964844 C 207.585938 94.425781 209.8125 92.59375 212.40625 92.59375 L 218.222656 92.59375 L 218.222656 81.035156 L 212.40625 81.035156 C 209.820312 81.035156 207.585938 79.207031 207.078125 76.664062 C 205.761719 70.046875 203.1875 63.839844 199.433594 58.214844 C 197.996094 56.0625 198.28125 53.191406 200.113281 51.359375 L 204.226562 47.246094 L 196.0625 39.082031 L 191.949219 43.195312 C 190.117188 45.027344 187.25 45.3125 185.09375 43.871094 C 179.464844 40.121094 173.261719 37.546875 166.644531 36.230469 C 164.105469 35.722656 162.273438 33.496094 162.273438 30.902344 L 162.273438 25.089844 L 150.722656 25.089844 L 150.722656 30.910156 C 150.722656 33.5 148.894531 35.726562 146.351562 36.238281 C 139.730469 37.554688 133.527344 40.125 127.902344 43.878906 C 125.75 45.320312 122.878906 45.035156 121.046875 43.199219 L 116.933594 39.085938 L 108.769531 47.253906 L 112.878906 51.367188 C 114.714844 53.199219 115 56.0625 113.558594 58.222656 C 109.804688 63.847656 107.234375 70.058594 105.917969 76.667969 C 105.40625 79.207031 103.179688 81.039062 100.589844 81.039062 L 94.773438 81.039062 L 94.773438 92.585938 Z M 118.25 86.808594 C 118.25 65.722656 135.410156 48.5625 156.496094 48.5625 C 177.585938 48.5625 194.746094 65.722656 194.746094 86.808594 C 194.746094 107.898438 177.585938 125.058594 156.496094 125.058594 C 135.410156 125.058594 118.25 107.898438 118.25 86.808594 Z M 129.109375 86.808594 C 129.109375 101.914062 141.394531 114.199219 156.496094 114.199219 C 171.597656 114.199219 183.882812 101.914062 183.882812 86.808594 C 183.882812 71.707031 171.597656 59.421875 156.496094 59.421875 C 141.394531 59.421875 129.109375 71.707031 129.109375 86.808594 Z M 147.253906 101.226562 C 148.304688 102.257812 149.675781 102.769531 151.039062 102.769531 C 152.4375 102.769531 153.835938 102.230469 154.894531 101.160156 L 175.753906 80.105469 C 177.863281 77.972656 177.851562 74.539062 175.71875 72.425781 C 173.589844 70.316406 170.152344 70.332031 168.042969 72.460938 L 150.980469 89.6875 L 144.890625 83.757812 C 142.746094 81.664062 139.304688 81.707031 137.214844 83.851562 C 135.125 85.996094 135.164062 89.4375 137.308594 91.527344 Z M 344.660156 87.460938 C 344.660156 109.949219 326.367188 128.242188 303.878906 128.242188 C 281.394531 128.242188 263.101562 109.949219 263.101562 87.460938 C 263.101562 64.976562 281.394531 46.683594 303.878906 46.683594 C 326.367188 46.683594 344.660156 64.976562 344.660156 87.460938 Z M 333.800781 87.460938 C 333.800781 70.96875 320.382812 57.542969 303.878906 57.542969 C 287.386719 57.542969 273.960938 70.960938 273.960938 87.460938 C 273.960938 103.960938 287.378906 117.382812 303.878906 117.382812 C 320.382812 117.375 333.800781 103.957031 333.800781 87.460938 Z M 304.707031 82.03125 L 303.066406 82.03125 C 302.019531 82.03125 301.136719 81.148438 301.136719 80.105469 C 301.136719 79.058594 302.019531 78.175781 303.066406 78.175781 L 305.378906 78.175781 C 306.261719 78.175781 306.773438 78.746094 306.949219 78.992188 C 308.707031 81.421875 312.101562 81.964844 314.53125 80.214844 C 316.960938 78.453125 317.503906 75.0625 315.75 72.632812 C 314.144531 70.40625 311.871094 68.777344 309.316406 67.949219 L 309.316406 66.460938 C 309.316406 63.460938 306.886719 61.03125 303.886719 61.03125 C 300.886719 61.03125 298.457031 63.460938 298.457031 66.460938 L 298.457031 68.179688 C 293.671875 70.03125 290.273438 74.679688 290.273438 80.109375 C 290.273438 87.164062 296.007812 92.898438 303.058594 92.898438 L 304.703125 92.898438 C 305.746094 92.898438 306.628906 93.78125 306.628906 94.828125 C 306.628906 95.871094 305.746094 96.753906 304.703125 96.753906 L 302.386719 96.753906 C 301.503906 96.753906 300.996094 96.183594 300.820312 95.941406 C 299.0625 93.507812 295.667969 92.960938 293.238281 94.71875 C 290.808594 96.476562 290.265625 99.871094 292.015625 102.300781 C 293.625 104.527344 295.898438 106.15625 298.449219 106.984375 L 298.449219 108.46875 C 298.449219 111.46875 300.878906 113.898438 303.878906 113.898438 C 306.878906 113.898438 309.3125 111.46875 309.3125 108.46875 L 309.3125 106.753906 C 314.097656 104.898438 317.496094 100.25 317.496094 94.820312 C 317.496094 87.765625 311.761719 82.03125 304.707031 82.03125 Z M 304.707031 82.03125 "/></g></g></svg>