<svg xmlns="http://www.w3.org/2000/svg" xmlns:xlink="http://www.w3.org/1999/xlink" width="500" zoomAndPan="magnify" viewBox="0 0 375 374.999991" height="500" preserveAspectRatio="xMidYMid meet" version="1.2"><defs><clipPath id="e009cb5d62"><path d="M 0 37.5 L 375 37.5 L 375 341.25 L 0 341.25 Z M 0 37.5 "/></clipPath></defs><g id="4f14166d98"><g clip-rule="nonzero" clip-path="url(#e009cb5d62)"><path style=" stroke:none;fill-rule:nonzero;fill:#e6a823;fill-opacity:1;" d="M 349.851562 37.574219 L 24.730469 37.574219 C 11.09375 37.574219 0 48.667969 0 62.304688 L 0 316.445312 C 0 330.082031 11.09375 341.175781 24.730469 341.175781 L 349.851562 341.175781 C 363.488281 341.175781 374.582031 330.082031 374.582031 316.445312 L 374.582031 62.304688 C 374.582031 48.667969 363.488281 37.574219 349.851562 37.574219 Z M 142.324219 66.40625 C 147.5 66.40625 151.710938 70.613281 151.710938 75.789062 C 151.710938 80.964844 147.5 85.171875 142.324219 85.171875 C 137.148438 85.171875 132.941406 80.964844 132.941406 75.789062 C 132.941406 70.613281 137.148438 66.40625 142.324219 66.40625 Z M 100.128906 66.40625 C 105.304688 66.40625 109.515625 70.613281 109.515625 75.789062 C 109.515625 80.964844 105.304688 85.171875 100.128906 85.171875 C 94.953125 85.171875 90.746094 80.964844 90.746094 75.789062 C 90.746094 70.613281 94.953125 66.40625 100.128906 66.40625 Z M 57.933594 66.40625 C 63.109375 66.40625 67.320312 70.613281 67.320312 75.789062 C 67.320312 80.964844 63.109375 85.171875 57.933594 85.171875 C 52.757812 85.171875 48.550781 80.964844 48.550781 75.789062 C 48.550781 70.613281 52.757812 66.40625 57.933594 66.40625 Z M 351.484375 316.445312 C 351.484375 317.316406 350.722656 318.078125 349.851562 318.078125 L 24.730469 318.078125 C 23.859375 318.078125 23.09375 317.316406 23.09375 316.445312 L 23.09375 112.265625 L 351.484375 112.265625 Z M 351.484375 316.445312 "/></g><path style=" stroke:none;fill-rule:nonzero;fill:#e6a823;fill-opacity:1;" d="M 96.25 281.734375 C 126.753906 281.734375 151.574219 256.914062 151.574219 226.410156 C 151.574219 225.191406 150.582031 224.199219 149.363281 224.199219 L 98.457031 224.199219 L 98.457031 173.292969 C 98.457031 172.074219 97.464844 171.085938 96.25 171.085938 C 65.746094 171.085938 40.925781 195.90625 40.925781 226.410156 C 40.925781 256.914062 65.746094 281.734375 96.25 281.734375 Z M 96.25 281.734375 "/><path style=" stroke:none;fill-rule:nonzero;fill:#e6a823;fill-opacity:1;" d="M 110.890625 213.96875 L 164.007812 213.96875 C 165.222656 213.96875 166.214844 212.976562 166.214844 211.757812 C 166.214844 181.253906 141.394531 156.433594 110.890625 156.433594 C 109.671875 156.433594 108.679688 157.425781 108.679688 158.644531 L 108.679688 211.757812 C 108.679688 212.976562 109.671875 213.96875 110.890625 213.96875 Z M 110.890625 213.96875 "/><path style=" stroke:none;fill-rule:nonzero;fill:#e6a823;fill-opacity:1;" d="M 246.246094 157.128906 L 273.472656 157.128906 C 273.765625 157.128906 274.050781 157.1875 274.320312 157.300781 C 274.589844 157.410156 274.828125 157.570312 275.035156 157.777344 C 275.242188 157.984375 275.402344 158.222656 275.515625 158.496094 C 275.628906 158.765625 275.683594 159.046875 275.683594 159.339844 L 275.683594 260.613281 C 275.683594 260.90625 275.628906 261.1875 275.515625 261.460938 C 275.402344 261.730469 275.242188 261.96875 275.035156 262.175781 C 274.828125 262.382812 274.589844 262.542969 274.320312 262.65625 C 274.050781 262.765625 273.765625 262.824219 273.472656 262.824219 L 246.246094 262.824219 C 245.953125 262.824219 245.671875 262.765625 245.402344 262.65625 C 245.132812 262.542969 244.890625 262.382812 244.683594 262.175781 C 244.476562 261.96875 244.316406 261.730469 244.207031 261.460938 C 244.09375 261.1875 244.039062 260.90625 244.039062 260.613281 L 244.039062 159.339844 C 244.039062 159.046875 244.09375 158.765625 244.207031 158.496094 C 244.316406 158.222656 244.476562 157.984375 244.683594 157.777344 C 244.890625 157.570312 245.132812 157.410156 245.402344 157.300781 C 245.671875 157.1875 245.953125 157.128906 246.246094 157.128906 Z M 246.246094 157.128906 "/><path style=" stroke:none;fill-rule:nonzero;fill:#e6a823;fill-opacity:1;" d="M 290.710938 175.15625 L 317.941406 175.15625 C 318.234375 175.15625 318.515625 175.210938 318.785156 175.324219 C 319.054688 175.4375 319.296875 175.597656 319.503906 175.804688 C 319.710938 176.011719 319.867188 176.25 319.980469 176.519531 C 320.09375 176.789062 320.148438 177.074219 320.148438 177.367188 L 320.148438 260.613281 C 320.148438 260.90625 320.09375 261.1875 319.980469 261.460938 C 319.867188 261.730469 319.710938 261.96875 319.503906 262.175781 C 319.296875 262.382812 319.054688 262.542969 318.785156 262.65625 C 318.515625 262.765625 318.234375 262.824219 317.941406 262.824219 L 290.710938 262.824219 C 290.417969 262.824219 290.136719 262.765625 289.867188 262.65625 C 289.597656 262.542969 289.355469 262.382812 289.148438 262.175781 C 288.941406 261.96875 288.785156 261.730469 288.671875 261.460938 C 288.558594 261.1875 288.503906 260.90625 288.503906 260.613281 L 288.503906 177.367188 C 288.503906 177.074219 288.558594 176.789062 288.671875 176.519531 C 288.785156 176.25 288.941406 176.011719 289.148438 175.804688 C 289.355469 175.597656 289.597656 175.4375 289.867188 175.324219 C 290.136719 175.210938 290.417969 175.15625 290.710938 175.15625 Z M 290.710938 175.15625 "/><path style=" stroke:none;fill-rule:nonzero;fill:#e6a823;fill-opacity:1;" d="M 201.273438 207.203125 L 229.523438 207.203125 C 229.816406 207.203125 230.097656 207.257812 230.367188 207.371094 C 230.640625 207.484375 230.878906 207.644531 231.085938 207.851562 C 231.292969 208.058594 231.453125 208.296875 231.566406 208.566406 C 231.675781 208.839844 231.734375 209.121094 231.734375 209.414062 L 231.734375 260.613281 C 231.734375 260.90625 231.675781 261.1875 231.566406 261.460938 C 231.453125 261.730469 231.292969 261.96875 231.085938 262.175781 C 230.878906 262.382812 230.640625 262.542969 230.367188 262.65625 C 230.097656 262.765625 229.816406 262.824219 229.523438 262.824219 L 201.273438 262.824219 C 200.980469 262.824219 200.699219 262.765625 200.429688 262.65625 C 200.160156 262.542969 199.917969 262.382812 199.710938 262.175781 C 199.503906 261.96875 199.34375 261.730469 199.234375 261.460938 C 199.121094 261.1875 199.066406 260.90625 199.066406 260.613281 L 199.066406 209.414062 C 199.066406 209.121094 199.121094 208.839844 199.234375 208.566406 C 199.34375 208.296875 199.503906 208.058594 199.710938 207.851562 C 199.917969 207.644531 200.160156 207.484375 200.429688 207.371094 C 200.699219 207.257812 200.980469 207.203125 201.273438 207.203125 Z M 201.273438 207.203125 "/><path style=" stroke:none;fill-rule:nonzero;fill:#e6a823;fill-opacity:1;" d="M 186.996094 266.449219 L 332.167969 266.449219 C 332.460938 266.449219 332.742188 266.503906 333.011719 266.617188 C 333.28125 266.726562 333.519531 266.886719 333.730469 267.09375 C 333.9375 267.300781 334.09375 267.542969 334.207031 267.8125 C 334.320312 268.082031 334.375 268.363281 334.375 268.65625 L 334.375 281.015625 C 334.375 281.308594 334.320312 281.589844 334.207031 281.859375 C 334.09375 282.132812 333.9375 282.371094 333.730469 282.578125 C 333.519531 282.785156 333.28125 282.945312 333.011719 283.054688 C 332.742188 283.167969 332.460938 283.222656 332.167969 283.222656 L 186.996094 283.222656 C 186.703125 283.222656 186.421875 283.167969 186.148438 283.054688 C 185.878906 282.945312 185.640625 282.785156 185.433594 282.578125 C 185.226562 282.371094 185.066406 282.132812 184.953125 281.859375 C 184.839844 281.589844 184.785156 281.308594 184.785156 281.015625 L 184.785156 268.65625 C 184.785156 268.363281 184.839844 268.082031 184.953125 267.8125 C 185.066406 267.542969 185.226562 267.300781 185.433594 267.09375 C 185.640625 266.886719 185.878906 266.726562 186.148438 266.617188 C 186.421875 266.503906 186.703125 266.449219 186.996094 266.449219 Z M 186.996094 266.449219 "/></g></svg>