<svg width="21" height="21" viewBox="0 0 21 21" fill="none" xmlns="http://www.w3.org/2000/svg">
<g clip-path="url(#clip0_1_372)">
<path d="M20.5 20.4512H16.3451L16.347 13.3025C16.2667 11.6713 15.8553 10.3228 13.9238 10.4486C12.245 10.5581 11.7808 11.8805 11.6998 13.3514L11.7018 20.5001H7.54688V7.13333H11.4817L11.5548 7.20632V8.98682L12.213 8.107C13.5556 6.784 15.6464 6.56568 17.4088 7.07141C19.6073 7.70228 20.2571 9.604 20.4503 11.6947L20.5 20.4512Z" fill="#909090"/>
<path d="M4.95713 7.1333H0.802246V20.5001H4.95713V7.1333Z" fill="#909090"/>
<path d="M2.64898 0.513194C5.84399 0.217312 6.18419 5.08762 3.07407 5.32745C-0.0595647 5.56924 -0.485958 0.803209 2.64898 0.513194Z" fill="#909090"/>
</g>
<defs>
<clipPath id="clip0_1_372">
<rect width="20" height="20" fill="white" transform="translate(0.5 0.5)"/>
</clipPath>
</defs>
</svg>
