<svg width="21" height="15" viewBox="0 0 21 15" fill="none" xmlns="http://www.w3.org/2000/svg">
<g clip-path="url(#clip0_1_360)">
<path d="M2.18765 12.8841C2.24534 13.024 2.27528 13.1729 2.33737 13.312C2.35322 13.3475 2.37788 13.4559 2.43424 13.4351L6.27395 9.86725C6.77637 9.52241 7.41089 10.0571 7.06038 10.5676L3.21011 14.155C3.21143 14.225 3.78078 14.3726 3.88382 14.3555C8.47209 14.326 13.0714 14.4078 17.653 14.3142C17.7147 14.2966 18.059 14.2107 18.026 14.1395L14.2039 10.5856C13.8239 10.098 14.4589 9.51096 14.9771 9.86725L18.8168 13.4351C18.8745 13.4572 18.9155 13.3079 18.9326 13.2678C19.0022 13.1033 19.052 12.9254 19.0652 12.7479V4.35556L18.8653 3.69861L18.7829 3.72847L11.7468 10.2972C11.0617 10.8314 10.1903 10.8314 9.50467 10.2972L2.36863 3.82092C2.3039 3.80987 2.32812 3.83074 2.31271 3.85937C2.28056 3.91746 2.19602 4.18662 2.18809 4.24961V12.8845L2.18765 12.8841Z" fill="#E8A80F"/>
<path d="M3.31632 2.84985C3.30381 2.89424 3.32926 2.90122 3.34781 2.92712C3.55655 3.21771 4.25611 3.79726 4.55845 4.08086C6.45959 5.86512 8.40386 7.61567 10.289 9.41884C10.55 9.61079 10.8044 9.61079 11.0654 9.41884L17.9402 2.83382C17.9402 2.76518 17.4062 2.62419 17.3122 2.63283H4.07324C3.80368 2.64269 3.55655 2.74668 3.31632 2.84985Z" fill="#E8A80F"/>
</g>
<defs>
<clipPath id="clip0_1_360">
<rect width="20" height="14" fill="white" transform="matrix(-1 0 0 1 20.5 0.5)"/>
</clipPath>
</defs>
</svg>
