<svg width="11" height="21" viewBox="0 0 11 21" fill="none" xmlns="http://www.w3.org/2000/svg">
<g clip-path="url(#clip0_1_370)">
<path d="M3.32523 7.678C3.32523 5.56629 3.07665 3.2912 4.62431 1.70807C6.17196 0.124943 8.20363 0.563688 10.1164 0.514215C10.3584 0.54481 10.4331 0.678907 10.4534 0.926922C10.5156 1.66446 10.5156 3.16621 10.4534 3.90375C10.4223 4.27544 10.2467 4.33273 9.93533 4.36332C9.3336 4.42256 8.65359 4.30604 8.05245 4.36267C7.68795 4.39652 7.36587 4.54754 7.24636 4.94788C7.2356 4.98434 7.18063 5.24928 7.18063 5.26555V7.62852H10.0262C10.2479 7.62852 10.347 7.93838 10.3638 8.13822C10.4265 8.87836 10.4373 10.58 10.362 11.3071C10.3441 11.4789 10.258 11.7211 10.071 11.7211H7.18003V20.1262C7.18003 20.1393 7.08143 20.3313 7.05992 20.3489C6.97387 20.4166 6.77608 20.4368 6.66673 20.4452C5.93294 20.5019 4.46237 20.5305 3.75188 20.4433C3.61385 20.4263 3.32583 20.2909 3.32583 20.1269V11.7706H0.972679C0.933839 11.7706 0.694819 11.6677 0.659563 11.6234C0.589052 11.5349 0.554394 11.2843 0.545431 11.1632C0.488066 10.4302 0.480896 8.96429 0.547821 8.23847C0.565748 8.03993 0.654783 7.67735 0.883644 7.67735H3.32643L3.32523 7.678Z" fill="#909090"/>
</g>
<defs>
<clipPath id="clip0_1_370">
<rect width="10" height="20" fill="white" transform="translate(0.5 0.5)"/>
</clipPath>
</defs>
</svg>
