<svg width="32" height="34" viewBox="0 0 32 34" fill="none" xmlns="http://www.w3.org/2000/svg">
<g clip-path="url(#clip0_1_4350)">
<path d="M11.3882 33.8902C9.22332 33.6795 7.2533 31.9079 6.7533 29.8126C3.37323 29.2976 1.27623 25.8258 2.46406 22.5789C0.370584 20.7482 -0.163808 17.7244 1.41908 15.3735C1.98434 14.5331 3.31591 13.3717 4.35559 13.2932L27.7912 13.2959C31.8609 14.5428 32.7789 19.8726 29.5531 22.5789C30.741 25.8188 28.644 29.3038 25.2639 29.8126C24.7595 31.914 22.7992 33.6795 20.629 33.8902H19.4411C18.1184 33.6592 16.9596 33.0886 16.0328 32.1124C15.5267 32.5057 15.0637 32.9608 14.4923 33.2641C13.8856 33.586 13.2392 33.7385 12.5769 33.8902C12.1925 33.8638 11.7665 33.9273 11.3891 33.8902H11.3882ZM14.6889 15.9361H4.62279C4.59104 15.9361 4.25771 16.1812 4.19333 16.2324C3.05841 17.1274 2.80445 18.7059 3.61221 19.9176C3.69951 20.0489 3.9376 20.3902 4.08311 20.3505C4.18363 20.3232 4.85295 19.7976 5.07341 19.6865C5.81326 19.3144 6.66864 19.1354 7.49492 19.1045V21.7447C5.34942 21.8161 4.03901 24.1107 5.22332 25.9643C6.34942 27.7253 8.81238 27.5375 9.90409 25.8435L12.1104 27.1989C11.5328 28.2368 10.5372 29.0763 9.40938 29.4687C10.1951 31.578 13.0937 31.9008 14.2815 29.9493C14.3979 29.7579 14.6907 29.0966 14.6907 28.9061V15.9352L14.6889 15.9361ZM24.524 19.1045C25.3988 19.1362 26.3044 19.3364 27.076 19.7535C27.2665 19.8567 27.8415 20.325 27.9358 20.3505C28.0813 20.3902 28.3194 20.0489 28.4067 19.9176C29.2145 18.7059 28.9596 17.1274 27.8256 16.2324C27.7604 16.1812 27.427 15.9361 27.3962 15.9361H17.33V28.907C17.33 29.1292 17.6104 29.7403 17.7392 29.9502C18.9402 31.9026 21.815 31.5807 22.6104 29.4696C21.4764 29.0657 20.487 28.2482 19.9094 27.1997L22.1157 25.8444C23.211 27.5357 25.6678 27.7315 26.7965 25.9652C27.9808 24.1124 26.6704 21.8179 24.5249 21.7456V19.1054L24.524 19.1045Z" fill="#E6A823"/>
<path d="M5.24954 0.0938721L8.41797 5.50657V0.0938721H11.0582V10.6556H8.28569L5.11726 5.2429V10.6556H2.47705V0.0938721H5.24954Z" fill="#E6A823"/>
<path d="M24.2603 8.01451V10.6547H21.6201V0.0938721H26.076C27.8221 0.0938721 29.4499 2.16266 29.5443 3.8205C29.6483 5.65736 28.0187 8.01539 26.076 8.01539H24.2612L24.2603 8.01451ZM24.2603 5.3743H25.8115C26.4032 5.3743 26.9164 4.58153 26.9058 4.02156C26.8953 3.4616 26.3714 2.73408 25.8115 2.73408H24.2603V5.3743Z" fill="#E6A823"/>
<path d="M16.3385 0.0938721V8.01451H18.9787V10.6556H13.6982V0.0938721H16.3385Z" fill="#E6A823"/>
</g>
<defs>
<clipPath id="clip0_1_4350">
<rect width="31" height="33.8078" fill="white" transform="translate(0.5 0.0938721)"/>
</clipPath>
</defs>
</svg>
