<svg width="57" height="57" viewBox="0 0 57 57" fill="none" xmlns="http://www.w3.org/2000/svg">
<g clip-path="url(#clip0_1_116)">
<g opacity="0.9">
<path d="M40.0941 33.5955C39.5891 33.5955 39.084 33.4059 38.7006 33.028L24.0554 18.5962C23.6826 18.2288 23.4782 17.7417 23.4782 17.2229C23.4782 16.7041 23.6826 16.2157 24.0554 15.8496L38.7006 1.41644C39.4688 0.659364 40.7194 0.659364 41.4877 1.41644L56.1329 15.8483C56.9011 16.6054 56.9011 17.8378 56.1329 18.5948L41.4877 33.0267C41.1029 33.4059 40.5992 33.5942 40.0941 33.5942V33.5955ZM40.0875 2.79761L25.457 17.2295L40.1022 31.6469L54.7339 17.215L40.0888 2.79761H40.0875Z" fill="#E6A823"/>
<path d="M17.0341 33.5955C16.5291 33.5955 16.024 33.4059 15.6406 33.028L0.995415 18.5962C0.622638 18.2288 0.418213 17.7417 0.418213 17.2229C0.418213 16.7041 0.622638 16.2157 0.995415 15.8496L15.6406 1.41645C16.0133 1.0491 16.5077 0.847656 17.0341 0.847656C17.5606 0.847656 18.0563 1.0491 18.4277 1.41645L33.0729 15.8483C33.4456 16.2157 33.6501 16.7028 33.6501 17.2216C33.6501 17.7403 33.4456 18.2288 33.0729 18.5949L18.4277 33.0267C18.0429 33.4059 17.5379 33.5942 17.0341 33.5942V33.5955ZM17.0275 2.79762L2.397 17.2295L17.0422 31.6469L31.674 17.215L17.0275 2.79762Z" fill="#E6A823"/>
<path d="M40.0167 56.1709C39.4902 56.1709 38.9945 55.9695 38.6231 55.6021L23.9779 41.1703C23.2097 40.4132 23.2097 39.1808 23.9779 38.4224L38.6231 23.9905C39.3914 23.2335 40.642 23.2335 41.4102 23.9905L56.0554 38.4224C56.8236 39.1795 56.8236 40.4119 56.0554 41.1703L41.4102 55.6021C41.0388 55.9695 40.5431 56.1709 40.0167 56.1709ZM40.01 25.3717L25.3782 39.8036L40.0233 54.221L54.6551 39.7891L40.01 25.3717Z" fill="#E6A823"/>
<path d="M16.958 56.1709C16.4315 56.1709 15.9358 55.9695 15.5644 55.6021L0.919248 41.1703C0.150982 40.4132 0.150982 39.1808 0.919248 38.4224L15.5644 23.9905C16.3327 23.2335 17.5833 23.2335 18.3529 23.9905L32.998 38.4224C33.7663 39.1795 33.7663 40.4119 32.998 41.1703L18.3529 55.6021C17.9801 55.9695 17.4857 56.1709 16.9593 56.1709H16.958ZM16.95 25.3717L2.3195 39.8036L16.9647 54.221L31.5965 39.7891L16.9513 25.3717H16.95Z" fill="#E6A823"/>
</g>
<g opacity="0.7">
<path d="M24.491 40.3973H0.51709V16.6027H24.491V40.3973ZM1.69955 39.2228H23.3085V17.7758H1.69955V39.2228Z" fill="#BB922E"/>
<path d="M56.4829 40.3973H32.509V16.6027H56.4829V40.3973ZM33.6915 39.2228H55.3005V17.7758H33.6915V39.2228Z" fill="#BB922E"/>
<path d="M40.487 24.7949H16.5131V1.00159H40.487V24.7962V24.7949ZM17.6955 23.6217H39.3045V2.17473H17.6955V23.6217Z" fill="#BB922E"/>
<path d="M40.487 55.9983H16.5131V32.2037H40.487V55.9983ZM17.6955 54.8239H39.3045V33.3769H17.6955V54.8239Z" fill="#BB922E"/>
</g>
<path d="M1.69954 18.8963C2.63817 18.8963 3.39908 18.1465 3.39908 17.2215C3.39908 16.2966 2.63817 15.5468 1.69954 15.5468C0.760909 15.5468 0 16.2966 0 17.2215C0 18.1465 0.760909 18.8963 1.69954 18.8963Z" fill="#E6A823"/>
<path d="M24.491 18.8963C25.4296 18.8963 26.1905 18.1465 26.1905 17.2215C26.1905 16.2966 25.4296 15.5468 24.491 15.5468C23.5524 15.5468 22.7914 16.2966 22.7914 17.2215C22.7914 18.1465 23.5524 18.8963 24.491 18.8963Z" fill="#E6A823"/>
<path d="M16.958 3.84957C17.8966 3.84957 18.6575 3.09975 18.6575 2.17479C18.6575 1.24983 17.8966 0.5 16.958 0.5C16.0193 0.5 15.2584 1.24983 15.2584 2.17479C15.2584 3.09975 16.0193 3.84957 16.958 3.84957Z" fill="#E6A823"/>
<path d="M40.0166 3.84957C40.9553 3.84957 41.7162 3.09975 41.7162 2.17479C41.7162 1.24983 40.9553 0.5 40.0166 0.5C39.078 0.5 38.3171 1.24983 38.3171 2.17479C38.3171 3.09975 39.078 3.84957 40.0166 3.84957Z" fill="#E6A823"/>
<path d="M16.9713 56.4987C17.91 56.4987 18.6709 55.7489 18.6709 54.824C18.6709 53.899 17.91 53.1492 16.9713 53.1492C16.0327 53.1492 15.2718 53.899 15.2718 54.824C15.2718 55.7489 16.0327 56.4987 16.9713 56.4987Z" fill="#E6A823"/>
<path d="M40.03 56.4987C40.9686 56.4987 41.7296 55.7489 41.7296 54.824C41.7296 53.899 40.9686 53.1492 40.03 53.1492C39.0914 53.1492 38.3305 53.899 38.3305 54.824C38.3305 55.7489 39.0914 56.4987 40.03 56.4987Z" fill="#E6A823"/>
<path d="M32.509 18.8963C33.4476 18.8963 34.2086 18.1465 34.2086 17.2215C34.2086 16.2966 33.4476 15.5468 32.509 15.5468C31.5704 15.5468 30.8095 16.2966 30.8095 17.2215C30.8095 18.1465 31.5704 18.8963 32.509 18.8963Z" fill="#E6A823"/>
<path d="M55.3005 18.8963C56.2391 18.8963 57 18.1465 57 17.2215C57 16.2966 56.2391 15.5468 55.3005 15.5468C54.3618 15.5468 53.6009 16.2966 53.6009 17.2215C53.6009 18.1465 54.3618 18.8963 55.3005 18.8963Z" fill="#E6A823"/>
<path d="M1.69954 41.4716C2.63817 41.4716 3.39908 40.7218 3.39908 39.7969C3.39908 38.8719 2.63817 38.1221 1.69954 38.1221C0.760909 38.1221 0 38.8719 0 39.7969C0 40.7218 0.760909 41.4716 1.69954 41.4716Z" fill="#E6A823"/>
<path d="M24.491 41.4716C25.4296 41.4716 26.1905 40.7218 26.1905 39.7969C26.1905 38.8719 25.4296 38.1221 24.491 38.1221C23.5524 38.1221 22.7914 38.8719 22.7914 39.7969C22.7914 40.7218 23.5524 41.4716 24.491 41.4716Z" fill="#E6A823"/>
<path d="M32.509 41.4716C33.4476 41.4716 34.2086 40.7218 34.2086 39.7969C34.2086 38.8719 33.4476 38.1221 32.509 38.1221C31.5704 38.1221 30.8095 38.8719 30.8095 39.7969C30.8095 40.7218 31.5704 41.4716 32.509 41.4716Z" fill="#E6A823"/>
<path d="M55.3005 41.4716C56.2391 41.4716 57 40.7218 57 39.7969C57 38.8719 56.2391 38.1221 55.3005 38.1221C54.3618 38.1221 53.6009 38.8719 53.6009 39.7969C53.6009 40.7218 54.3618 41.4716 55.3005 41.4716Z" fill="#E6A823"/>
</g>
<defs>
<clipPath id="clip0_1_116">
<rect width="57" height="56" fill="white" transform="translate(0 0.5)"/>
</clipPath>
</defs>
</svg>
