<svg width="34" height="42" viewBox="0 0 34 42" fill="none" xmlns="http://www.w3.org/2000/svg">
<g clip-path="url(#clip0_1_4334)">
<path d="M13.6014 5.66032H15.8667V1.26257C15.8667 0.742172 16.5446 0.200564 16.9648 0.188084C17.4118 0.175605 18.1331 0.70099 18.1331 1.26257V5.66032H20.3985V1.26257C20.3985 0.742172 21.0763 0.200564 21.4955 0.188084C21.9425 0.175605 22.6638 0.70099 22.6638 1.26257V5.66032H26.5229C27.7275 5.66032 29.4609 7.74689 29.4609 9.20324V13.8568H33.1079C33.5394 13.8568 33.9886 14.6742 33.9989 15.1809C34.0093 15.72 33.5736 16.5898 33.1079 16.5898H29.4609V19.3216H33.1079C33.5394 19.3216 33.9886 20.139 33.9989 20.6457C34.0093 21.1848 33.5736 22.0546 33.1079 22.0546H29.4609V24.7863H33.1079C33.5394 24.7863 33.9886 25.6037 33.9989 26.1104C34.0093 26.6495 33.5736 27.5193 33.1079 27.5193H29.4609V32.1729C29.4609 33.6305 27.7275 35.7158 26.5229 35.7158H22.6638V40.1136C22.6638 40.634 21.986 41.1756 21.5658 41.1881C21.1188 41.2006 20.3975 40.6752 20.3975 40.1136V35.7158H18.1321V40.1136C18.1321 40.634 17.4543 41.1756 17.0341 41.1881C16.587 41.2006 15.8657 40.6752 15.8657 40.1136V35.7158H13.6004V40.1136C13.6004 40.634 12.9225 41.1756 12.5023 41.1881C12.0553 41.2006 11.334 40.6752 11.334 40.1136V35.7158H7.47489C6.26615 35.7158 4.53686 33.6255 4.53686 32.1729V27.5193H0.89097C0.459424 27.5181 0.0102854 26.7007 -6.34019e-05 26.1953C-0.0104122 25.6562 0.425273 24.7863 0.89097 24.7863H4.53789V22.0546H0.89097C0.425273 22.0533 -0.0104122 21.1835 -6.34019e-05 20.6457C0.0102854 20.1402 0.459424 19.3216 0.89097 19.3216H4.53789V16.5898H0.89097C0.459424 16.5898 0.0102854 15.7712 -6.34019e-05 15.2658C-0.0104122 14.7266 0.425273 13.8568 0.89097 13.8568H4.53789V9.20324C4.53789 7.74564 6.27132 5.66032 7.47592 5.66032H11.335V1.26257C11.335 0.742172 12.0128 0.200564 12.433 0.188084C12.8801 0.175605 13.6014 0.70099 13.6014 1.26257V5.66032ZM7.70463 8.41204C7.32172 8.53185 7.02678 8.84883 6.87052 9.28436C6.75875 16.8631 6.75875 24.5118 6.87052 32.0906C7.00505 32.4662 7.23169 32.7382 7.54319 32.9017C13.8301 33.0365 20.1708 33.0365 26.4557 32.9017C26.7671 32.7395 26.9928 32.4662 27.1283 32.0906C27.2401 24.5093 27.2401 16.8631 27.1283 9.28436C26.9514 8.78768 26.5633 8.40331 26.1007 8.38833L7.70463 8.41204Z" fill="#E8A80F"/>
<path d="M15.4259 19.3454C19.5737 18.7426 20.7773 25.9795 16.8241 27.351C12.1122 28.9858 10.7245 20.0293 15.4259 19.3454ZM15.636 22.0747C14.272 22.3405 14.5049 25.076 16.0976 24.7652C17.4615 24.4994 17.2287 21.7639 15.636 22.0747Z" fill="#E8A80F"/>
<path d="M22.6639 17.9553L22.6577 26.3577C22.4041 27.9076 20.6572 27.9076 20.4047 26.3577L20.3985 17.9553H19.018C18.6754 17.9553 18.2046 17.2751 18.1497 16.867C18.0203 15.9024 18.5295 15.2871 19.2974 15.2185C20.4999 15.1112 22.6432 15.0925 23.8353 15.2185C24.7574 15.3159 25.2645 16.469 24.7181 17.3999C24.6146 17.5771 24.21 17.954 24.0454 17.954H22.6649L22.6639 17.9553Z" fill="#E8A80F"/>
<path d="M9.97103 15.2435C10.7089 15.0987 11.2729 15.6566 11.3381 16.5426C11.5668 19.6637 11.1663 23.1942 11.3288 26.3577C11.0587 27.975 9.19073 27.8964 9.06655 26.198C8.83991 23.0993 9.24247 19.6013 9.06965 16.4602C9.10587 15.8849 9.50327 15.3346 9.97207 15.2435H9.97103Z" fill="#E8A80F"/>
</g>
<defs>
<clipPath id="clip0_1_4334">
<rect width="34" height="41" fill="white" transform="translate(0 0.188232)"/>
</clipPath>
</defs>
</svg>
