<svg width="18" height="17" viewBox="0 0 18 17" fill="none" xmlns="http://www.w3.org/2000/svg">
<g clip-path="url(#clip0_1_355)">
<path d="M9.66323 0L10.6986 0.143434C15.7064 1.09134 18.7662 6.2695 16.992 11.1289C15.4084 15.4666 10.5025 17.659 6.16898 16.0251C5.82801 15.8962 5.50921 15.7036 5.16616 15.6003L0.773746 16.9889C0.638606 17.0353 0.596331 16.9231 0.5 16.8628V16.6965L1.92695 12.5265L1.91309 12.4136C-1.1501 7.05735 2.44395 0.479498 8.55369 0.0346458L8.63408 0H9.66323ZM3.12311 14.4397L5.39763 13.7253C5.73375 13.8625 6.03106 14.0821 6.3651 14.236C9.96192 15.8955 14.267 14.0149 15.4576 10.2572C16.5665 6.75662 14.5442 3.04052 11.0583 2.00807C5.32695 0.311119 0.433469 6.41294 3.46131 11.6285C3.60477 11.8759 3.89168 12.1143 3.80575 12.4171L3.12381 14.4397H3.12311Z" fill="#E6A823"/>
<path d="M6.83353 4.39095C7.09064 4.39095 7.23618 4.49142 7.36647 4.70276C7.5522 5.00488 7.99019 6.04979 8.09346 6.39902C8.25354 6.94019 7.74694 7.29011 7.4725 7.68369C7.98742 8.49994 8.81213 9.33976 9.67425 9.79777C9.7886 9.85875 10.1822 10.0687 10.2793 9.99387C10.499 9.79362 10.8517 9.15128 11.0908 9.04458C11.368 8.92054 11.6217 9.08199 11.8774 9.18801C12.2606 9.34807 12.9481 9.65365 13.2794 9.87746C13.5414 10.0535 13.5074 10.3355 13.4776 10.6341C13.3577 11.8176 12.1227 12.3747 11.0451 12.2445C8.71718 11.9631 6.14535 9.81579 5.24164 7.68992C4.64772 6.29231 5.00878 4.39234 6.83353 4.39026V4.39095Z" fill="#E6A823"/>
</g>
<defs>
<clipPath id="clip0_1_355">
<rect width="17" height="17" fill="white" transform="translate(0.5)"/>
</clipPath>
</defs>
</svg>
