<svg width="64" height="64" viewBox="0 0 64 64" fill="none" xmlns="http://www.w3.org/2000/svg">
<g clip-path="url(#clip0_1_294)">
<path d="M58.0416 27.325V44.4937C58.0416 46.6163 55.621 49.33 53.5196 49.6793C39.6343 50.1898 25.6426 49.7599 11.7041 49.8942C9.12392 49.948 5.9585 47.1268 5.9585 44.4937V27.325H58.0416ZM40.5387 38.5827C39.2353 39.0395 39.0225 40.974 40.4057 41.4576C41.3633 41.78 46.2844 41.7263 47.508 41.6188C49.6626 41.4307 50.0616 39.3619 48.1464 38.5827H40.5387Z" fill="white"/>
<path d="M58.0416 24.262H5.9585V19.5332C5.9585 16.9001 9.15052 14.079 11.7041 14.1327H52.03C54.7166 13.9715 58.0416 16.7926 58.0416 19.5332V24.262Z" fill="white"/>
<path d="M14.763 2.57931C14.5768 2.79425 14.1246 2.98233 13.832 3.03607C11.3848 3.33162 8.37901 2.76739 5.90519 3.03607C4.65499 3.17041 3.37818 4.05706 3.21858 5.3736C2.89937 7.79174 3.43138 10.8816 3.21858 13.3803C3.00578 15.691 0.372359 15.6104 0.159557 13.5147C-0.0532439 11.4189 -0.0266437 7.38871 0.159557 5.3736C0.851162 -1.74647 9.12381 0.402986 13.965 0.0805677C15.1355 0.214909 15.5611 1.74639 14.763 2.57931Z" fill="white"/>
<path d="M61.8453 48.9807C63.0157 48.712 63.7605 49.33 63.8669 50.4853C64.0531 52.4467 64.0531 56.665 63.8669 58.6263C63.6807 60.5877 62.4305 62.4416 60.7281 63.3283C58.0681 64.6717 53.0939 63.5432 50.0881 63.9194C48.5718 63.7313 48.4654 61.5012 49.9019 61.0445C52.5619 60.7221 55.5411 61.2594 58.1745 60.9908C59.5045 60.8564 60.7281 59.916 60.8877 58.5189C61.1537 55.9933 60.5685 52.8497 60.8877 50.3778C60.9675 49.8405 61.3133 49.115 61.8985 48.9807H61.8453Z" fill="white"/>
<path d="M49.237 2.57938C48.4656 1.74646 48.8912 0.214978 50.035 0.0806368C53.0142 0.456791 57.9884 -0.644804 60.5952 0.644868C62.3508 1.50465 63.6277 3.41229 63.8405 5.37367C64.0533 7.33504 64.0533 11.5265 63.8405 13.5147C63.6543 15.6104 60.9942 15.7179 60.7814 13.3804C60.5686 10.8816 61.1006 7.7918 60.7814 5.37367C60.5952 4.03026 59.345 3.14361 58.0948 3.03614C55.621 2.79432 52.5886 3.33169 50.168 3.03614C49.8754 3.00927 49.4232 2.79432 49.237 2.57938Z" fill="white"/>
<path d="M14.7631 61.4207C15.5345 62.2536 15.1089 63.7851 13.9651 63.9194C10.9859 63.5433 6.01164 64.6449 3.40482 63.3552C1.64921 62.4954 0.372402 60.5878 0.159601 58.6264C-0.0532003 56.665 -0.0532003 52.4736 0.159601 50.4853C0.345802 48.3896 3.00582 48.2821 3.21862 50.6197C3.43142 53.1184 2.89942 56.2082 3.21862 58.6264C3.40482 59.9698 4.65503 60.8564 5.90524 60.9639C8.37905 61.2057 11.4115 60.6684 13.8321 60.9639C14.1247 60.9908 14.5769 61.2057 14.7631 61.4207Z" fill="white"/>
</g>
<defs>
<clipPath id="clip0_1_294">
<rect width="64" height="64" fill="white"/>
</clipPath>
</defs>
</svg>
