<svg width="38" height="38" viewBox="0 0 38 38" fill="none" xmlns="http://www.w3.org/2000/svg">
<mask id="mask0_1_4324" style="mask-type:alpha" maskUnits="userSpaceOnUse" x="0" y="-1" width="38" height="39">
<rect y="-0.000488281" width="37.0944" height="37.0944" fill="#D9D9D9"/>
</mask>
<g mask="url(#mask0_1_4324)">
<path d="M1.54565 32.4571V29.3659H35.5488V32.4571H1.54565ZM6.18245 27.8203C5.33237 27.8203 4.60465 27.5176 3.99929 26.9123C3.39393 26.3069 3.09125 25.5792 3.09125 24.7291V7.72755C3.09125 6.87747 3.39393 6.14975 3.99929 5.54439C4.60465 4.93903 5.33237 4.63635 6.18245 4.63635H30.912C31.7621 4.63635 32.4898 4.93903 33.0952 5.54439C33.7005 6.14975 34.0032 6.87747 34.0032 7.72755V24.7291C34.0032 25.5792 33.7005 26.3069 33.0952 26.9123C32.4898 27.5176 31.7621 27.8203 30.912 27.8203H6.18245ZM6.18245 24.7291H30.912V7.72755H6.18245V24.7291Z" fill="#E6A823"/>
</g>
</svg>
