<svg width="38" height="38" viewBox="0 0 38 38" fill="none" xmlns="http://www.w3.org/2000/svg">
<mask id="mask0_1_4329" style="mask-type:alpha" maskUnits="userSpaceOnUse" x="0" y="0" width="38" height="38">
<rect y="0.0938721" width="37.0944" height="37.0944" fill="#D9D9D9"/>
</mask>
<g mask="url(#mask0_1_4329)">
<path d="M13.2921 24.2052L7.72791 18.6411L13.2921 13.0769L15.4559 15.2794L12.0942 18.6411L15.4559 22.0028L13.2921 24.2052ZM23.8021 24.2052L21.6383 22.0028L25 18.6411L21.6383 15.2794L23.8021 13.0769L29.3663 18.6411L23.8021 24.2052ZM7.72791 32.5515C6.87784 32.5515 6.15012 32.2488 5.54476 31.6434C4.9394 31.0381 4.63672 30.3104 4.63672 29.4603V23.2779H7.72791V29.4603H13.9103V32.5515H7.72791ZM23.1839 32.5515V29.4603H29.3663V23.2779H32.4575V29.4603C32.4575 30.3104 32.1548 31.0381 31.5494 31.6434C30.9441 32.2488 30.2164 32.5515 29.3663 32.5515H23.1839ZM4.63672 14.0043V7.82191C4.63672 6.97183 4.9394 6.24411 5.54476 5.63875C6.15012 5.03339 6.87784 4.73071 7.72791 4.73071H13.9103V7.82191H7.72791V14.0043H4.63672ZM29.3663 14.0043V7.82191H23.1839V4.73071H29.3663C30.2164 4.73071 30.9441 5.03339 31.5494 5.63875C32.1548 6.24411 32.4575 6.97183 32.4575 7.82191V14.0043H29.3663Z" fill="#E6A823"/>
</g>
</svg>
