<svg width="72" height="64" viewBox="0 0 72 64" fill="none" xmlns="http://www.w3.org/2000/svg">
<g clip-path="url(#clip0_1_308)">
<path d="M0.80542 27.0404C0.902884 26.1335 1.40859 24.7018 1.80948 23.8626C3.34683 20.6501 6.68819 18.4212 10.2852 18.2622C10.5481 16.2052 11.0612 14.4408 12.1737 12.68C15.6199 7.2295 22.7789 5.41937 28.4079 8.68675C32.4517 1.70769 40.7876 -1.66025 48.5994 0.802624C55.5286 2.98758 60.5857 9.76186 60.4073 17.0499C71.8767 16.9384 75.4921 32.3153 65.0874 37.168V32.7194C65.0874 32.4945 64.5522 31.4889 64.3757 31.2384C63.4599 29.9402 62.1506 29.4996 60.6132 29.3679L12.981 29.3606C11.0354 29.2016 8.37449 31.1214 8.37449 33.1308V37.8518C4.98901 37.1149 2.11658 34.2809 1.17872 30.9788C1.06839 30.5893 0.84036 29.7245 0.803581 29.3661C0.744735 28.781 0.741057 27.6218 0.803581 27.0385L0.80542 27.0404Z" fill="white"/>
<path d="M12.33 49.5171H61.2734C61.9281 49.7658 62.2572 50.2393 62.3345 50.9231C62.7537 54.5873 62.0476 59.0504 62.3032 62.7987C62.0457 63.7367 61.3709 63.9232 60.4808 63.9981H13.1189C12.2326 64.0182 11.3775 63.6562 11.2634 62.6963C11.5338 58.8585 10.914 54.5617 11.2598 50.7787C11.3296 50.0108 11.6055 49.7712 12.33 49.5171ZM17.6409 59.1601C18.4555 59.9098 19.8476 59.3613 20.0444 58.2807C20.1602 57.6426 20.1492 55.7246 20.015 55.0883C19.6766 53.472 17.5177 53.5871 17.2161 55.059C17.0579 55.8324 17.0524 58.6189 17.639 59.1601H17.6409ZM23.6983 59.1601C24.513 59.9098 25.9051 59.3613 26.1018 58.2807C26.2177 57.6426 26.2067 55.7246 26.0724 55.0883C25.7341 53.472 23.5751 53.5871 23.2736 55.059C23.1154 55.8324 23.1099 58.6189 23.6965 59.1601H23.6983ZM34.903 55.4009C33.4631 55.9641 33.6819 57.9589 35.2837 58.1125H54.975C56.4719 57.9662 56.7882 56.2146 55.5561 55.4759L34.9048 55.4009H34.903Z" fill="white"/>
<path d="M12.33 32.2733H61.2734C61.9281 32.522 62.2572 32.9955 62.3345 33.6794C62.7537 37.3435 62.0476 41.8067 62.3032 45.5549C62.0457 46.4929 61.3709 46.6794 60.4808 46.7544H13.2569C12.3815 46.7361 11.3591 46.4655 11.2634 45.4525C11.5338 41.6147 10.914 37.3179 11.2598 33.5349C11.3296 32.767 11.6055 32.5275 12.33 32.2733ZM18.3912 36.6469C17.8597 36.7474 17.3246 37.2905 17.2179 37.8152C17.0966 38.4113 17.1131 40.9491 17.3558 41.4483C17.913 42.5947 19.6067 42.4686 19.9855 41.2527C20.1915 40.5944 20.1584 38.0529 19.8715 37.4422C19.6214 36.9083 18.9925 36.5335 18.3912 36.6469ZM24.4468 36.6469C23.9153 36.7474 23.3802 37.2905 23.2736 37.8152C23.1522 38.4113 23.1687 40.9491 23.4115 41.4483C23.9687 42.5947 25.6623 42.4686 26.0412 41.2527C26.2471 40.5944 26.214 38.0529 25.9271 37.4422C25.677 36.9083 25.0481 36.5335 24.4468 36.6469ZM35.4602 38.0255C33.5955 38.1425 33.3436 40.6347 35.2837 40.8669H54.975C57.0788 40.4975 56.551 37.9889 54.5576 37.9908L35.462 38.0255H35.4602Z" fill="white"/>
</g>
<defs>
<clipPath id="clip0_1_308">
<rect width="70.481" height="64" fill="white" transform="translate(0.759521)"/>
</clipPath>
</defs>
</svg>
