<svg width="65" height="64" viewBox="0 0 65 64" fill="none" xmlns="http://www.w3.org/2000/svg">
<g clip-path="url(#clip0_1_333)">
<path d="M29.0134 0.085757C43.8306 -1.33908 53.1293 15.2517 43.6963 26.7734C35.3487 36.971 18.7132 33.463 15.2612 20.7346C12.7043 11.2998 19.1254 1.03689 29.0134 0.085757Z" fill="white"/>
<path d="M4.68304 61.0497C2.75654 60.7904 0.774078 58.7334 0.563337 56.7919C0.39176 55.2049 0.41787 51.0795 0.746103 49.5727C1.98258 43.8789 8.454 40.0446 13.5137 38.1889C20.4551 35.6432 28.1145 34.9756 35.4662 35.5034C29.6493 41.613 28.618 50.8744 33.0342 58.1049C33.6721 59.1493 34.4703 60.065 35.1864 61.0478H4.68304V61.0497Z" fill="white"/>
<path d="M48.1387 32.7526C59.6623 32.1278 67.7917 43.9834 63.2691 54.5838C58.5247 65.7028 43.1872 67.3719 36.188 57.4652C29.034 47.3384 35.8355 33.4202 48.1387 32.7526ZM54.2726 42.5156C53.9947 42.5735 53.6907 42.7898 53.4706 42.9688L47.2323 49.1698C46.7978 49.2817 44.4349 47.2098 43.7057 47.0158C41.1936 46.35 39.6662 49.2295 41.6188 50.9173C42.3666 51.5626 45.5389 53.7036 46.3987 54.0952C47.2584 54.4869 47.8795 54.4123 48.6851 53.9609C50.9268 51.4134 54.4535 48.8789 56.4769 46.2568C57.9298 44.3769 56.5366 42.0457 54.2707 42.5156H54.2726Z" fill="white"/>
</g>
<defs>
<clipPath id="clip0_1_333">
<rect width="64.0821" height="64" fill="white" transform="translate(0.458984)"/>
</clipPath>
</defs>
</svg>
