<svg width="68" height="65" viewBox="0 0 68 65" fill="none" xmlns="http://www.w3.org/2000/svg">
<g clip-path="url(#clip0_1_320)">
<path d="M53.005 17.9617H63.6034C65.3178 17.9617 67.4804 20.0983 67.4999 21.8464V50.7289C67.4025 52.2245 65.3373 54.3611 63.8761 54.3611H58.7523V63.5678C58.7523 64.2864 56.9014 64.9663 56.3559 64.1893L47.5694 54.3999L27.6584 54.3611C25.8465 54.2446 23.7424 52.1663 23.7424 50.3599V41.2892H18.3458L10.1437 51.098C9.59817 51.5836 8.66301 51.5447 8.15647 51.0397C8.09802 50.962 7.74734 50.3987 7.74734 50.3599V41.2892H4.12361C2.68191 41.2698 0.480402 39.0361 0.499884 37.521V4.38478C0.772638 2.11224 2.5845 0.674915 4.8055 0.500105H48.563C50.5307 0.422411 53.005 2.55898 53.005 4.52074V17.9423V17.9617ZM10.6307 45.8925L16.4365 38.9389L17.1573 38.4339C27.8337 38.2203 38.5295 38.3368 49.2059 38.2009L49.9657 37.4433V4.32651L49.2059 3.569H4.29895C3.87034 3.72438 3.59759 4.01573 3.44173 4.46247L3.40276 37.2103C3.46121 37.4822 3.55862 37.7347 3.77293 37.9289C4.72757 38.8418 8.19543 38.1814 9.57868 38.4145C9.90988 38.4728 10.6113 38.9972 10.6113 39.2886V45.8925H10.6307Z" fill="white"/>
<path d="M28.126 10.7361H38.9971C39.1725 10.7361 40.1466 11.1246 40.3804 11.2605C42.3091 12.2705 42.9715 14.5625 42.7378 16.602C48.5825 16.8156 48.4851 24.8763 42.7378 25.3425C43.03 27.9646 41.6273 30.7033 38.8413 31.0529C31.0093 30.6062 22.5345 31.6356 14.761 31.0529C11.7607 30.8199 10.3775 28.1006 10.5918 25.3425C4.88344 24.8375 4.84447 16.8545 10.5918 16.602C10.4164 14.5819 11.0594 12.2705 12.9492 11.2605C13.1635 11.144 14.1765 10.7361 14.3519 10.7361H25.2231V7.39528C25.2231 6.9097 26.2946 6.34642 26.8011 6.36585C27.2103 6.36585 28.1065 7.04566 28.1065 7.39528V10.7361H28.126ZM14.9558 13.6302C14.196 13.7661 13.709 14.2323 13.6116 15.0287C13.1829 18.622 13.9428 23.0699 13.6116 26.7604C13.631 27.3625 13.9622 27.7898 14.4688 28.0812L38.4321 28.1783C40.5557 27.9258 39.7375 24.3325 39.718 22.934C39.6985 20.6032 40.0492 17.7674 39.8738 15.5531C39.7764 14.4265 39.3868 13.6885 38.1594 13.5719L14.9364 13.6108L14.9558 13.6302ZM10.6307 19.4572C8.76044 19.5349 8.74095 22.3318 10.6307 22.3124V19.4572ZM42.7572 22.3124C44.6665 22.2736 44.7055 19.5349 42.7572 19.4572V22.3124Z" fill="white"/>
<path d="M20.0213 16.6215C26.6258 15.6697 26.8596 25.2066 20.9369 25.3037C15.6377 25.4008 14.9558 17.3595 20.0213 16.6215ZM20.5668 19.4767C18.7744 19.768 19.1251 22.7787 21.3266 22.2737C22.8267 21.924 22.6514 19.1271 20.5668 19.4767Z" fill="white"/>
<path d="M31.6329 16.6214C38.3154 15.5725 38.5492 25.595 32.3148 25.3036C27.1909 25.0706 26.8013 17.3789 31.6329 16.6214ZM33.5422 22.0017C34.906 20.7974 33.0357 18.5249 31.5355 19.8068C30.0354 21.0888 32.042 23.303 33.5422 22.0017Z" fill="white"/>
</g>
<defs>
<clipPath id="clip0_1_320">
<rect width="67" height="64" fill="white" transform="translate(0.5 0.5)"/>
</clipPath>
</defs>
</svg>
