<svg width="101" height="100" viewBox="0 0 101 100" fill="none" xmlns="http://www.w3.org/2000/svg">
<rect x="3" y="2.5" width="95" height="95" rx="17.5" stroke="#E6A823" stroke-width="5"/>
<g clip-path="url(#clip0_1_92)">
<path d="M82 81.4605H77.1078C76.8674 78.2397 75.3776 75.8607 72.3353 74.6225C70.3128 73.8003 67.7761 74.0139 66.3813 74.9521C66.739 76.7076 67.1003 78.4026 67.4185 80.1063C67.4962 80.521 67.4296 80.9618 67.4296 81.4457H62.5658C62.4042 77.3829 60.7579 74.062 57.4319 71.6572C55.3058 70.1202 52.9011 69.4202 50.2817 69.4474C44.1847 69.5091 38.6007 74.4188 38.4009 81.5H33.5273C33.4829 79.2273 33.9687 77.1125 34.7617 75.0669C30.8993 72.6707 24.2818 74.8966 23.8798 81.4506H19C18.9877 79.2878 19.5377 77.2792 20.5921 75.4163C21.6403 73.5633 23.0992 72.0831 24.9194 70.9597C22.4567 66.8537 22.58 63.0291 26.2624 59.7774C28.8632 57.48 32.5912 57.3417 35.5386 59.191C37.2158 60.2441 38.3541 61.7329 38.9411 63.6341C39.5256 65.5278 39.369 67.3858 38.6562 69.1363C40.0423 68.1549 41.4544 67.1549 42.9034 66.129C40.6478 63.5797 39.6884 60.5317 40.3519 57.0602C40.823 54.5937 42.066 52.5444 44.0466 50.9926C48.2148 47.726 53.8136 48.0013 57.6452 51.595C61.0748 54.8109 62.4819 61.2304 58.0411 66.2093C58.7847 66.6697 59.5481 67.0944 60.2584 67.5956C60.9675 68.0981 61.6224 68.6771 62.3993 69.3017C61.4781 67.0784 61.4374 64.9377 62.3364 62.8193C63.0307 61.1835 64.1739 59.9231 65.7117 59.0256C68.717 57.2701 72.5474 57.701 75.1137 60.086C76.6355 61.502 77.5062 63.2526 77.6702 65.3179C77.8317 67.3549 77.2521 69.2079 76.0238 70.8646C76.6281 71.335 77.2102 71.7461 77.7454 72.2127C80.1193 74.2756 81.4919 76.8817 81.9026 80.0001C81.9186 80.1198 81.9679 80.2346 82.0025 80.3519V81.4605H82ZM50.5197 64.4674C53.5263 64.4019 55.8657 62.1107 55.8867 59.0429C55.9076 56.0702 53.3857 53.6196 50.463 53.6764C47.3997 53.7369 45.1195 56.0714 45.0948 59.0984C45.0701 62.0674 47.5723 64.4822 50.5197 64.4661V64.4674ZM31.3087 69.0264C32.9785 69.0203 34.3658 67.6314 34.3634 65.9685C34.3609 64.3118 32.9723 62.9242 31.3038 62.9131C29.6204 62.902 28.1874 64.3365 28.2183 66.0043C28.2491 67.682 29.6303 69.0326 31.3087 69.0264ZM69.6777 69.0264C71.3561 69.0314 72.7373 67.6759 72.7644 66.0006C72.7916 64.3316 71.3573 62.8983 69.674 62.9131C68.0042 62.9279 66.6169 64.3167 66.6181 65.9722C66.6193 67.6376 68.0055 69.0215 69.6765 69.0264H69.6777Z" fill="#E6A823"/>
<path d="M50.6147 18.5C50.7516 18.6716 50.8737 18.858 51.0278 19.0123C53.7224 21.7159 56.4194 24.4171 59.1227 27.1132C59.2805 27.2713 59.4852 27.3824 59.6221 27.4824C58.384 28.7181 57.2432 29.8551 56.1074 30.9872C55.1653 30.0341 54.1602 29.0193 53.1564 28.0033C53.0984 28.033 53.0404 28.0626 52.9825 28.0922V43.7583H48.0496V28.0095C46.9718 29.1206 45.9803 30.1428 45.0356 31.118C43.7938 29.8675 42.658 28.7231 41.4716 27.528C41.521 27.4762 41.6677 27.3157 41.8219 27.1614C44.5337 24.4454 47.2468 21.7307 49.9562 19.0123C50.1103 18.858 50.2324 18.6716 50.3693 18.5C50.4519 18.5 50.5333 18.5 50.6159 18.5L50.6147 18.5Z" fill="#E6A823"/>
<path d="M28.7103 40.3818C27.704 41.3929 26.6977 42.404 25.7284 43.3756C24.5544 42.1966 23.4174 41.0534 22.3235 39.9535C25.2832 36.9906 28.3071 33.9636 31.2841 30.9847C34.2438 33.9475 37.2676 36.9733 40.2483 39.9584C39.1791 41.0238 38.0396 42.1608 36.8594 43.336C35.9222 42.3916 34.9085 41.3695 33.7665 40.2177V52.9888H28.8509V40.4411L28.7103 40.3818Z" fill="#E6A823"/>
<path d="M72.1417 40.4374V53.0036H67.2446V40.3312C66.1692 41.4398 65.1777 42.462 64.2343 43.436C62.9962 42.1892 61.8604 41.0448 60.7838 39.9609C63.704 37.0375 66.7266 34.013 69.6864 31.0501C72.6128 33.9796 75.6465 37.0165 78.6494 40.0238C77.6098 41.0645 76.4814 42.1929 75.3653 43.3101C74.4022 42.3361 73.3885 41.3114 72.376 40.2868C72.2983 40.3374 72.2206 40.388 72.1417 40.4386V40.4374Z" fill="#E6A823"/>
</g>
<defs>
<clipPath id="clip0_1_92">
<rect width="63" height="63" fill="white" transform="translate(19 18.5)"/>
</clipPath>
</defs>
</svg>
