<svg width="101" height="101" viewBox="0 0 101 101" fill="none" xmlns="http://www.w3.org/2000/svg">
<rect x="3" y="3" width="95" height="95" rx="17.5" stroke="#E6A823" stroke-width="5"/>
<g clip-path="url(#clip0_1_100)">
<path d="M19.4995 51.4675C19.4995 50.822 19.4995 50.1765 19.4995 49.5293C19.5351 49.4824 19.5918 49.4404 19.6031 49.3886C20.1078 47.1286 21.4652 45.6531 23.6556 44.9122C23.8287 44.8539 24.0067 44.5967 24.052 44.401C24.7444 41.4323 25.9124 38.6659 27.5092 36.0726C27.616 35.8995 27.6257 35.5743 27.5351 35.3899C26.3848 33.0328 26.778 30.3731 28.5705 28.5742C30.3549 26.7833 33.0356 26.3821 35.3862 27.5275C35.5722 27.6181 35.899 27.6164 36.0689 27.5113C38.6622 25.9145 41.4302 24.7497 44.3956 24.0492C44.6092 23.9991 44.8648 23.7548 44.9392 23.5429C45.7886 21.0984 47.9467 19.5049 50.4656 19.5C53.0378 19.4952 55.2008 21.0693 56.0583 23.5332C56.1327 23.7451 56.385 23.9942 56.597 24.0444C59.564 24.7449 62.3304 25.9113 64.9237 27.5064C65.0968 27.6132 65.3961 27.5906 65.6113 27.5339C66.3263 27.3447 67.0187 26.9871 67.7403 26.9192C69.9858 26.7089 71.8365 27.5404 73.1065 29.4122C74.3878 31.3001 74.4509 33.3191 73.4705 35.3818C73.3815 35.5695 73.3831 35.8946 73.4883 36.0661C75.0834 38.6611 76.2498 41.4275 76.9503 44.3945C77.0005 44.608 77.2464 44.8637 77.4583 44.9365C79.9012 45.7874 81.4931 47.9455 81.4979 50.4644C81.5028 53.0318 79.9271 55.1932 77.4616 56.0555C77.2496 56.1299 77.0021 56.3839 76.952 56.5958C76.2498 59.5629 75.085 62.3293 73.4899 64.9242C73.3847 65.0957 73.3799 65.4225 73.4689 65.6085C74.6126 67.9656 74.213 70.6463 72.4254 72.4259C70.6264 74.2167 67.9668 74.6115 65.608 73.4645C65.4236 73.3739 65.0968 73.382 64.9237 73.4887C62.3288 75.0823 59.5624 76.2503 56.5954 76.9508C56.3834 77.001 56.1343 77.2501 56.055 77.462C55.2914 79.5279 53.8759 80.8545 51.7242 81.3754C51.6336 81.3981 51.5527 81.4563 51.467 81.5H49.5289C49.4836 81.4644 49.4415 81.4078 49.3897 81.3965C47.1346 80.8869 45.6527 79.536 44.9117 77.3439C44.8535 77.1708 44.5946 76.9929 44.3989 76.9459C41.4302 76.2519 38.6638 75.0839 36.0689 73.4887C35.8974 73.3836 35.5706 73.3771 35.3846 73.4661C33.0226 74.6115 30.3533 74.2151 28.5672 72.4242C26.7763 70.6285 26.38 67.9575 27.5286 65.6069C27.6192 65.4225 27.6111 65.0957 27.5043 64.9242C25.9092 62.3293 24.7315 59.5661 24.0649 56.591C23.9889 56.248 23.8077 56.1251 23.4841 56.0118C21.4522 55.2951 20.1661 53.8763 19.6257 51.7862C19.5966 51.6761 19.5384 51.5726 19.4947 51.4675H19.4995ZM27.8732 55.7659C28.4216 58.1505 29.3486 60.3863 30.5992 62.4943C30.782 62.8017 30.9793 62.7742 31.2495 62.6981C32.2218 62.4215 33.1973 62.4279 34.1729 62.6916C37.2839 63.5313 39.0764 66.5824 38.3225 69.7258C38.2772 69.9134 38.3209 70.2548 38.4422 70.3308C40.5583 71.6429 42.8312 72.5828 45.2547 73.1296C47.4872 68.8683 53.3905 68.7163 55.7654 73.1296C58.1484 72.5795 60.3858 71.659 62.4922 70.4036C62.7979 70.2208 62.7785 70.0251 62.7009 69.7549C62.4291 68.802 62.4323 67.8459 62.6799 66.8882C63.4936 63.7448 66.5593 61.9232 69.7285 62.6803C69.9162 62.7256 70.2543 62.6803 70.332 62.5558C71.6456 60.4397 72.5807 58.1667 73.1291 55.7433C68.8679 53.5075 68.7158 47.609 73.1275 45.2325C72.5758 42.8495 71.6553 40.6121 70.3999 38.5058C70.2171 38.1984 70.0197 38.2259 69.7496 38.3035C68.7773 38.5818 67.8001 38.5786 66.8246 38.3165C63.7282 37.4849 61.9292 34.4144 62.6782 31.2743C62.7235 31.0866 62.6782 30.7469 62.5569 30.6708C60.4425 29.3556 58.1678 28.4189 55.7444 27.8737C53.5135 32.1284 47.6166 32.2918 45.232 27.8737C42.849 28.4237 40.6133 29.3475 38.5053 30.6013C38.1979 30.7841 38.2222 30.9814 38.2982 31.2516C38.5732 32.2255 38.5635 33.1994 38.2982 34.1749C37.4537 37.2973 34.4107 39.0914 31.2722 38.3278C31.0845 38.2825 30.7432 38.3229 30.6687 38.4443C29.3551 40.5603 28.4152 42.8333 27.8716 45.2568C32.1215 47.4796 32.2946 53.3845 27.8732 55.7691V55.7659ZM32.746 30.7582C31.7025 30.7242 30.7949 31.58 30.7609 32.6316C30.727 33.6718 31.5763 34.5762 32.6327 34.6198C33.6552 34.6635 34.5789 33.7915 34.6242 32.7448C34.6679 31.7208 33.7911 30.7938 32.7476 30.7582H32.746ZM30.7593 68.2504C30.7254 69.2938 31.5763 70.1982 32.6311 70.237C33.6649 70.2758 34.5773 69.4168 34.621 68.3652C34.663 67.3428 33.7911 66.4174 32.746 66.3737C31.7187 66.3317 30.7933 67.2036 30.7593 68.2487V68.2504ZM70.2414 32.6655C70.2284 31.6156 69.337 30.7436 68.2887 30.7582C67.2404 30.7727 66.3587 31.6706 66.3765 32.7076C66.3943 33.7478 67.3019 34.6376 68.3324 34.6215C69.3742 34.6053 70.2543 33.7042 70.2414 32.6655ZM66.3765 68.2924C66.3652 69.3294 67.2501 70.2289 68.2936 70.2402C69.3386 70.2516 70.2268 69.378 70.2398 68.3264C70.2527 67.2894 69.371 66.3899 68.3275 66.377C67.2954 66.364 66.3878 67.2554 66.3765 68.294V68.2924ZM50.4947 27.2427C51.5285 27.2476 52.4312 26.3481 52.4344 25.3143C52.436 24.2789 51.5446 23.3827 50.5044 23.3746C49.4739 23.3665 48.5647 24.2725 48.5663 25.3046C48.5679 26.3449 49.4577 27.2395 50.4963 27.2427H50.4947ZM27.2455 50.5C27.2455 49.4646 26.3541 48.57 25.3139 48.5619C24.2833 48.5554 23.3741 49.4614 23.3774 50.4935C23.3806 51.5338 24.272 52.4284 25.309 52.43C26.3428 52.4333 27.2455 51.5338 27.2471 50.5H27.2455ZM75.7014 48.5635C74.6757 48.5506 73.7633 49.4501 73.7536 50.4838C73.7439 51.5127 74.6353 52.4187 75.6739 52.4333C76.6963 52.4478 77.6169 51.5403 77.6233 50.5113C77.6298 49.4776 76.7384 48.5765 75.7014 48.5635ZM52.436 75.7051C52.4457 74.673 51.5576 73.7686 50.519 73.7524C49.4949 73.7363 48.5792 74.6341 48.5663 75.6663C48.5517 76.6936 49.4431 77.6028 50.4817 77.6206C51.5026 77.6384 52.4263 76.734 52.436 75.7051Z" fill="#E6A823"/>
<path d="M77.6513 23.3746C78.7174 23.3827 79.5587 24.2336 79.5603 25.3046C79.5603 26.4031 78.7012 27.254 77.5995 27.2443C76.5124 27.2346 75.6711 26.3562 75.6922 25.2512C75.7116 24.1883 76.5706 23.3649 77.6513 23.3746Z" fill="#E6A823"/>
<path d="M38.564 54.4053C36.2894 51.935 36.4835 48.7852 38.4491 46.7225C37.9832 45.7825 37.4202 44.9316 37.129 43.9949C36.6065 42.314 37.0805 40.7706 38.1612 39.4133C39.313 37.9654 40.8305 37.0061 42.5405 36.3978C48.2189 34.382 53.8699 34.4079 59.4399 36.8249C60.6694 37.3587 61.7533 38.1369 62.6366 39.1658C64.5553 41.3967 64.5489 44.1308 62.6205 46.352C62.5558 46.4264 62.4943 46.5041 62.4021 46.6173C63.4051 47.7077 64.0506 48.9566 64.0571 50.4596C64.0635 51.9673 63.4585 53.2324 62.3988 54.3633C62.5299 54.5202 62.6544 54.669 62.779 54.8195C64.4825 56.8725 64.4971 59.5855 62.7952 61.6401C61.3101 63.4326 59.325 64.4437 57.1426 65.0633C52.1728 66.474 47.2321 66.398 42.3755 64.5375C40.8742 63.9616 39.5153 63.1301 38.4362 61.9119C36.435 59.6534 36.4253 56.9259 38.386 54.6334C38.4491 54.559 38.5074 54.4798 38.564 54.407V54.4053ZM49.6766 38.8374C48.7075 39.0008 46.8988 39.1933 45.1549 39.6398C44.0483 39.9229 42.966 40.4714 42.0034 41.1007C40.4115 42.1409 40.4487 43.3187 42.0147 44.4236C42.5696 44.8151 43.1747 45.1694 43.8089 45.4072C47.9957 46.9813 52.231 47.0121 56.4826 45.6806C57.6442 45.3166 58.7362 44.7941 59.5968 43.8946C60.3782 43.0792 60.396 42.3706 59.5709 41.5909C59.0953 41.1411 58.5356 40.748 57.9548 40.4439C55.6284 39.2257 53.0917 38.9442 49.6766 38.8374ZM50.7864 62.1448C51.5273 62.0769 52.5773 62.0283 53.6126 61.8763C55.5184 61.5948 57.3707 61.1078 58.9513 59.9414C59.3897 59.6178 59.791 59.1697 60.0514 58.6925C60.4057 58.0405 59.9366 57.518 59.5548 57.0164C59.2102 56.5635 58.8348 56.6848 58.3851 56.8579C56.2464 57.6862 54.0252 58.1424 51.7328 58.2395C48.494 58.377 45.3409 57.9709 42.314 56.7544C42.162 56.6929 41.9419 56.6605 41.806 56.7236C40.8774 57.154 40.5781 58.4644 41.2673 59.2247C41.641 59.6356 42.0892 60.0093 42.5696 60.2892C45.0125 61.7161 47.7239 62.0364 50.7896 62.1448H50.7864ZM50.5097 54.3778L50.5372 54.5396C52.121 54.2856 53.7259 54.1141 55.2854 53.7534C56.8126 53.3991 58.3091 52.8684 59.4884 51.7473C60.3992 50.8818 60.3814 50.0632 59.4884 49.1961C59.2312 48.9469 59.0015 48.8774 58.6326 49.0149C53.2082 51.0549 47.7773 51.0452 42.3464 49.023C42.1878 48.9631 41.9775 48.9033 41.8352 48.9583C41.0101 49.2737 40.562 50.6424 41.1541 51.2895C41.6847 51.8703 42.3334 52.4058 43.0323 52.7568C45.3765 53.9313 47.897 54.4005 50.5113 54.3778H50.5097Z" fill="#E6A823"/>
</g>
<defs>
<clipPath id="clip0_1_100">
<rect width="62" height="62" fill="white" transform="translate(19.5 19.5)"/>
</clipPath>
</defs>
</svg>
