<svg width="1024" height="331" viewBox="0 0 1024 331" fill="none" xmlns="http://www.w3.org/2000/svg">
<path d="M1023.75 0H682.5V124.429L726.954 124.206V42.7179H979.296V288.032H835.935L836.599 330.75H1023.42L1023.75 0Z" fill="#4B2118"/>
<path d="M161.146 160.905V330.75H114.761V263.732H46.3853V330.75H0V160.905H46.3853V225.295H114.761V160.905H161.146Z" fill="#4B2118"/>
<path fill-rule="evenodd" clip-rule="evenodd" d="M189.583 245.828C189.583 294.809 222.451 330.75 269.997 330.75C317.543 330.75 350.729 294.809 350.729 245.828C350.729 196.528 317.862 160.905 269.997 160.905C222.451 160.905 189.583 196.528 189.583 245.828ZM233.3 245.828C233.3 217.52 247.66 198.755 269.997 198.755C292.015 198.755 307.332 217.52 307.332 245.828C307.332 274.135 292.334 292.901 269.997 292.901C247.66 292.901 233.3 274.135 233.3 245.828Z" fill="#4B2118"/>
<path d="M445.487 330.75L410.502 229.894V330.75H369.688V160.905H423.136L460.064 266.36L496.667 160.905H549.792V330.75H508.653V229.894L473.992 330.75H445.487V330.75Z" fill="#4B2118"/>
<path d="M644.583 330.75H597.188V160.905H644.583V330.75Z" fill="#4B2118"/>
<path d="M796.25 160.905V199.014H723.499V225.624H790.085V263.075H723.499V292.313H796.25V330.75H682.5V160.905H796.25Z" fill="#4B2118"/>
</svg>
