<svg width="33" height="32" viewBox="0 0 33 32" fill="none" xmlns="http://www.w3.org/2000/svg">
<path d="M19.4688 30.9335C18.9807 31.062 18.5374 30.9785 18.1392 30.683C17.7409 30.3875 17.5418 29.9828 17.5418 29.4689V21.7606C17.5418 21.2467 17.7409 20.842 18.1392 20.5465C18.5374 20.251 18.9935 20.1675 19.5074 20.296C20.4581 20.5529 21.4088 20.7328 22.3595 20.8356C23.3102 20.9384 24.2737 20.9897 25.2501 20.9897C26.2265 20.9897 27.1965 20.9384 28.16 20.8356C29.1235 20.7328 30.0807 20.5529 31.0313 20.296C31.5195 20.1675 31.9628 20.251 32.361 20.5465C32.7593 20.842 32.9584 21.2467 32.9584 21.7606V29.4689C32.9584 29.9828 32.7593 30.3875 32.361 30.683C31.9628 30.9785 31.5195 31.062 31.0313 30.9335C30.0807 30.6766 29.1235 30.4967 28.16 30.3939C27.1965 30.2911 26.2265 30.2397 25.2501 30.2397C24.2737 30.2397 23.3037 30.2911 22.3402 30.3939C21.3767 30.4967 20.4195 30.6766 19.4688 30.9335ZM11.7605 31.0106L11.1438 26.0772C10.8098 25.9488 10.4951 25.7946 10.1996 25.6147C9.90409 25.4349 9.61503 25.2422 9.33239 25.0366L4.74593 26.9637L0.506348 19.6408L4.47614 16.6345C4.45045 16.4547 4.4376 16.2812 4.4376 16.1142V15.0736C4.4376 14.9066 4.45045 14.7331 4.47614 14.5533L0.506348 11.547L4.74593 4.22412L9.33239 6.1512C9.61503 5.94565 9.91051 5.75294 10.2188 5.57308C10.5272 5.39322 10.8355 5.23905 11.1438 5.11058L11.7605 0.177246H20.2397L20.8563 5.11058C21.1904 5.23905 21.5051 5.39322 21.8006 5.57308C22.0961 5.75294 22.3852 5.94565 22.6678 6.1512L27.2543 4.22412L31.4939 11.547L27.5241 14.5533C27.5498 14.7331 27.5626 14.9066 27.5626 15.0736V16.3647C27.5626 16.6217 27.5369 16.8786 27.4855 17.1356H24.3251C24.3765 16.8786 24.415 16.6217 24.4407 16.3647C24.4664 16.1078 24.4793 15.8509 24.4793 15.5939C24.4536 15.1057 24.415 14.6753 24.3636 14.3028C24.3123 13.9302 24.2352 13.5769 24.1324 13.2429L27.447 10.7377L25.9438 8.11683L22.1282 9.73558C21.5629 9.14461 20.9399 8.64999 20.259 8.25173C19.5781 7.85346 18.8393 7.55155 18.0428 7.346L17.5418 3.26058H14.497L13.9574 7.346C13.1609 7.55155 12.4221 7.85346 11.7412 8.25173C11.0603 8.64999 10.4373 9.13176 9.87197 9.69704L6.05635 8.11683L4.55322 10.7377L7.86781 13.2043C7.73933 13.5897 7.6494 13.9752 7.59801 14.3606C7.54663 14.746 7.52093 15.1571 7.52093 15.5939C7.52093 16.005 7.54663 16.4033 7.59801 16.7887C7.6494 17.1741 7.73933 17.5595 7.86781 17.945L4.55322 20.4502L6.05635 23.071L9.87197 21.4522C10.4886 22.0946 11.1824 22.6342 11.9532 23.071C12.7241 23.5078 13.5591 23.7904 14.4584 23.9189V31.0106H11.7605ZM14.4584 20.7585V17.2512C14.2529 17.0456 14.0859 16.8016 13.9574 16.5189C13.8289 16.2363 13.7647 15.9279 13.7647 15.5939C13.7647 14.9516 13.9895 14.4055 14.4392 13.9559C14.8888 13.5062 15.4348 13.2814 16.0772 13.2814C16.7195 13.2814 17.2656 13.5062 17.7152 13.9559C18.1649 14.4055 18.3897 14.9516 18.3897 15.5939C18.3897 15.8766 18.3447 16.1528 18.2548 16.4226C18.1649 16.6924 18.0171 16.93 17.8116 17.1356H21.2418C21.3188 16.8786 21.3767 16.6281 21.4152 16.384C21.4537 16.1399 21.473 15.8766 21.473 15.5939C21.473 14.1036 20.9463 12.8318 19.8928 11.7783C18.8393 10.7248 17.5675 10.1981 16.0772 10.1981C14.5612 10.1981 13.2829 10.7248 12.2423 11.7783C11.2017 12.8318 10.6813 14.1036 10.6813 15.5939C10.6813 16.8272 11.0346 17.9064 11.7412 18.8314C12.4478 19.7564 13.3536 20.3988 14.4584 20.7585Z" fill="#E6A823"/>
</svg>
