<svg width="30" height="36" viewBox="0 0 30 36" fill="none" xmlns="http://www.w3.org/2000/svg">
<path d="M18.3328 19.5828H26.2492V14.8329H18.3328V19.5828ZM15.1662 25.916V13.2496C15.1662 12.801 15.3179 12.425 15.6214 12.1215C15.9248 11.8181 16.3009 11.6663 16.7495 11.6663H27.8325C28.2811 11.6663 28.6572 11.8181 28.9606 12.1215C29.2641 12.425 29.4158 12.801 29.4158 13.2496V21.1661C29.4158 21.6147 29.2641 21.9907 28.9606 22.2942C28.6572 22.5977 28.2811 22.7494 27.8325 22.7494H18.3328L15.1662 25.916ZM4.08309 35.4158C3.21228 35.4158 2.46681 35.1057 1.84669 34.4856C1.22657 33.8654 0.916504 33.12 0.916504 32.2492V3.74984C0.916504 2.87903 1.22657 2.13356 1.84669 1.51344C2.46681 0.893314 3.21228 0.583252 4.08309 0.583252H19.916C20.7869 0.583252 21.5323 0.893314 22.1525 1.51344C22.7726 2.13356 23.0826 2.87903 23.0826 3.74984V10.083H19.916V8.49973H4.08309V27.4993H19.916V25.916H23.0826V32.2492C23.0826 33.12 22.7726 33.8654 22.1525 34.4856C21.5323 35.1057 20.7869 35.4158 19.916 35.4158H4.08309ZM4.08309 30.6659V32.2492H19.916V30.6659H4.08309ZM4.08309 5.33314H19.916V3.74984H4.08309V5.33314Z" fill="#E6A823"/>
</svg>
