<svg width="18" height="17" viewBox="0 0 18 17" fill="none" xmlns="http://www.w3.org/2000/svg">
<path d="M3.22098 0.0152274C4.321 -0.137057 5.14523 0.857001 5.69917 1.64674C6.34268 2.56427 6.87619 3.48946 6.06217 4.50418C5.77381 4.86308 4.95508 5.38804 4.94173 5.82729C4.92051 6.51295 5.80681 7.69603 6.24211 8.234C7.11191 9.3107 9.9256 12.2447 11.2464 12.485C12.0392 12.6288 12.1068 12.2072 12.6041 11.7932C13.6617 10.9116 14.3013 10.959 15.4642 11.6493C16.8824 12.4911 18.303 13.8042 16.9641 15.4082C16.4165 16.064 15.5773 16.8951 14.6902 16.9816C11.9253 17.2502 8.00056 14.4853 6.06374 12.7138C3.67749 10.532 0.133859 5.96351 0.530652 2.61784C0.635939 1.73015 2.32054 0.139963 3.22098 0.0152274Z" fill="#E6A823"/>
</svg>
