<svg width="32" height="32" viewBox="0 0 32 32" fill="none" xmlns="http://www.w3.org/2000/svg">
<path d="M0.512302 11.9504C0.534136 11.7311 0.657861 11.2714 0.72498 11.0423C1.36301 8.85232 3.33534 7.35266 5.59878 7.19647C6.45353 5.00727 8.21479 3.48657 10.5381 3.05277C10.7831 3.00745 11.0961 3.04144 11.3475 2.95485C13.3029 -0.857028 18.7169 -0.860265 20.669 2.95485C23.2381 3.07301 25.5217 4.80494 26.3668 7.21751C28.6844 7.27902 30.7651 8.93892 31.3304 11.1856C32.0347 13.9874 30.4845 16.6808 27.8086 17.6245V22.0879C29.5448 22.7661 30.2338 24.8986 29.0208 26.3983C27.938 27.7377 25.922 27.7425 24.8142 26.4306C23.5899 24.9804 24.2166 22.7272 25.9956 22.1283V17.8875H20.5477V25.8237C22.3445 26.4023 22.9332 28.6749 21.7291 30.126C21.3394 30.5954 20.6116 31.0178 20.0034 31.0947H19.2773C18.5996 30.9304 18.0069 30.6674 17.5516 30.126C16.3402 28.6854 16.9394 26.3918 18.733 25.8237V17.8875H13.2851V25.8237C15.0819 26.4015 15.6706 28.6749 14.4665 30.126C14.0145 30.6706 13.4193 30.9361 12.7409 31.0947H12.0147C11.337 30.9304 10.7443 30.6682 10.289 30.126C9.07763 28.6854 9.67685 26.3918 11.4705 25.8237V17.8875H6.02251V22.1283C7.78863 22.728 8.41615 24.9334 7.23146 26.3983C6.30231 27.5475 4.63566 27.7482 3.45987 26.8434C1.70508 25.4935 2.21049 22.8648 4.20869 22.0879V17.6245C2.76119 17.1081 1.48755 16.0002 0.908546 14.5548C0.720128 14.0854 0.628749 13.5909 0.513919 13.102C0.540605 12.7314 0.476721 12.3154 0.513919 11.9512L0.512302 11.9504ZM21.155 4.86483C21.1065 5.51876 20.4709 5.84167 19.8813 5.62073C19.2918 5.39979 19.3759 4.83407 19.2328 4.33149C18.4783 1.68341 14.9574 1.00602 13.3433 3.25753C14.063 3.56426 15.2202 3.91469 14.7294 4.94738C14.3008 5.85057 13.4395 5.22659 12.8468 5.02831C10.6537 4.29183 8.45739 5.4354 7.47406 7.43845C7.91235 7.64887 8.34256 7.82692 8.75174 8.09642C9.82888 8.80619 10.4022 9.87692 11.8619 10.0121C12.4902 10.0703 13.6757 9.72719 13.9215 10.5559C14.3833 12.1139 11.9904 11.9374 11.1049 11.71C11.1996 12.4036 11.261 13.5998 10.285 13.6516C9.18357 13.709 9.40272 12.5727 9.27171 11.8784C8.70808 8.87984 4.7141 7.99445 2.96659 10.5025C1.21907 13.0106 3.10325 16.107 5.98936 16.0714C12.9228 16.0237 19.87 16.171 26.7962 15.9961C29.485 15.4863 30.6381 12.2434 28.7774 10.1675C26.9167 8.09157 23.5025 8.99153 22.8176 11.5894C22.6356 12.2798 22.7941 13.3877 21.7267 13.3513C20.6326 13.3133 20.8639 12.0224 20.9649 11.2916C19.7875 11.0771 18.6231 10.3431 18.0166 9.30554C17.9397 9.17443 17.7416 8.824 17.7157 8.69774C17.5589 7.93861 18.0926 7.27011 18.8794 7.53314C19.4099 7.71038 19.4689 8.31737 19.8223 8.70907C20.2889 9.22623 21.0466 9.5103 21.7307 9.56533C22.4375 8.65971 23.3376 7.81316 24.4818 7.52909C24.0298 6.15002 22.5782 5.08173 21.155 4.86564V4.86483ZM4.97692 23.7769C3.88603 23.9347 3.96771 25.7395 5.25833 25.576C6.42846 25.4279 6.13734 23.6094 4.97692 23.7769ZM26.7679 23.7769C25.677 23.9347 25.7587 25.7395 27.0493 25.576C28.2194 25.4279 27.9283 23.6094 26.7679 23.7769ZM12.178 27.473C11.0378 27.711 11.3864 29.506 12.5751 29.2624C13.6983 29.0318 13.3854 27.2213 12.178 27.473ZM19.4414 27.473C18.3012 27.711 18.6497 29.506 19.8385 29.2624C20.9617 29.0318 20.6488 27.2213 19.4414 27.473Z" fill="#E8A80F"/>
</svg>
